<svg id="visual" viewBox="0 0 1000 100" width="1000" height="100" xmlns="http://www.w3.org/2000/svg" xmlns:xlink="http://www.w3.org/1999/xlink" version="1.1"><rect x="0" y="0" width="1000" height="100" fill="#040809"></rect><path d="M0 40L23.8 39.5C47.7 39 95.3 38 143 34.7C190.7 31.3 238.3 25.7 286 23.7C333.7 21.7 381.3 23.3 428.8 22.8C476.3 22.3 523.7 19.7 571.2 20C618.7 20.3 666.3 23.7 714 24.7C761.7 25.7 809.3 24.3 857 26.8C904.7 29.3 952.3 35.7 976.2 38.8L1000 42L1000 101L976.2 101C952.3 101 904.7 101 857 101C809.3 101 761.7 101 714 101C666.3 101 618.7 101 571.2 101C523.7 101 476.3 101 428.8 101C381.3 101 333.7 101 286 101C238.3 101 190.7 101 143 101C95.3 101 47.7 101 23.8 101L0 101Z" fill="#040809"></path><path d="M0 32L23.8 35.8C47.7 39.7 95.3 47.3 143 47.8C190.7 48.3 238.3 41.7 286 39C333.7 36.3 381.3 37.7 428.8 39C476.3 40.3 523.7 41.7 571.2 40C618.7 38.3 666.3 33.7 714 35.3C761.7 37 809.3 45 857 49.2C904.7 53.3 952.3 53.7 976.2 53.8L1000 54L1000 101L976.2 101C952.3 101 904.7 101 857 101C809.3 101 761.7 101 714 101C666.3 101 618.7 101 571.2 101C523.7 101 476.3 101 428.8 101C381.3 101 333.7 101 286 101C238.3 101 190.7 101 143 101C95.3 101 47.7 101 23.8 101L0 101Z" fill="#082c2d"></path><path d="M0 60L23.8 59.5C47.7 59 95.3 58 143 57.7C190.7 57.3 238.3 57.7 286 57C333.7 56.3 381.3 54.7 428.8 53.7C476.3 52.7 523.7 52.3 571.2 51.5C618.7 50.7 666.3 49.3 714 48.2C761.7 47 809.3 46 857 46C904.7 46 952.3 47 976.2 47.5L1000 48L1000 101L976.2 101C952.3 101 904.7 101 857 101C809.3 101 761.7 101 714 101C666.3 101 618.7 101 571.2 101C523.7 101 476.3 101 428.8 101C381.3 101 333.7 101 286 101C238.3 101 190.7 101 143 101C95.3 101 47.7 101 23.8 101L0 101Z" fill="#005047"></path><path d="M0 64L23.8 64.7C47.7 65.3 95.3 66.7 143 68.3C190.7 70 238.3 72 286 70.7C333.7 69.3 381.3 64.7 428.8 63C476.3 61.3 523.7 62.7 571.2 62.8C618.7 63 666.3 62 714 61.8C761.7 61.7 809.3 62.3 857 62.8C904.7 63.3 952.3 63.7 976.2 63.8L1000 64L1000 101L976.2 101C952.3 101 904.7 101 857 101C809.3 101 761.7 101 714 101C666.3 101 618.7 101 571.2 101C523.7 101 476.3 101 428.8 101C381.3 101 333.7 101 286 101C238.3 101 190.7 101 143 101C95.3 101 47.7 101 23.8 101L0 101Z" fill="#167454"></path><path d="M0 76L23.8 75.3C47.7 74.7 95.3 73.3 143 73C190.7 72.7 238.3 73.3 286 73.7C333.7 74 381.3 74 428.8 73.8C476.3 73.7 523.7 73.3 571.2 71.8C618.7 70.3 666.3 67.7 714 67.5C761.7 67.3 809.3 69.7 857 71C904.7 72.3 952.3 72.7 976.2 72.8L1000 73L1000 101L976.2 101C952.3 101 904.7 101 857 101C809.3 101 761.7 101 714 101C666.3 101 618.7 101 571.2 101C523.7 101 476.3 101 428.8 101C381.3 101 333.7 101 286 101C238.3 101 190.7 101 143 101C95.3 101 47.7 101 23.8 101L0 101Z" fill="#4a9957"></path><path d="M0 86L23.8 86C47.7 86 95.3 86 143 85.5C190.7 85 238.3 84 286 83.8C333.7 83.7 381.3 84.3 428.8 84C476.3 83.7 523.7 82.3 571.2 81.3C618.7 80.3 666.3 79.7 714 80.7C761.7 81.7 809.3 84.3 857 85C904.7 85.7 952.3 84.3 976.2 83.7L1000 83L1000 101L976.2 101C952.3 101 904.7 101 857 101C809.3 101 761.7 101 714 101C666.3 101 618.7 101 571.2 101C523.7 101 476.3 101 428.8 101C381.3 101 333.7 101 286 101C238.3 101 190.7 101 143 101C95.3 101 47.7 101 23.8 101L0 101Z" fill="#87bc50"></path></svg>