<?xml version="1.0" standalone="no"?>
<!DOCTYPE svg PUBLIC "-//W3C//DTD SVG 1.1//EN" "http://www.w3.org/Graphics/SVG/1.1/DTD/svg11.dtd" >
<svg xmlns="http://www.w3.org/2000/svg" xmlns:xlink="http://www.w3.org/1999/xlink" version="1.1">
<metadata>
Created by FontForge 20170731 at Tue Jun 11 23:18:34 2019
 By Aleksey,,,
Copyright (c) 2018 by Kimmy Kirkwood. All rights reserved.
</metadata>
<defs>
<font id="EvanstonTavern-1826Light" horiz-adv-x="371" >
  <font-face 
    font-family="Evanston Tavern 1826 Light"
    font-weight="400"
    font-stretch="normal"
    units-per-em="1000"
    panose-1="0 0 4 0 0 0 0 0 0 0"
    ascent="915"
    descent="-85"
    x-height="699"
    cap-height="700"
    bbox="-303 -251 766 901"
    underline-thickness="50"
    underline-position="-200"
    unicode-range="U+0020-2212"
  />
<missing-glyph horiz-adv-x="404" 
 />
    <glyph glyph-name=".notdef" horiz-adv-x="404" 
 />
    <glyph glyph-name=".null" horiz-adv-x="0" 
 />
    <glyph glyph-name="nonmarkingreturn" horiz-adv-x="333" 
 />
    <glyph glyph-name="space" unicode=" " horiz-adv-x="225" 
 />
    <glyph glyph-name="exclam" unicode="!" horiz-adv-x="204" 
d="M88 138q-5 0 -5 5l-23 552q0 5 5 5h72q5 0 5 -5l-19 -552q0 -5 -5 -5h-30zM68 0q-5 0 -5 5v71q0 5 5 5h71q5 0 5 -5v-71q0 -5 -5 -5h-71z" />
    <glyph glyph-name="quotedbl" unicode="&#x22;" horiz-adv-x="246" 
d="M76 574q-5 0 -5 5l-11 116q0 5 5 5h45q5 0 5 -5l-12 -116q0 -5 -5 -5h-22zM148 574q-5 0 -5 5l-11 116q0 5 4 5h45q5 0 5 -5l-12 -116q0 -5 -5 -5h-21z" />
    <glyph glyph-name="numbersign" unicode="#" horiz-adv-x="534" 
d="M84 0q-6 0 -5 6l40 172h-53q-6 0 -5 5l11 52q1 4 6 4h54l51 228h-52q-6 0 -5 5l11 51q1 4 6 4h54l38 169q1 4 5 4h50q6 0 5 -6l-38 -167h98l38 169q1 4 5 4h50q6 0 5 -6l-38 -167h53q6 0 5 -6l-12 -50q-1 -4 -5 -4h-55l-51 -228h53q7 0 5 -6l-12 -51q-1 -4 -5 -4h-54
l-40 -174q-1 -4 -5 -4h-50q-6 0 -5 6l39 172h-97l-39 -174q-1 -4 -6 -4h-50zM192 239h98l51 228h-97z" />
    <glyph glyph-name="dollar" unicode="$" horiz-adv-x="347" 
d="M149 -55q-5 0 -5 5v50h-44q-4 0 -7 3l-49 49q-3 3 -3 7v148q0 5 5 5h50q5 0 5 -5v-123l23 -23h99l23 23v213l-23 23h-123q-4 0 -7 3l-49 49q-3 3 -3 7v262q0 4 3 7l49 49q3 3 7 3h44v48q0 5 5 5h50q5 0 5 -5v-48h44q4 0 7 -3l49 -49q3 -3 3 -7v-124q0 -5 -5 -5h-51
q-5 0 -5 5v100l-23 23h-99l-23 -23v-214l23 -23h124q4 0 7 -3l49 -48q3 -3 3 -7v-263q0 -4 -3 -7l-49 -49q-3 -3 -7 -3h-44v-50q0 -5 -5 -5h-50z" />
    <glyph glyph-name="percent" unicode="%" horiz-adv-x="728" 
d="M178 -41q-6 0 -4 6l324 772q2 4 6 4h54q6 0 4 -6l-324 -772q-2 -4 -6 -4h-54zM118 390q-4 0 -7 3l-78 78q-3 3 -3 7v131q0 4 3 7l80 80q3 3 7 3h89q4 0 7 -3l80 -80q3 -3 3 -7v-129q0 -3 -2 -7l-78 -80q-3 -3 -7 -3h-94zM142 456h45l46 49v81l-47 47h-44l-46 -47v-85z
M520 0q-4 0 -7 3l-78 78q-3 3 -3 7v131q0 4 3 7l80 80q3 3 7 3h89q4 0 7 -3l80 -80q3 -3 3 -7v-129q0 -3 -2 -7l-78 -80q-3 -3 -7 -3h-94zM544 66h45l46 49v81l-47 47h-44l-46 -47v-85z" />
    <glyph glyph-name="ampersand" unicode="&#x26;" horiz-adv-x="433" 
d="M272 -61q-5 0 -5 5v56h-150q-5 0 -6 3l-67 75q-2 4 -2 7v215q0 3 2 7l45 54l-45 54q-2 4 -2 7v193q0 3 2 7l67 75q1 3 6 3h142q4 0 7 -3l75 -75q3 -3 3 -7v-79q0 -5 -5 -5h-66q-5 0 -5 5v60l-38 38h-91l-40 -40v-143l43 -55h234q5 0 5 -5v-56q0 -5 -5 -5h-43v-386
q0 -5 -5 -5h-56zM149 66h81l37 40v224h-125l-33 -40v-184z" />
    <glyph glyph-name="quotesingle" unicode="'" horiz-adv-x="175" 
d="M77 574q-5 0 -5 5l-11 116q0 5 4 5h45q5 0 5 -5l-12 -116q0 -5 -5 -5h-21z" />
    <glyph glyph-name="parenleft" unicode="(" horiz-adv-x="228" 
d="M119 -39q-4 0 -7 3l-49 49q-3 3 -3 7v662q0 4 3 7l49 49q3 3 7 3h44q5 0 5 -5v-50q0 -5 -5 -5h-20l-23 -23v-614l23 -23h20q5 0 5 -5v-50q0 -5 -5 -5h-44z" />
    <glyph glyph-name="parenright" unicode=")" horiz-adv-x="228" 
d="M65 -39q-5 0 -5 5v50q0 5 5 5h20l23 23v614l-23 23h-20q-5 0 -5 5v50q0 5 5 5h44q4 0 7 -3l49 -49q3 -3 3 -7v-662q0 -4 -3 -7l-49 -49q-3 -3 -7 -3h-44z" />
    <glyph glyph-name="asterisk" unicode="*" horiz-adv-x="307" 
d="M199 490q-4 -4 -7 1l-38 63l-38 -62q-4 -5 -7 -2l-21 17q-4 4 -2 7l37 65l-59 23q-5 2 -3 7l9 30q1 5 7 3l58 -23v78q0 5 5 5h25q5 0 5 -5v-79l61 24q5 2 6 -3l9 -29q2 -5 -4 -7l-61 -23l40 -64q2 -4 -1 -7z" />
    <glyph glyph-name="plus" unicode="+" horiz-adv-x="284" 
d="M117 203q-5 0 -5 5v112h-82q-5 0 -5 5v50q0 5 5 5h82v113q0 5 5 5h50q5 0 5 -5v-113h83q5 0 5 -5v-50q0 -5 -5 -5h-83v-112q0 -5 -5 -5h-50z" />
    <glyph glyph-name="comma" unicode="," horiz-adv-x="181" 
d="M65 -70q-5 0 -5 5v120q0 5 5 5h51q5 0 5 -5v-52q0 -3 -1 -6l-25 -63q-2 -4 -6 -4h-24z" />
    <glyph glyph-name="hyphen" unicode="-" horiz-adv-x="235" 
d="M65 320q-5 0 -5 5v50q0 5 5 5h105q5 0 5 -5v-50q0 -5 -5 -5h-105z" />
    <glyph glyph-name="period" unicode="." horiz-adv-x="191" 
d="M65 0q-5 0 -5 5v61q0 5 5 5h61q5 0 5 -5v-61q0 -5 -5 -5h-61z" />
    <glyph glyph-name="slash" unicode="/" horiz-adv-x="427" 
d="M66 -38q-6 0 -4 6l250 766q2 4 5 4h44q5 0 4 -6l-250 -766q-2 -4 -5 -4h-44z" />
    <glyph glyph-name="zero" unicode="0" horiz-adv-x="357" 
d="M106 0q-4 0 -7 3l-49 49q-3 3 -3 7v582q0 4 3 7l49 49q3 3 7 3h128q4 0 7 -3l49 -49q3 -3 3 -7v-582q0 -4 -3 -7l-49 -49q-3 -3 -7 -3h-128zM130 60h78l23 23v534l-23 23h-78l-23 -23v-534z" />
    <glyph glyph-name="one" unicode="1" horiz-adv-x="290" 
d="M51 0q-5 0 -5 5v50q0 5 5 5h71v580h-37q-5 0 -5 5v50q0 5 5 5h93q5 0 5 -5v-635h71q5 0 5 -5v-50q0 -5 -5 -5h-203z" />
    <glyph glyph-name="two" unicode="2" horiz-adv-x="378" 
d="M56 0q-5 0 -5 5v311q0 4 3 7l49 49q3 3 7 3h123l23 23v219l-23 23h-99l-23 -23v-100q0 -5 -5 -5h-50q-5 0 -5 5v124q0 4 3 7l49 49q3 3 7 3h148q4 0 7 -3l49 -49q3 -3 3 -7v-267q0 -4 -3 -7l-49 -49q-3 -3 -7 -3h-124l-23 -23v-232h156v100q0 5 5 5h50q5 0 5 -5v-155
q0 -5 -5 -5h-266z" />
    <glyph glyph-name="three" unicode="3" horiz-adv-x="358" 
d="M103 0q-4 0 -7 3l-49 49q-3 3 -3 7v124q0 5 5 5h50q5 0 5 -5v-100l23 -23h99l23 23v235l-23 23h-104q-5 0 -5 5v50q0 5 5 5h104l23 23v193l-23 23h-99l-23 -23v-100q0 -5 -5 -5h-50q-5 0 -5 5v124q0 4 3 7l49 49q3 3 7 3h148q4 0 7 -3l49 -49q3 -3 3 -7v-231q0 -4 -3 -7
l-33 -32l33 -33q3 -3 3 -7v-272q0 -4 -3 -7l-49 -49q-3 -3 -7 -3h-148z" />
    <glyph glyph-name="four" unicode="4" horiz-adv-x="355" 
d="M210 0q-5 0 -5 5v217h-116q-4 0 -7 3l-49 49q-3 3 -3 7v414q0 5 5 5h50q5 0 5 -5v-390l23 -23h92v413q0 5 5 5h50q5 0 5 -5v-413h48q5 0 5 -5v-50q0 -5 -5 -5h-48v-217q0 -5 -5 -5h-50z" />
    <glyph glyph-name="five" unicode="5" horiz-adv-x="365" 
d="M110 0q-4 0 -7 3l-49 49q-3 3 -3 7v124q0 5 5 5h50q5 0 5 -5v-100l23 -23h99l23 23v240l-23 23h-123q-4 0 -7 3l-49 49q-3 3 -3 7v290q0 5 5 5h256q5 0 5 -5v-123q0 -5 -5 -5h-50q-5 0 -5 5v68h-146v-211l23 -23h124q4 0 7 -3l49 -49q3 -3 3 -7v-288q0 -4 -3 -7l-49 -49
q-3 -3 -7 -3h-148z" />
    <glyph glyph-name="six" unicode="6" horiz-adv-x="365" 
d="M110 0q-4 0 -7 3l-49 49q-3 3 -3 7v582q0 4 3 7l49 49q3 3 7 3h148q4 0 7 -3l49 -49q3 -3 3 -7v-113q0 -5 -5 -5h-51q-5 0 -5 5v89l-23 23h-99l-23 -23v-211h147q4 0 7 -3l49 -49q3 -3 3 -7v-288q0 -4 -3 -7l-49 -49q-3 -3 -7 -3h-148zM134 60h99l23 23v240l-23 23h-99
l-23 -23v-240z" />
    <glyph glyph-name="seven" unicode="7" horiz-adv-x="345" 
d="M115 0q-7 0 -5 6l160 634h-153v-118q0 -5 -5 -5h-50q-5 0 -5 5v173q0 5 5 5h257q5 0 5 -5v-52q0 -1 -0.5 -3t-0.5 -3l-155 -633q-1 -4 -5 -4h-48z" />
    <glyph glyph-name="eight" unicode="8" horiz-adv-x="362" 
d="M107 0q-4 0 -7 3l-49 49q-3 3 -3 7v268q0 3 2 7l35 37l-35 36q-2 4 -2 7v227q0 4 3 7l49 49q3 3 7 3h148q4 0 7 -3l49 -49q3 -3 3 -7v-231q0 -4 -3 -7l-33 -32l33 -33q3 -3 3 -7v-272q0 -4 -3 -7l-49 -49q-3 -3 -7 -3h-148zM133 401h98l23 23v193l-23 23h-100l-21 -21
v-195zM131 60h100l23 23v235l-23 23h-98l-23 -23v-237z" />
    <glyph glyph-name="nine" unicode="9" horiz-adv-x="365" 
d="M255 701q4 0 7 -3l49 -49q3 -3 3 -7v-582q0 -4 -3 -7l-49 -49q-3 -3 -7 -3h-148q-4 0 -7 3l-49 49q-3 3 -3 7v113q0 5 5 5h51q5 0 5 -5v-89l23 -23h99l23 23v211h-147q-4 0 -7 3l-49 49q-3 3 -3 7v288q0 4 3 7l49 49q3 3 7 3h148zM231 641h-99l-23 -23v-240l23 -23h99
l23 23v240z" />
    <glyph glyph-name="colon" unicode=":" horiz-adv-x="191" 
d="M65 384q-5 0 -5 5v61q0 5 5 5h61q5 0 5 -5v-61q0 -5 -5 -5h-61zM65 0q-5 0 -5 5v61q0 5 5 5h61q5 0 5 -5v-61q0 -5 -5 -5h-61z" />
    <glyph glyph-name="semicolon" unicode=";" horiz-adv-x="191" 
d="M65 384q-5 0 -5 5v61q0 5 5 5h61q5 0 5 -5v-61q0 -5 -5 -5h-61zM70 -70q-5 0 -5 5v120q0 5 5 5h51q5 0 5 -5v-52q0 -3 -1 -6l-25 -63q-2 -4 -6 -4h-24z" />
    <glyph glyph-name="less" unicode="&#x3c;" horiz-adv-x="287" 
d="M227 190q0 -9 -6 -3l-158 124q-3 1 -3 6v67q0 4 3 6l158 124q6 6 6 -3v-63q0 -4 -3 -6l-124 -92l124 -91q3 -1 3 -6v-63z" />
    <glyph glyph-name="equal" unicode="=" horiz-adv-x="240" 
d="M65 332q-5 0 -5 5v49q0 5 5 5h110q5 0 5 -5v-49q0 -5 -5 -5h-110zM65 221q-5 0 -5 5v49q0 5 5 5h110q5 0 5 -5v-49q0 -5 -5 -5h-110z" />
    <glyph glyph-name="greater" unicode="&#x3e;" horiz-adv-x="287" 
d="M66 187q-6 -6 -6 3v63q0 5 3 6l124 91l-124 92q-3 2 -3 6v63q0 9 6 3l158 -124q3 -2 3 -6v-67q0 -5 -3 -6z" />
    <glyph glyph-name="question" unicode="?" horiz-adv-x="366" 
d="M118 135q-5 0 -5 5l-10 184q0 4 3 7l49 49q3 3 7 3h61l23 23v208l-23 23h-80l-22 -23v-100q0 -5 -5 -5h-51q-5 0 -5 5v124q0 4 3 7l49 49q3 3 7 3h128q4 0 7 -3l49 -49q3 -3 3 -7v-257q0 -4 -3 -7l-49 -49q-3 -3 -7 -3h-61l-23 -23l-10 -159q0 -5 -5 -5h-30zM99 0
q-5 0 -5 5v71q0 5 5 5h71q5 0 5 -5v-71q0 -5 -5 -5h-71z" />
    <glyph glyph-name="at" unicode="@" horiz-adv-x="589" 
d="M123 5q-4 0 -7 3l-64 63q-3 3 -3 7v504q0 4 3 7l63 63q3 3 7 3h334q4 0 7 -3l63 -64q3 -3 3 -7v-423q0 -3 -2 -7l-46 -47q-3 -3 -7 -3h-65q-5 0 -6 3l-65 72l-15 -15q-4 -2 -7 -2h-91q-4 0 -7 3l-44 44q-3 3 -3 7v248q0 4 3 7l45 45q3 3 7 3h94q3 0 7 -2l26 -25l5 24
q1 4 6 4h24q5 0 5 -5v-322l31 -30h21l23 25v369l-46 46h-264l-51 -49v-438l51 -52h127l33 31q4 4 8 0l25 -25q4 -4 1 -7l-51 -52q-3 -3 -7 -3h-171zM260 216h41l34 29v182l-33 32h-43l-31 -32v-182z" />
    <glyph glyph-name="A" unicode="A" horiz-adv-x="348" 
d="M37 0q-4 0 -4 5l106 690q0 5 6 5h56q6 0 6 -5l107 -690q0 -5 -4 -5h-50q-6 0 -6 5l-22 167h-117l-22 -167q0 -5 -6 -5h-50zM123 231h102l-48 347h-7z" />
    <glyph glyph-name="B" unicode="B" 
d="M60 0q-5 0 -5 5v690q0 5 5 5h202q4 0 7 -3l49 -49q3 -3 3 -7v-240q0 -4 -3 -7l-36 -36l36 -36q3 -3 3 -7v-256q0 -4 -3 -7l-49 -49q-3 -3 -7 -3h-202zM115 390h116l29 30v197l-23 23h-122v-250zM115 60h122l23 23v218l-29 29h-116v-270z" />
    <glyph glyph-name="C" unicode="C" 
d="M114 0q-4 0 -7 3l-49 49q-3 3 -3 7v582q0 4 3 7l49 49q3 3 7 3h148q4 0 7 -3l49 -49q3 -3 3 -7v-147q0 -5 -5 -5h-51q-5 0 -5 5v123l-23 23h-99l-23 -23v-534l23 -23h99l23 23v153q0 5 5 5h51q5 0 5 -5v-177q0 -4 -3 -7l-49 -49q-3 -3 -7 -3h-148z" />
    <glyph glyph-name="D" unicode="D" 
d="M60 0q-5 0 -5 5v690q0 5 5 5h202q4 0 7 -3l49 -49q3 -3 3 -7v-582q0 -4 -3 -7l-49 -49q-3 -3 -7 -3h-202zM115 60h122l23 23v534l-23 23h-122v-580z" />
    <glyph glyph-name="E" unicode="E" horiz-adv-x="324" 
d="M60 0q-5 0 -5 5v690q0 5 5 5h205q5 0 5 -5v-50q0 -5 -5 -5h-150v-260h106q5 0 5 -5v-50q0 -5 -5 -5h-106v-260h159q5 0 4 -5l-8 -50q0 -5 -6 -5h-204z" />
    <glyph glyph-name="F" unicode="F" horiz-adv-x="303" 
d="M60 0q-5 0 -5 5v690q0 5 5 5h205q5 0 5 -5v-50q0 -5 -5 -5h-150v-260h96q5 0 5 -5v-50q0 -5 -5 -5h-96v-315q0 -5 -5 -5h-50z" />
    <glyph glyph-name="G" unicode="G" horiz-adv-x="381" 
d="M114 0q-4 0 -7 3l-49 49q-3 3 -3 7v582q0 4 3 7l49 49q3 3 7 3h158q4 0 7 -3l49 -49q3 -3 3 -7v-117q0 -5 -5 -5h-51q-5 0 -5 5v93l-23 23h-109l-23 -23v-534l23 -23h109l23 23v240h-66q-5 0 -5 5v50q0 5 5 5h122q5 0 5 -5v-319q0 -4 -3 -7l-49 -49q-3 -3 -7 -3h-158z
" />
    <glyph glyph-name="H" unicode="H" horiz-adv-x="378" 
d="M60 0q-5 0 -5 5v690q0 5 5 5h50q5 0 5 -5v-315h152v315q0 5 5 5h51q5 0 5 -5v-690q0 -5 -5 -5h-51q-5 0 -5 5v315h-152v-315q0 -5 -5 -5h-50z" />
    <glyph glyph-name="I" unicode="I" horiz-adv-x="190" 
d="M70 0q-5 0 -5 5v690q0 5 5 5h50q5 0 5 -5v-690q0 -5 -5 -5h-50z" />
    <glyph glyph-name="J" unicode="J" horiz-adv-x="288" 
d="M68 0q-4 0 -7 3l-49 49q-3 3 -3 7v231q0 5 5 5h50q5 0 5 -5v-207l23 -23h63l23 23v612q0 5 5 5h50q5 0 5 -5v-636q0 -4 -3 -7l-49 -49q-3 -3 -7 -3h-111z" />
    <glyph glyph-name="K" unicode="K" horiz-adv-x="356" 
d="M60 0q-5 0 -5 5v690q0 5 5 5h50q5 0 5 -5v-299h10l140 300q2 4 6 4h53q6 0 4 -6l-155 -326l155 -362q2 -6 -3 -6h-54q-4 0 -6 4l-140 332h-10v-331q0 -5 -5 -5h-50z" />
    <glyph glyph-name="L" unicode="L" horiz-adv-x="293" 
d="M60 0q-5 0 -5 5v690q0 5 5 5h50q5 0 5 -5v-635h123q5 0 4 -5l-8 -50q0 -5 -6 -5h-168z" />
    <glyph glyph-name="M" unicode="M" horiz-adv-x="479" 
d="M60 0q-5 0 -5 5v690q0 5 5 5h70q6 0 6 -4l102 -544h8l102 544q0 4 6 4h70q5 0 5 -5v-690q0 -5 -5 -5h-50q-5 0 -5 5v446h-8l-89 -447q-1 -4 -6 -4h-50q-5 0 -6 4l-87 446h-8v-445q0 -5 -5 -5h-50z" />
    <glyph glyph-name="N" unicode="N" horiz-adv-x="380" 
d="M60 0q-5 0 -5 5v690q0 5 5 5h51q3 0 5 -4l144 -490h10v489q0 5 5 5h50q5 0 5 -5v-690q0 -5 -5 -5h-51q-3 0 -5 4l-144 490h-10v-489q0 -5 -5 -5h-50z" />
    <glyph glyph-name="O" unicode="O" 
d="M114 0q-4 0 -7 3l-49 49q-3 3 -3 7v582q0 4 3 7l49 49q3 3 7 3h148q4 0 7 -3l49 -49q3 -3 3 -7v-582q0 -4 -3 -7l-49 -49q-3 -3 -7 -3h-148zM138 60h99l23 23v534l-23 23h-99l-23 -23v-534z" />
    <glyph glyph-name="P" unicode="P" 
d="M60 0q-5 0 -5 5v690q0 5 5 5h202q4 0 7 -3l49 -49q3 -3 3 -7v-315q0 -4 -3 -7l-49 -49q-3 -3 -7 -3h-147v-262q0 -5 -5 -5h-50zM115 327h122l23 23v267l-23 23h-122v-313z" />
    <glyph glyph-name="Q" unicode="Q" horiz-adv-x="351" 
d="M155 -65q-5 0 -5 5v60h-36q-4 0 -7 3l-49 49q-3 3 -3 7v582q0 4 3 7l49 49q3 3 7 3h128q4 0 7 -3l49 -49q3 -3 3 -7v-582q0 -4 -3 -7l-49 -49q-3 -3 -7 -3h-32v-60q0 -5 -5 -5h-50zM138 60h79l23 23v534l-23 23h-79l-23 -23v-534z" />
    <glyph glyph-name="R" unicode="R" horiz-adv-x="383" 
d="M60 0q-5 0 -5 5v690q0 5 5 5h202q4 0 7 -3l49 -49q3 -3 3 -7v-305q0 -4 -3 -7l-49 -49q-3 -3 -7 -3h-26l101 -271q1 -6 -4 -6h-55q-3 0 -5 4l-103 273h-55v-272q0 -5 -5 -5h-50zM115 337h122l23 23v257l-23 23h-122v-303z" />
    <glyph glyph-name="S" unicode="S" 
d="M114 0q-4 0 -7 3l-49 49q-3 3 -3 7v168q0 5 5 5h50q5 0 5 -5v-144l23 -23h99l23 23v234l-23 23h-123q-4 0 -7 3l-49 49q-3 3 -3 7v242q0 4 3 7l49 49q3 3 7 3h148q4 0 7 -3l49 -49q3 -3 3 -7v-144q0 -5 -5 -5h-51q-5 0 -5 5v120l-23 23h-99l-23 -23v-194l23 -23h124
q4 0 7 -3l49 -49q3 -3 3 -7v-282q0 -4 -3 -7l-49 -49q-3 -3 -7 -3h-148z" />
    <glyph glyph-name="T" unicode="T" horiz-adv-x="334" 
d="M142 0q-5 0 -5 5v635h-102q-5 0 -5 5v50q0 5 5 5h265q5 0 5 -5v-50q0 -5 -5 -5h-103v-635q0 -5 -5 -5h-50z" />
    <glyph glyph-name="U" unicode="U" 
d="M114 0q-4 0 -7 3l-49 49q-3 3 -3 7v636q0 5 5 5h50q5 0 5 -5v-612l23 -23h99l23 23v612q0 5 5 5h51q5 0 5 -5v-636q0 -4 -3 -7l-49 -49q-3 -3 -7 -3h-148z" />
    <glyph glyph-name="V" unicode="V" horiz-adv-x="344" 
d="M30 695q0 5 4 5h55q6 0 6 -5l74 -541h8l72 541q0 5 6 5h55q4 0 4 -5l-108 -690q0 -5 -6 -5h-56q-6 0 -6 5z" />
    <glyph glyph-name="W" unicode="W" horiz-adv-x="502" 
d="M110 -1q-6 0 -6 5l-74 690q0 5 4 5h55q5 0 5 -5l45 -498h8l70 498q0 5 6 5h56q6 0 6 -5l73 -498h8l42 498q0 5 5 5h55q4 0 4 -5l-73 -690q0 -5 -6 -5h-56q-6 0 -6 5l-76 493h-8l-76 -493q0 -5 -6 -5h-55z" />
    <glyph glyph-name="X" unicode="X" horiz-adv-x="359" 
d="M37 0q-5 0 -4 6l113 356l-103 332q-1 6 4 6h59q3 0 5 -4l65 -241h8l65 241q2 4 5 4h59q5 0 4 -6l-103 -332l113 -356q1 -6 -4 -6h-58q-3 0 -5 4l-74 269h-8l-78 -269q-2 -4 -5 -4h-58z" />
    <glyph glyph-name="Y" unicode="Y" horiz-adv-x="314" 
d="M127 259l-102 435q-1 6 5 6h54q5 0 6 -4l64 -323h8l62 323q1 4 6 4h54q6 0 5 -6l-102 -436v-253q0 -5 -5 -5h-50q-5 0 -5 5v254z" />
    <glyph glyph-name="Z" unicode="Z" horiz-adv-x="384" 
d="M55 57q0 3 1 6l208 567v10h-204q-5 0 -5 5v50q0 5 5 5h265q5 0 5 -5v-52q0 -3 -1 -6l-210 -567v-10h206q5 0 5 -5v-50q0 -5 -5 -5h-265q-5 0 -5 5v52z" />
    <glyph glyph-name="bracketleft" unicode="[" horiz-adv-x="218" 
d="M65 -59q-5 0 -5 5v780q0 5 5 5h88q5 0 5 -5v-50q0 -5 -5 -5h-33v-670h33q5 0 5 -5v-50q0 -5 -5 -5h-88z" />
    <glyph glyph-name="backslash" unicode="\" horiz-adv-x="427" 
d="M317 -38q-3 0 -5 4l-250 766q-2 6 4 6h44q3 0 5 -4l250 -766q1 -6 -4 -6h-44z" />
    <glyph glyph-name="bracketright" unicode="]" horiz-adv-x="218" 
d="M65 -59q-5 0 -5 5v50q0 5 5 5h33v670h-33q-5 0 -5 5v50q0 5 5 5h88q5 0 5 -5v-780q0 -5 -5 -5h-88z" />
    <glyph glyph-name="asciicircum" unicode="^" horiz-adv-x="378" 
d="M62 561q-7 0 -4 6l85 149q1 3 6 3h76q5 0 6 -3l88 -149q3 -6 -3 -6h-60q-4 0 -6 3l-65 118l-54 -117q-2 -4 -6 -4h-63z" />
    <glyph glyph-name="underscore" unicode="_" horiz-adv-x="358" 
d="M65 -132q-5 0 -5 5v37q0 5 5 5h228q5 0 5 -5v-37q0 -5 -5 -5h-228z" />
    <glyph glyph-name="grave" unicode="`" horiz-adv-x="199" 
d="M104 631q-4 0 -6 3l-46 68q-4 6 3 6h52q3 0 5 -4l23 -67q1 -6 -4 -6h-27z" />
    <glyph glyph-name="a" unicode="a" horiz-adv-x="348" 
d="M37 0q-4 0 -4 5l106 690q0 5 6 5h56q6 0 6 -5l107 -690q0 -5 -4 -5h-50q-6 0 -6 5l-22 167h-117l-22 -167q0 -5 -6 -5h-50zM123 231h102l-48 347h-7z" />
    <glyph glyph-name="b" unicode="b" 
d="M60 0q-5 0 -5 5v690q0 5 5 5h202q4 0 7 -3l49 -49q3 -3 3 -7v-240q0 -4 -3 -7l-36 -36l36 -36q3 -3 3 -7v-256q0 -4 -3 -7l-49 -49q-3 -3 -7 -3h-202zM115 390h116l29 30v197l-23 23h-122v-250zM115 60h122l23 23v218l-29 29h-116v-270z" />
    <glyph glyph-name="c" unicode="c" 
d="M114 0q-4 0 -7 3l-49 49q-3 3 -3 7v582q0 4 3 7l49 49q3 3 7 3h148q4 0 7 -3l49 -49q3 -3 3 -7v-147q0 -5 -5 -5h-51q-5 0 -5 5v123l-23 23h-99l-23 -23v-534l23 -23h99l23 23v153q0 5 5 5h51q5 0 5 -5v-177q0 -4 -3 -7l-49 -49q-3 -3 -7 -3h-148z" />
    <glyph glyph-name="d" unicode="d" 
d="M60 0q-5 0 -5 5v690q0 5 5 5h202q4 0 7 -3l49 -49q3 -3 3 -7v-582q0 -4 -3 -7l-49 -49q-3 -3 -7 -3h-202zM115 60h122l23 23v534l-23 23h-122v-580z" />
    <glyph glyph-name="e" unicode="e" horiz-adv-x="324" 
d="M60 0q-5 0 -5 5v690q0 5 5 5h205q5 0 5 -5v-50q0 -5 -5 -5h-150v-260h106q5 0 5 -5v-50q0 -5 -5 -5h-106v-260h159q5 0 4 -5l-8 -50q0 -5 -6 -5h-204z" />
    <glyph glyph-name="f" unicode="f" horiz-adv-x="303" 
d="M60 0q-5 0 -5 5v690q0 5 5 5h205q5 0 5 -5v-50q0 -5 -5 -5h-150v-260h96q5 0 5 -5v-50q0 -5 -5 -5h-96v-315q0 -5 -5 -5h-50z" />
    <glyph glyph-name="g" unicode="g" horiz-adv-x="381" 
d="M114 0q-4 0 -7 3l-49 49q-3 3 -3 7v582q0 4 3 7l49 49q3 3 7 3h158q4 0 7 -3l49 -49q3 -3 3 -7v-117q0 -5 -5 -5h-51q-5 0 -5 5v93l-23 23h-109l-23 -23v-534l23 -23h109l23 23v240h-66q-5 0 -5 5v50q0 5 5 5h122q5 0 5 -5v-319q0 -4 -3 -7l-49 -49q-3 -3 -7 -3h-158z
" />
    <glyph glyph-name="h" unicode="h" horiz-adv-x="378" 
d="M60 0q-5 0 -5 5v690q0 5 5 5h50q5 0 5 -5v-315h152v315q0 5 5 5h51q5 0 5 -5v-690q0 -5 -5 -5h-51q-5 0 -5 5v315h-152v-315q0 -5 -5 -5h-50z" />
    <glyph glyph-name="i" unicode="i" horiz-adv-x="190" 
d="M70 0q-5 0 -5 5v690q0 5 5 5h50q5 0 5 -5v-690q0 -5 -5 -5h-50z" />
    <glyph glyph-name="j" unicode="j" horiz-adv-x="288" 
d="M68 0q-4 0 -7 3l-49 49q-3 3 -3 7v231q0 5 5 5h50q5 0 5 -5v-207l23 -23h63l23 23v612q0 5 5 5h50q5 0 5 -5v-636q0 -4 -3 -7l-49 -49q-3 -3 -7 -3h-111z" />
    <glyph glyph-name="k" unicode="k" horiz-adv-x="356" 
d="M60 0q-5 0 -5 5v690q0 5 5 5h50q5 0 5 -5v-299h10l140 300q2 4 6 4h53q6 0 4 -6l-155 -326l155 -362q2 -6 -3 -6h-54q-4 0 -6 4l-140 332h-10v-331q0 -5 -5 -5h-50z" />
    <glyph glyph-name="l" unicode="l" horiz-adv-x="293" 
d="M60 0q-5 0 -5 5v690q0 5 5 5h50q5 0 5 -5v-635h123q5 0 4 -5l-8 -50q0 -5 -6 -5h-168z" />
    <glyph glyph-name="m" unicode="m" horiz-adv-x="479" 
d="M60 0q-5 0 -5 5v690q0 5 5 5h70q6 0 6 -4l102 -544h8l102 544q0 4 6 4h70q5 0 5 -5v-690q0 -5 -5 -5h-50q-5 0 -5 5v446h-8l-89 -447q-1 -4 -6 -4h-50q-5 0 -6 4l-87 446h-8v-445q0 -5 -5 -5h-50z" />
    <glyph glyph-name="n" unicode="n" horiz-adv-x="380" 
d="M60 0q-5 0 -5 5v690q0 5 5 5h51q3 0 5 -4l144 -490h10v489q0 5 5 5h50q5 0 5 -5v-690q0 -5 -5 -5h-51q-3 0 -5 4l-144 490h-10v-489q0 -5 -5 -5h-50z" />
    <glyph glyph-name="o" unicode="o" 
d="M114 0q-4 0 -7 3l-49 49q-3 3 -3 7v582q0 4 3 7l49 49q3 3 7 3h148q4 0 7 -3l49 -49q3 -3 3 -7v-582q0 -4 -3 -7l-49 -49q-3 -3 -7 -3h-148zM138 60h99l23 23v534l-23 23h-99l-23 -23v-534z" />
    <glyph glyph-name="p" unicode="p" 
d="M60 0q-5 0 -5 5v690q0 5 5 5h202q4 0 7 -3l49 -49q3 -3 3 -7v-315q0 -4 -3 -7l-49 -49q-3 -3 -7 -3h-147v-262q0 -5 -5 -5h-50zM115 327h122l23 23v267l-23 23h-122v-313z" />
    <glyph glyph-name="q" unicode="q" horiz-adv-x="351" 
d="M155 -65q-5 0 -5 5v60h-36q-4 0 -7 3l-49 49q-3 3 -3 7v582q0 4 3 7l49 49q3 3 7 3h128q4 0 7 -3l49 -49q3 -3 3 -7v-582q0 -4 -3 -7l-49 -49q-3 -3 -7 -3h-32v-60q0 -5 -5 -5h-50zM138 60h79l23 23v534l-23 23h-79l-23 -23v-534z" />
    <glyph glyph-name="r" unicode="r" horiz-adv-x="383" 
d="M60 0q-5 0 -5 5v690q0 5 5 5h202q4 0 7 -3l49 -49q3 -3 3 -7v-305q0 -4 -3 -7l-49 -49q-3 -3 -7 -3h-26l101 -271q1 -6 -4 -6h-55q-3 0 -5 4l-103 273h-55v-272q0 -5 -5 -5h-50zM115 337h122l23 23v257l-23 23h-122v-303z" />
    <glyph glyph-name="s" unicode="s" 
d="M114 0q-4 0 -7 3l-49 49q-3 3 -3 7v168q0 5 5 5h50q5 0 5 -5v-144l23 -23h99l23 23v234l-23 23h-123q-4 0 -7 3l-49 49q-3 3 -3 7v242q0 4 3 7l49 49q3 3 7 3h148q4 0 7 -3l49 -49q3 -3 3 -7v-144q0 -5 -5 -5h-51q-5 0 -5 5v120l-23 23h-99l-23 -23v-194l23 -23h124
q4 0 7 -3l49 -49q3 -3 3 -7v-282q0 -4 -3 -7l-49 -49q-3 -3 -7 -3h-148z" />
    <glyph glyph-name="t" unicode="t" horiz-adv-x="334" 
d="M142 0q-5 0 -5 5v635h-102q-5 0 -5 5v50q0 5 5 5h265q5 0 5 -5v-50q0 -5 -5 -5h-103v-635q0 -5 -5 -5h-50z" />
    <glyph glyph-name="u" unicode="u" 
d="M114 0q-4 0 -7 3l-49 49q-3 3 -3 7v636q0 5 5 5h50q5 0 5 -5v-612l23 -23h99l23 23v612q0 5 5 5h51q5 0 5 -5v-636q0 -4 -3 -7l-49 -49q-3 -3 -7 -3h-148z" />
    <glyph glyph-name="v" unicode="v" horiz-adv-x="344" 
d="M30 695q0 5 4 5h55q6 0 6 -5l74 -541h8l72 541q0 5 6 5h55q4 0 4 -5l-108 -690q0 -5 -6 -5h-56q-6 0 -6 5z" />
    <glyph glyph-name="w" unicode="w" horiz-adv-x="502" 
d="M110 -1q-6 0 -6 5l-74 690q0 5 4 5h55q5 0 5 -5l45 -498h8l70 498q0 5 6 5h56q6 0 6 -5l73 -498h8l42 498q0 5 5 5h55q4 0 4 -5l-73 -690q0 -5 -6 -5h-56q-6 0 -6 5l-76 493h-8l-76 -493q0 -5 -6 -5h-55z" />
    <glyph glyph-name="x" unicode="x" horiz-adv-x="359" 
d="M37 0q-5 0 -4 6l113 356l-103 332q-1 6 4 6h59q3 0 5 -4l65 -241h8l65 241q2 4 5 4h59q5 0 4 -6l-103 -332l113 -356q1 -6 -4 -6h-58q-3 0 -5 4l-74 269h-8l-78 -269q-2 -4 -5 -4h-58z" />
    <glyph glyph-name="y" unicode="y" horiz-adv-x="314" 
d="M127 259l-102 435q-1 6 5 6h54q5 0 6 -4l64 -323h8l62 323q1 4 6 4h54q6 0 5 -6l-102 -436v-253q0 -5 -5 -5h-50q-5 0 -5 5v254z" />
    <glyph glyph-name="z" unicode="z" horiz-adv-x="384" 
d="M55 57q0 3 1 6l208 567v10h-204q-5 0 -5 5v50q0 5 5 5h265q5 0 5 -5v-52q0 -3 -1 -6l-210 -567v-10h206q5 0 5 -5v-50q0 -5 -5 -5h-265q-5 0 -5 5v52z" />
    <glyph glyph-name="braceleft" unicode="{" horiz-adv-x="268" 
d="M159 -39q-4 0 -7 3l-49 49q-3 3 -3 7v241l-37 35q-3 3 -3 7v96q0 4 3 7l37 35v241q0 4 3 7l49 49q3 3 7 3h44q5 0 5 -5v-50q0 -5 -5 -5h-20l-23 -23v-256q0 -4 -3 -7l-44 -44l44 -44q3 -3 3 -7v-256l23 -23h20q5 0 5 -5v-50q0 -5 -5 -5h-44z" />
    <glyph glyph-name="bar" unicode="|" horiz-adv-x="193" 
d="M70 -170q-5 0 -5 5v910q0 5 5 5h53q5 0 5 -5v-910q0 -5 -5 -5h-53z" />
    <glyph glyph-name="braceright" unicode="}" horiz-adv-x="268" 
d="M65 -39q-5 0 -5 5v50q0 5 5 5h20l23 23v256q0 4 3 7l44 44l-44 44q-3 3 -3 7v256l-23 23h-20q-5 0 -5 5v50q0 5 5 5h44q4 0 7 -3l49 -49q3 -3 3 -7v-241l37 -35q3 -3 3 -7v-96q0 -4 -3 -7l-37 -35v-241q0 -4 -3 -7l-49 -49q-3 -3 -7 -3h-44z" />
    <glyph glyph-name="asciitilde" unicode="~" horiz-adv-x="392" 
d="M60 292q-5 0 -5 5v62q0 4 3 7l51 51q3 3 7 3h48q4 0 7 -3l56 -55h37l10 10v53q0 5 5 5h53q5 0 5 -5v-76q0 -5 -3 -6l-54 -49q-4 -2 -7 -2h-47q-4 0 -7 3l-55 56h-35l-11 -11v-43q0 -5 -5 -5h-53z" />
    <glyph glyph-name="exclamdown" unicode="&#xa1;" horiz-adv-x="204" 
d="M136 534q5 0 5 -5v-71q0 -5 -5 -5h-71q-5 0 -5 5v71q0 5 5 5h71zM116 396q5 0 5 -5l23 -552q0 -5 -5 -5h-72q-5 0 -5 5l19 552q0 5 5 5h30z" />
    <glyph glyph-name="cent" unicode="&#xa2;" horiz-adv-x="289" 
d="M126 50q-5 0 -5 5v47h-21q-4 0 -7 3l-49 49q-3 3 -3 7v366q0 4 3 7l49 49q3 3 7 3h21v48q0 5 5 5h50q5 0 5 -5v-48h15q4 0 7 -3l49 -49q3 -3 3 -7v-95q0 -5 -5 -5h-50q-5 0 -5 5v71l-23 23h-48l-23 -23v-318l23 -23h48l23 23v87q0 5 5 5h50q5 0 5 -5v-111q0 -4 -3 -7
l-49 -49q-3 -3 -7 -3h-15v-47q0 -5 -5 -5h-50z" />
    <glyph glyph-name="sterling" unicode="&#xa3;" horiz-adv-x="376" 
d="M62 0q-5 0 -5 5v151q0 2 2 6l119 158h-86q-5 0 -5 5v50q0 5 5 5h86l-118 99q-3 1 -3 6v156q0 4 3 7l49 49q3 3 7 3h150q4 0 7 -3l49 -49q3 -3 3 -7v-113q0 -5 -5 -5h-50q-5 0 -5 5v89l-23 23h-102l-23 -23v-109l125 -114q3 -2 3 -6v-8h54q5 0 5 -5v-50q0 -5 -5 -5h-54v-6
q0 -2 -2 -6l-126 -165v-82h203q5 0 5 -5v-51q0 -5 -5 -5h-258z" />
    <glyph glyph-name="yen" unicode="&#xa5;" horiz-adv-x="314" 
d="M284 700q6 0 5 -6l-89 -379h38q5 0 5 -5v-49q0 -5 -5 -5h-51v-52h51q5 0 5 -5v-49q0 -5 -5 -5h-51v-140q0 -5 -5 -5h-50q-5 0 -5 5v140h-52q-5 0 -5 5v49q0 5 5 5h52v52h-52q-5 0 -5 5v49q0 5 5 5h39l-89 379q-1 6 5 6h54q5 0 6 -4l64 -323h8l62 323q1 4 6 4h54z" />
    <glyph glyph-name="brokenbar" unicode="&#xa6;" horiz-adv-x="193" 
d="M70 357q-5 0 -5 5v383q0 5 5 5h53q5 0 5 -5v-383q0 -5 -5 -5h-53zM70 -171q-5 0 -5 5v383q0 5 5 5h53q5 0 5 -5v-383q0 -5 -5 -5h-53z" />
    <glyph glyph-name="section" unicode="&#xa7;" horiz-adv-x="307" 
d="M89 0q-3 0 -7 2l-42 40q-3 3 -3 7v92q0 5 5 5h45q5 0 5 -5v-66l18 -20h75l19 19v143l-19 17h-99q-4 0 -7 3l-39 39q-3 3 -3 7v167q0 3 2 7l15 15l-14 14q-3 3 -3 7v167q0 4 3 7l39 40q3 3 7 3h124q4 0 7 -3l40 -40q3 -3 3 -7v-83q0 -5 -5 -5h-46q-5 0 -5 5v59l-19 19h-75
l-18 -19v-117l19 -18h97q4 0 7 -3l42 -41q3 -3 3 -7v-165q0 -4 -3 -7l-16 -15l16 -16q3 -3 3 -7v-191q0 -4 -3 -7l-40 -39q-3 -3 -7 -3h-121zM111 291h74l19 19v116l-19 18h-76l-17 -18v-115z" />
    <glyph glyph-name="dieresis" unicode="&#xa8;" horiz-adv-x="301" 
d="M55 631q-5 0 -5 5v55q0 5 5 5h55q5 0 5 -5v-55q0 -5 -5 -5h-55zM181 631q-5 0 -5 5v55q0 5 5 5h55q5 0 5 -5v-55q0 -5 -5 -5h-55z" />
    <glyph glyph-name="copyright" unicode="&#xa9;" horiz-adv-x="498" 
d="M114 124q-4 0 -7 3l-49 49q-3 3 -3 7v387q0 4 3 7l49 49q3 3 7 3h271q4 0 7 -3l49 -49q3 -3 3 -7v-387q0 -4 -3 -7l-49 -49q-3 -3 -7 -3h-271zM138 185h222l23 23v338l-23 22h-222l-23 -22v-338zM213 233q-4 0 -7 3l-36 36q-3 3 -3 7v198q0 4 3 7l36 36q3 3 7 3h72
q4 0 7 -3l36 -36q3 -3 3 -7v-57q0 -5 -5 -5h-41q-5 0 -5 5v35l-17 17h-27l-18 -17v-153l18 -18h27l17 18v35q0 5 5 5h41q5 0 5 -5v-58q0 -4 -3 -7l-36 -36q-3 -3 -7 -3h-72z" />
    <glyph glyph-name="guillemotleft" unicode="&#xab;" horiz-adv-x="412" 
d="M217 190q0 -9 -6 -3l-158 124q-3 1 -3 6v67q0 4 3 6l158 124q6 6 6 -3v-63q0 -4 -3 -6l-124 -92l124 -91q3 -1 3 -6v-63zM362 190q0 -9 -6 -3l-158 124q-3 1 -3 6v67q0 4 3 6l158 124q6 6 6 -3v-63q0 -4 -3 -6l-124 -92l124 -91q3 -1 3 -6v-63z" />
    <glyph glyph-name="logicalnot" unicode="&#xac;" horiz-adv-x="411" 
d="M287 247q-5 0 -5 5v65h-222q-5 0 -5 5v62q0 5 5 5h291q5 0 5 -5v-132q0 -5 -5 -5h-64z" />
    <glyph glyph-name="uni00AD" unicode="&#xad;" horiz-adv-x="335" 
d="M65 320q-5 0 -5 5v50q0 5 5 5h205q5 0 5 -5v-50q0 -5 -5 -5h-205z" />
    <glyph glyph-name="registered" unicode="&#xae;" horiz-adv-x="413" 
d="M97 346q-4 0 -7 3l-32 33q-3 3 -3 7v268q0 4 3 7l32 32q3 3 7 3h229q4 0 7 -3l33 -32q3 -3 3 -7v-268q0 -4 -3 -7l-33 -33q-3 -3 -7 -3h-229zM113 389h198l16 16v236l-16 16h-198l-16 -16v-236zM148 417q-5 0 -5 5v196q0 5 5 5h106q3 0 7 -2l19 -19q3 -3 3 -7v-82
q0 -4 -3 -7l-19 -19q-4 -2 -7 -2h-8l38 -62q3 -6 -3 -6h-25q-4 0 -6 3l-40 65h-35v-63q0 -5 -5 -5h-22zM175 517h66l10 10v55l-10 10h-66v-75z" />
    <glyph glyph-name="macron" unicode="&#xaf;" horiz-adv-x="316" 
d="M60 631q-5 0 -5 5v37q0 5 5 5h196q5 0 5 -5v-37q0 -5 -5 -5h-196z" />
    <glyph glyph-name="degree" unicode="&#xb0;" horiz-adv-x="253" 
d="M85 558q-4 0 -7 3l-25 25q-3 3 -3 7v71q0 4 3 7l26 26q3 3 7 3h71q4 0 7 -3l26 -25q3 -3 3 -7v-72q0 -4 -3 -7l-25 -25q-3 -3 -7 -3h-73zM90 597h63v63h-63v-63z" />
    <glyph glyph-name="plusminus" unicode="&#xb1;" horiz-adv-x="355" 
d="M152 277q-5 0 -5 5v112h-82q-5 0 -5 5v50q0 5 5 5h82v113q0 5 5 5h50q5 0 5 -5v-113h83q5 0 5 -5v-50q0 -5 -5 -5h-83v-112q0 -5 -5 -5h-50zM67 116q-5 0 -5 5v50q0 5 5 5h220q5 0 5 -5v-50q0 -5 -5 -5h-220z" />
    <glyph glyph-name="uni00B2" unicode="&#xb2;" horiz-adv-x="326" 
d="M56 200q-5 0 -5 5v224q0 4 3 7l39 39q3 3 7 3h95l16 16v134l-16 16h-72l-15 -16v-78q0 -5 -5 -5h-47q-5 0 -5 5v102q0 4 3 7l39 39q3 3 7 3h119q4 0 7 -3l38 -39q3 -3 3 -7v-181q0 -4 -3 -7l-38 -39q-3 -3 -7 -3h-96l-15 -16v-149h111v76q0 5 5 5h46q5 0 5 -5v-128
q0 -5 -5 -5h-214z" />
    <glyph glyph-name="uni00B3" unicode="&#xb3;" horiz-adv-x="308" 
d="M93 200q-4 0 -7 3l-39 39q-3 3 -3 7v102q0 5 5 5h47q5 0 5 -5v-78l15 -16h71l17 16v146l-17 15h-81q-5 0 -5 5v47q0 5 5 5h81l17 16v121l-17 16h-71l-15 -16v-78q0 -5 -5 -5h-47q-5 0 -5 5v102q0 4 3 7l39 39q3 3 7 3h118q4 0 7 -3l39 -39q3 -3 3 -7v-162q0 -4 -3 -6
l-22 -21l23 -23q2 -4 2 -7v-184q0 -4 -3 -7l-39 -39q-3 -3 -7 -3h-118z" />
    <glyph glyph-name="acute" unicode="&#xb4;" horiz-adv-x="131" 
d="M26 631q-6 0 -4 6l25 66q2 4 5 4h52q7 0 3 -6l-48 -67q-1 -3 -6 -3h-27z" />
    <glyph glyph-name="paragraph" unicode="&#xb6;" horiz-adv-x="432" 
d="M196 0q-5 0 -5 5v262h-102q-4 0 -7 3l-49 49q-3 3 -3 7v315q0 4 3 7l49 49q3 3 7 3h269q5 0 5 -5v-690q0 -5 -5 -5h-50q-5 0 -5 5v635h-52v-635q0 -5 -5 -5h-50z" />
    <glyph glyph-name="periodcentered" unicode="&#xb7;" horiz-adv-x="266" 
d="M105 234q-4 0 -7 3l-35 34q-3 3 -3 7v57q0 4 3 7l35 35q3 3 7 3h56q4 0 7 -3l35 -35q3 -3 3 -7v-57q0 -4 -3 -7l-33 -34q-3 -3 -7 -3h-58z" />
    <glyph glyph-name="cedilla" unicode="&#xb8;" horiz-adv-x="249" 
d="M62 -192q-5 0 -5 5v35q0 5 5 5h58l32 24v31l-32 22h-60q-5 0 -5 5v70q0 5 5 5h33q5 0 5 -5v-33h44q4 0 6 -2l43 -33q3 -1 3 -6v-75q0 -4 -3 -6l-45 -40q-4 -2 -7 -2h-77z" />
    <glyph glyph-name="uni00B9" unicode="&#xb9;" horiz-adv-x="252" 
d="M51 200q-5 0 -5 5v47q0 5 5 5h54v387h-28q-5 0 -5 5v47q0 5 5 5h79q5 0 5 -5v-439h55q5 0 5 -5v-47q0 -5 -5 -5h-165z" />
    <glyph glyph-name="guillemotright" unicode="&#xbb;" horiz-adv-x="412" 
d="M56 187q-6 -6 -6 3v63q0 5 3 6l124 91l-124 92q-3 2 -3 6v63q0 9 6 3l158 -124q3 -2 3 -6v-67q0 -5 -3 -6zM201 187q-6 -6 -6 3v63q0 5 3 6l124 91l-124 92q-3 2 -3 6v63q0 9 6 3l158 -124q3 -2 3 -6v-67q0 -5 -3 -6z" />
    <glyph glyph-name="onequarter" unicode="&#xbc;" horiz-adv-x="740" 
d="M198 -38q-6 0 -4 6l250 766q2 4 5 4h44q5 0 4 -6l-250 -766q-2 -4 -5 -4h-44zM51 200q-5 0 -5 5v47q0 5 5 5h54v387h-28q-5 0 -5 5v47q0 5 5 5h79q5 0 5 -5v-439h55q5 0 5 -5v-47q0 -5 -5 -5h-165zM610 0q-5 0 -5 5v168h-87q-4 0 -7 3l-39 39q-3 3 -3 7v274q0 5 5 5h47
q5 0 5 -5v-251l16 -16h63v267q0 5 5 5h47q5 0 5 -5v-267h36q5 0 5 -5v-46q0 -5 -5 -5h-36v-168q0 -5 -5 -5h-47z" />
    <glyph glyph-name="onehalf" unicode="&#xbd;" horiz-adv-x="765" 
d="M198 -38q-6 0 -4 6l250 766q2 4 5 4h44q5 0 4 -6l-250 -766q-2 -4 -5 -4h-44zM51 200q-5 0 -5 5v47q0 5 5 5h54v387h-28q-5 0 -5 5v47q0 5 5 5h79q5 0 5 -5v-439h55q5 0 5 -5v-47q0 -5 -5 -5h-165zM495 0q-5 0 -5 5v224q0 4 3 7l39 39q3 3 7 3h95l16 16v134l-16 16h-72
l-15 -16v-78q0 -5 -5 -5h-47q-5 0 -5 5v102q0 4 3 7l39 39q3 3 7 3h119q4 0 7 -3l38 -39q3 -3 3 -7v-181q0 -4 -3 -7l-38 -39q-3 -3 -7 -3h-96l-15 -16v-149h111v76q0 5 5 5h46q5 0 5 -5v-128q0 -5 -5 -5h-214z" />
    <glyph glyph-name="threequarters" unicode="&#xbe;" horiz-adv-x="796" 
d="M254 -38q-6 0 -4 6l250 766q2 4 5 4h44q5 0 4 -6l-250 -766q-2 -4 -5 -4h-44zM93 200q-4 0 -7 3l-39 39q-3 3 -3 7v102q0 5 5 5h47q5 0 5 -5v-78l15 -16h71l17 16v146l-17 15h-81q-5 0 -5 5v47q0 5 5 5h81l17 16v121l-17 16h-71l-15 -16v-78q0 -5 -5 -5h-47q-5 0 -5 5
v102q0 4 3 7l39 39q3 3 7 3h118q4 0 7 -3l39 -39q3 -3 3 -7v-162q0 -4 -3 -6l-22 -21l23 -23q2 -4 2 -7v-184q0 -4 -3 -7l-39 -39q-3 -3 -7 -3h-118zM666 0q-5 0 -5 5v168h-87q-4 0 -7 3l-39 39q-3 3 -3 7v274q0 5 5 5h47q5 0 5 -5v-251l16 -16h63v267q0 5 5 5h47q5 0 5 -5
v-267h36q5 0 5 -5v-46q0 -5 -5 -5h-36v-168q0 -5 -5 -5h-47z" />
    <glyph glyph-name="questiondown" unicode="&#xbf;" horiz-adv-x="366" 
d="M267 532q5 0 5 -5v-71q0 -5 -5 -5h-71q-5 0 -5 5v71q0 5 5 5h71zM248 397q5 0 5 -5l10 -184q0 -4 -3 -7l-49 -49q-3 -3 -7 -3h-61l-23 -23v-208l23 -23h80l22 23v100q0 5 5 5h51q5 0 5 -5v-124q0 -4 -3 -7l-49 -49q-3 -3 -7 -3h-128q-4 0 -7 3l-49 49q-3 3 -3 7v257
q0 4 3 7l49 49q3 3 7 3h61l23 23l10 159q0 5 5 5h30z" />
    <glyph glyph-name="Agrave" unicode="&#xc0;" horiz-adv-x="348" 
d="M156 751q-4 0 -6 3l-46 68q-4 6 3 6h52q3 0 5 -4l23 -67q1 -6 -4 -6h-27zM37 0q-4 0 -4 5l106 690q0 5 6 5h56q6 0 6 -5l107 -690q0 -5 -4 -5h-50q-6 0 -6 5l-22 167h-117l-22 -167q0 -5 -6 -5h-50zM123 231h102l-48 347h-7z" />
    <glyph glyph-name="Aacute" unicode="&#xc1;" horiz-adv-x="348" 
d="M168 751q-6 0 -4 6l25 66q2 4 5 4h52q7 0 3 -6l-48 -67q-1 -3 -6 -3h-27zM37 0q-4 0 -4 5l106 690q0 5 6 5h56q6 0 6 -5l107 -690q0 -5 -4 -5h-50q-6 0 -6 5l-22 167h-117l-22 -167q0 -5 -6 -5h-50zM123 231h102l-48 347h-7z" />
    <glyph glyph-name="Acircumflex" unicode="&#xc2;" horiz-adv-x="348" 
d="M85 751q-7 0 -3 6l60 70q2 3 6 3h54q4 0 6 -3l60 -70q4 -6 -3 -6h-51q-4 0 -6 3l-33 39l-33 -39q-2 -3 -6 -3h-51zM37 0q-4 0 -4 5l106 690q0 5 6 5h56q6 0 6 -5l107 -690q0 -5 -4 -5h-50q-6 0 -6 5l-22 167h-117l-22 -167q0 -5 -6 -5h-50zM123 231h102l-48 347h-7z" />
    <glyph glyph-name="Atilde" unicode="&#xc3;" horiz-adv-x="348" 
d="M69 751q-5 0 -5 5v38q0 4 3 6l39 35q4 2 7 2h36q3 0 7 -2l43 -37h38v34q0 5 5 5h39q5 0 5 -5v-38q0 -4 -3 -6l-39 -35q-4 -2 -7 -2h-37q-3 0 -7 2l-43 37h-37v-34q0 -5 -5 -5h-39zM37 0q-4 0 -4 5l106 690q0 5 6 5h56q6 0 6 -5l107 -690q0 -5 -4 -5h-50q-6 0 -6 5
l-22 167h-117l-22 -167q0 -5 -6 -5h-50zM123 231h102l-48 347h-7z" />
    <glyph glyph-name="Adieresis" unicode="&#xc4;" horiz-adv-x="348" 
d="M84 750q-5 0 -5 5v55q0 5 5 5h55q5 0 5 -5v-55q0 -5 -5 -5h-55zM210 750q-5 0 -5 5v55q0 5 5 5h55q5 0 5 -5v-55q0 -5 -5 -5h-55zM37 0q-4 0 -4 5l106 690q0 5 6 5h56q6 0 6 -5l107 -690q0 -5 -4 -5h-50q-6 0 -6 5l-22 167h-117l-22 -167q0 -5 -6 -5h-50zM123 231h102
l-48 347h-7z" />
    <glyph glyph-name="Aring" unicode="&#xc5;" horiz-adv-x="348" 
d="M138 751q-4 0 -7 3l-25 25q-3 3 -3 7v71q0 4 3 7l26 26q3 3 7 3h71q4 0 7 -3l26 -25q3 -3 3 -7v-72q0 -4 -3 -7l-25 -25q-3 -3 -7 -3h-73zM143 790h63v63h-63v-63zM37 0q-4 0 -4 5l106 690q0 5 6 5h56q6 0 6 -5l107 -690q0 -5 -4 -5h-50q-6 0 -6 5l-22 167h-117l-22 -167
q0 -5 -6 -5h-50zM123 231h102l-48 347h-7z" />
    <glyph glyph-name="AE" unicode="&#xc6;" horiz-adv-x="523" 
d="M38 0q-6 0 -4 6l195 690q2 4 5 4h230q5 0 5 -5v-50q0 -5 -5 -5h-150v-260h106q5 0 5 -5v-50q0 -5 -5 -5h-106v-260h159q5 0 4 -5l-8 -50q0 -5 -6 -5h-204q-5 0 -5 5v167h-118l-45 -168q-2 -4 -5 -4h-48zM151 231h103v394z" />
    <glyph glyph-name="Ccedilla" unicode="&#xc7;" 
d="M321 494q0 -5 -5 -5h-51q-5 0 -5 5v123l-23 23h-99l-23 -23v-534l23 -23h99l23 23v153q0 5 5 5h51q5 0 5 -5v-177q0 -4 -3 -7l-49 -49q-3 -3 -7 -3h-49v-28h44q4 0 6 -2l43 -33q3 -1 3 -6v-75q0 -4 -3 -6l-45 -40q-4 -2 -7 -2h-77q-5 0 -5 5v35q0 5 5 5h58l32 24v31
l-32 22h-60q-5 0 -5 5v65h-56q-4 0 -7 3l-49 49q-3 3 -3 7v582q0 4 3 7l49 49q3 3 7 3h148q4 0 7 -3l49 -49q3 -3 3 -7v-147z" />
    <glyph glyph-name="Egrave" unicode="&#xc8;" horiz-adv-x="324" 
d="M139 751q-5 0 -6 3l-46 68q-4 6 3 6h52q3 0 5 -4l23 -67q2 -6 -4 -6h-27zM60 0q-5 0 -5 5v690q0 5 5 5h205q5 0 5 -5v-50q0 -5 -5 -5h-150v-260h106q5 0 5 -5v-50q0 -5 -5 -5h-106v-260h159q5 0 4 -5l-8 -50q0 -5 -6 -5h-204z" />
    <glyph glyph-name="Eacute" unicode="&#xc9;" horiz-adv-x="324" 
d="M151 751q-5 0 -4 6l25 66q2 4 5 4h52q7 0 3 -6l-48 -67q-2 -3 -6 -3h-27zM60 0q-5 0 -5 5v690q0 5 5 5h205q5 0 5 -5v-50q0 -5 -5 -5h-150v-260h106q5 0 5 -5v-50q0 -5 -5 -5h-106v-260h159q5 0 4 -5l-8 -50q0 -5 -6 -5h-204z" />
    <glyph glyph-name="Ecircumflex" unicode="&#xca;" horiz-adv-x="324" 
d="M68 751q-8 0 -3 6l60 70q1 3 6 3h54q5 0 6 -3l60 -70q4 -6 -3 -6h-51q-5 0 -6 3l-33 39l-33 -39q-1 -3 -6 -3h-51zM60 0q-5 0 -5 5v690q0 5 5 5h205q5 0 5 -5v-50q0 -5 -5 -5h-150v-260h106q5 0 5 -5v-50q0 -5 -5 -5h-106v-260h159q5 0 4 -5l-8 -50q0 -5 -6 -5h-204z" />
    <glyph glyph-name="Edieresis" unicode="&#xcb;" horiz-adv-x="324" 
d="M67 750q-5 0 -5 5v55q0 5 5 5h55q5 0 5 -5v-55q0 -5 -5 -5h-55zM193 750q-5 0 -5 5v55q0 5 5 5h55q5 0 5 -5v-55q0 -5 -5 -5h-55zM60 0q-5 0 -5 5v690q0 5 5 5h205q5 0 5 -5v-50q0 -5 -5 -5h-150v-260h106q5 0 5 -5v-50q0 -5 -5 -5h-106v-260h159q5 0 4 -5l-8 -50
q0 -5 -6 -5h-204z" />
    <glyph glyph-name="Igrave" unicode="&#xcc;" horiz-adv-x="190" 
d="M76 750q-4 0 -6 3l-46 68q-4 6 3 6h52q3 0 5 -4l23 -67q1 -6 -4 -6h-27zM70 0q-5 0 -5 5v690q0 5 5 5h50q5 0 5 -5v-690q0 -5 -5 -5h-50z" />
    <glyph glyph-name="Iacute" unicode="&#xcd;" horiz-adv-x="190" 
d="M88 750q-6 0 -4 6l25 66q2 4 5 4h52q7 0 3 -6l-48 -67q-1 -3 -6 -3h-27zM70 0q-5 0 -5 5v690q0 5 5 5h50q5 0 5 -5v-690q0 -5 -5 -5h-50z" />
    <glyph glyph-name="Icircumflex" unicode="&#xce;" horiz-adv-x="190" 
d="M5 750q-8 0 -3 6l60 70q2 3 6 3h54q4 0 6 -3l60 -70q4 -6 -3 -6h-51q-4 0 -6 3l-33 39l-33 -39q-2 -3 -6 -3h-51zM70 0q-5 0 -5 5v690q0 5 5 5h50q5 0 5 -5v-690q0 -5 -5 -5h-50z" />
    <glyph glyph-name="Idieresis" unicode="&#xcf;" horiz-adv-x="190" 
d="M4 749q-5 0 -5 5v55q0 5 5 5h55q5 0 5 -5v-55q0 -5 -5 -5h-55zM130 749q-5 0 -5 5v55q0 5 5 5h55q5 0 5 -5v-55q0 -5 -5 -5h-55zM70 0q-5 0 -5 5v690q0 5 5 5h50q5 0 5 -5v-690q0 -5 -5 -5h-50z" />
    <glyph glyph-name="Eth" unicode="&#xd0;" horiz-adv-x="383" 
d="M65 0q-5 0 -5 5v315h-31q-5 0 -5 5v50q0 5 5 5h31v315q0 5 5 5h202q4 0 7 -3l49 -49q3 -3 3 -7v-582q0 -4 -3 -7l-49 -49q-3 -3 -7 -3h-202zM120 60h122l23 23v534l-23 23h-122v-260h76q5 0 5 -5v-50q0 -5 -5 -5h-76v-260z" />
    <glyph glyph-name="Ntilde" unicode="&#xd1;" horiz-adv-x="380" 
d="M85 749q-5 0 -5 5v38q0 4 3 6l39 35q4 2 7 2h36q3 0 7 -2l43 -37h38v34q0 5 5 5h39q5 0 5 -5v-38q0 -4 -3 -6l-39 -35q-4 -2 -7 -2h-37q-3 0 -7 2l-43 37h-37v-34q0 -5 -5 -5h-39zM60 0q-5 0 -5 5v690q0 5 5 5h51q3 0 5 -4l144 -490h10v489q0 5 5 5h50q5 0 5 -5v-690
q0 -5 -5 -5h-51q-3 0 -5 4l-144 490h-10v-489q0 -5 -5 -5h-50z" />
    <glyph glyph-name="Ograve" unicode="&#xd2;" 
d="M170 751q-4 0 -6 3l-46 68q-4 6 3 6h52q3 0 5 -4l23 -67q1 -6 -4 -6h-27zM114 0q-4 0 -7 3l-49 49q-3 3 -3 7v582q0 4 3 7l49 49q3 3 7 3h148q4 0 7 -3l49 -49q3 -3 3 -7v-582q0 -4 -3 -7l-49 -49q-3 -3 -7 -3h-148zM138 60h99l23 23v534l-23 23h-99l-23 -23v-534z" />
    <glyph glyph-name="Oacute" unicode="&#xd3;" 
d="M182 751q-6 0 -4 6l25 66q2 4 5 4h52q7 0 3 -6l-48 -67q-1 -3 -6 -3h-27zM114 0q-4 0 -7 3l-49 49q-3 3 -3 7v582q0 4 3 7l49 49q3 3 7 3h148q4 0 7 -3l49 -49q3 -3 3 -7v-582q0 -4 -3 -7l-49 -49q-3 -3 -7 -3h-148zM138 60h99l23 23v534l-23 23h-99l-23 -23v-534z" />
    <glyph glyph-name="Ocircumflex" unicode="&#xd4;" 
d="M99 751q-7 0 -3 6l60 70q2 3 6 3h54q4 0 6 -3l60 -70q4 -6 -3 -6h-51q-4 0 -6 3l-33 39l-33 -39q-2 -3 -6 -3h-51zM114 0q-4 0 -7 3l-49 49q-3 3 -3 7v582q0 4 3 7l49 49q3 3 7 3h148q4 0 7 -3l49 -49q3 -3 3 -7v-582q0 -4 -3 -7l-49 -49q-3 -3 -7 -3h-148zM138 60h99
l23 23v534l-23 23h-99l-23 -23v-534z" />
    <glyph glyph-name="Otilde" unicode="&#xd5;" 
d="M83 751q-5 0 -5 5v38q0 4 3 6l39 35q4 2 7 2h36q3 0 7 -2l43 -37h38v34q0 5 5 5h39q5 0 5 -5v-38q0 -4 -3 -6l-39 -35q-4 -2 -7 -2h-37q-3 0 -7 2l-43 37h-37v-34q0 -5 -5 -5h-39zM114 0q-4 0 -7 3l-49 49q-3 3 -3 7v582q0 4 3 7l49 49q3 3 7 3h148q4 0 7 -3l49 -49
q3 -3 3 -7v-582q0 -4 -3 -7l-49 -49q-3 -3 -7 -3h-148zM138 60h99l23 23v534l-23 23h-99l-23 -23v-534z" />
    <glyph glyph-name="Odieresis" unicode="&#xd6;" 
d="M98 750q-5 0 -5 5v55q0 5 5 5h55q5 0 5 -5v-55q0 -5 -5 -5h-55zM224 750q-5 0 -5 5v55q0 5 5 5h55q5 0 5 -5v-55q0 -5 -5 -5h-55zM114 0q-4 0 -7 3l-49 49q-3 3 -3 7v582q0 4 3 7l49 49q3 3 7 3h148q4 0 7 -3l49 -49q3 -3 3 -7v-582q0 -4 -3 -7l-49 -49q-3 -3 -7 -3h-148
zM138 60h99l23 23v534l-23 23h-99l-23 -23v-534z" />
    <glyph glyph-name="multiply" unicode="&#xd7;" 
d="M106 229q-4 -4 -8 0l-34 34q-4 4 0 8l79 79l-79 79q-4 4 0 8l34 34q4 4 8 0l79 -79l79 80q4 4 8 0l35 -35q4 -4 0 -8l-80 -79l78 -76q4 -4 0 -8l-35 -35q-4 -4 -8 0l-77 77z" />
    <glyph glyph-name="Oslash" unicode="&#xd8;" horiz-adv-x="360" 
d="M278 688l40 -40q3 -3 3 -7v-582q0 -4 -3 -7l-49 -49q-3 -3 -7 -3h-102l-6 -33q0 -5 -6 -5h-44q-5 0 -4 5l6 37l-48 48q-3 3 -3 7v582q0 4 3 7l49 49q3 3 7 3h111l6 33q0 5 6 5h44q4 0 4 -5zM115 83l4 -4l96 561h-77l-23 -23v-534zM237 60l23 23v503l-90 -526h67z" />
    <glyph glyph-name="Ugrave" unicode="&#xd9;" 
d="M168 751q-4 0 -6 3l-46 68q-4 6 3 6h52q3 0 5 -4l23 -67q1 -6 -4 -6h-27zM114 0q-4 0 -7 3l-49 49q-3 3 -3 7v636q0 5 5 5h50q5 0 5 -5v-612l23 -23h99l23 23v612q0 5 5 5h51q5 0 5 -5v-636q0 -4 -3 -7l-49 -49q-3 -3 -7 -3h-148z" />
    <glyph glyph-name="Uacute" unicode="&#xda;" 
d="M180 751q-6 0 -4 6l25 66q2 4 5 4h52q7 0 3 -6l-48 -67q-1 -3 -6 -3h-27zM114 0q-4 0 -7 3l-49 49q-3 3 -3 7v636q0 5 5 5h50q5 0 5 -5v-612l23 -23h99l23 23v612q0 5 5 5h51q5 0 5 -5v-636q0 -4 -3 -7l-49 -49q-3 -3 -7 -3h-148z" />
    <glyph glyph-name="Ucircumflex" unicode="&#xdb;" 
d="M97 751q-7 0 -3 6l60 70q2 3 6 3h54q4 0 6 -3l60 -70q4 -6 -3 -6h-51q-4 0 -6 3l-33 39l-33 -39q-2 -3 -6 -3h-51zM114 0q-4 0 -7 3l-49 49q-3 3 -3 7v636q0 5 5 5h50q5 0 5 -5v-612l23 -23h99l23 23v612q0 5 5 5h51q5 0 5 -5v-636q0 -4 -3 -7l-49 -49q-3 -3 -7 -3h-148z
" />
    <glyph glyph-name="Udieresis" unicode="&#xdc;" 
d="M96 750q-5 0 -5 5v55q0 5 5 5h55q5 0 5 -5v-55q0 -5 -5 -5h-55zM222 750q-5 0 -5 5v55q0 5 5 5h55q5 0 5 -5v-55q0 -5 -5 -5h-55zM114 0q-4 0 -7 3l-49 49q-3 3 -3 7v636q0 5 5 5h50q5 0 5 -5v-612l23 -23h99l23 23v612q0 5 5 5h51q5 0 5 -5v-636q0 -4 -3 -7l-49 -49
q-3 -3 -7 -3h-148z" />
    <glyph glyph-name="Yacute" unicode="&#xdd;" horiz-adv-x="314" 
d="M152 751q-6 0 -4 6l25 66q2 4 5 4h52q7 0 3 -6l-48 -67q-1 -3 -6 -3h-27zM127 259l-102 435q-1 6 5 6h54q5 0 6 -4l64 -323h8l62 323q1 4 6 4h54q6 0 5 -6l-102 -436v-253q0 -5 -5 -5h-50q-5 0 -5 5v254z" />
    <glyph glyph-name="Thorn" unicode="&#xde;" horiz-adv-x="356" 
d="M65 0q-5 0 -5 5v690q0 5 5 5h50q5 0 5 -5v-57h147q4 0 7 -3l49 -49q3 -3 3 -7v-315q0 -4 -3 -7l-49 -49q-3 -3 -7 -3h-147v-200q0 -5 -5 -5h-50zM120 265h122l23 23v267l-23 23h-122v-313z" />
    <glyph glyph-name="germandbls" unicode="&#xdf;" horiz-adv-x="401" 
d="M60 -49q-5 0 -5 5v686q0 4 3 7l49 49q3 3 7 3h178q4 0 7 -3l49 -49q3 -3 3 -7v-231q0 -4 -3 -7l-33 -32l33 -33q3 -3 3 -7v-273q0 -4 -3 -7l-49 -49q-3 -3 -7 -3h-119q-5 0 -5 5v50q0 5 5 5h94l23 23v236l-23 23h-152v-386q0 -5 -5 -5h-50zM115 402h152l23 23v193l-23 23
h-129l-23 -23v-216z" />
    <glyph glyph-name="agrave" unicode="&#xe0;" horiz-adv-x="348" 
d="M156 751q-4 0 -6 3l-46 68q-4 6 3 6h52q3 0 5 -4l23 -67q1 -6 -4 -6h-27zM37 0q-4 0 -4 5l106 690q0 5 6 5h56q6 0 6 -5l107 -690q0 -5 -4 -5h-50q-6 0 -6 5l-22 167h-117l-22 -167q0 -5 -6 -5h-50zM123 231h102l-48 347h-7z" />
    <glyph glyph-name="aacute" unicode="&#xe1;" horiz-adv-x="348" 
d="M168 751q-6 0 -4 6l25 66q2 4 5 4h52q7 0 3 -6l-48 -67q-1 -3 -6 -3h-27zM37 0q-4 0 -4 5l106 690q0 5 6 5h56q6 0 6 -5l107 -690q0 -5 -4 -5h-50q-6 0 -6 5l-22 167h-117l-22 -167q0 -5 -6 -5h-50zM123 231h102l-48 347h-7z" />
    <glyph glyph-name="acircumflex" unicode="&#xe2;" horiz-adv-x="348" 
d="M85 751q-7 0 -3 6l60 70q2 3 6 3h54q4 0 6 -3l60 -70q4 -6 -3 -6h-51q-4 0 -6 3l-33 39l-33 -39q-2 -3 -6 -3h-51zM37 0q-4 0 -4 5l106 690q0 5 6 5h56q6 0 6 -5l107 -690q0 -5 -4 -5h-50q-6 0 -6 5l-22 167h-117l-22 -167q0 -5 -6 -5h-50zM123 231h102l-48 347h-7z" />
    <glyph glyph-name="atilde" unicode="&#xe3;" horiz-adv-x="348" 
d="M69 751q-5 0 -5 5v38q0 4 3 6l39 35q4 2 7 2h36q3 0 7 -2l43 -37h38v34q0 5 5 5h39q5 0 5 -5v-38q0 -4 -3 -6l-39 -35q-4 -2 -7 -2h-37q-3 0 -7 2l-43 37h-37v-34q0 -5 -5 -5h-39zM37 0q-4 0 -4 5l106 690q0 5 6 5h56q6 0 6 -5l107 -690q0 -5 -4 -5h-50q-6 0 -6 5
l-22 167h-117l-22 -167q0 -5 -6 -5h-50zM123 231h102l-48 347h-7z" />
    <glyph glyph-name="adieresis" unicode="&#xe4;" horiz-adv-x="348" 
d="M84 750q-5 0 -5 5v55q0 5 5 5h55q5 0 5 -5v-55q0 -5 -5 -5h-55zM210 750q-5 0 -5 5v55q0 5 5 5h55q5 0 5 -5v-55q0 -5 -5 -5h-55zM37 0q-4 0 -4 5l106 690q0 5 6 5h56q6 0 6 -5l107 -690q0 -5 -4 -5h-50q-6 0 -6 5l-22 167h-117l-22 -167q0 -5 -6 -5h-50zM123 231h102
l-48 347h-7z" />
    <glyph glyph-name="aring" unicode="&#xe5;" horiz-adv-x="348" 
d="M138 751q-4 0 -7 3l-25 25q-3 3 -3 7v71q0 4 3 7l26 26q3 3 7 3h71q4 0 7 -3l26 -25q3 -3 3 -7v-72q0 -4 -3 -7l-25 -25q-3 -3 -7 -3h-73zM143 790h63v63h-63v-63zM37 0q-4 0 -4 5l106 690q0 5 6 5h56q6 0 6 -5l107 -690q0 -5 -4 -5h-50q-6 0 -6 5l-22 167h-117l-22 -167
q0 -5 -6 -5h-50zM123 231h102l-48 347h-7z" />
    <glyph glyph-name="ae" unicode="&#xe6;" horiz-adv-x="523" 
d="M38 0q-6 0 -4 6l195 690q2 4 5 4h230q5 0 5 -5v-50q0 -5 -5 -5h-150v-260h106q5 0 5 -5v-50q0 -5 -5 -5h-106v-260h159q5 0 4 -5l-8 -50q0 -5 -6 -5h-204q-5 0 -5 5v167h-118l-45 -168q-2 -4 -5 -4h-48zM151 231h103v394z" />
    <glyph glyph-name="ccedilla" unicode="&#xe7;" 
d="M321 494q0 -5 -5 -5h-51q-5 0 -5 5v123l-23 23h-99l-23 -23v-534l23 -23h99l23 23v153q0 5 5 5h51q5 0 5 -5v-177q0 -4 -3 -7l-49 -49q-3 -3 -7 -3h-49v-28h44q4 0 6 -2l43 -33q3 -1 3 -6v-75q0 -4 -3 -6l-45 -40q-4 -2 -7 -2h-77q-5 0 -5 5v35q0 5 5 5h58l32 24v31
l-32 22h-60q-5 0 -5 5v65h-56q-4 0 -7 3l-49 49q-3 3 -3 7v582q0 4 3 7l49 49q3 3 7 3h148q4 0 7 -3l49 -49q3 -3 3 -7v-147z" />
    <glyph glyph-name="egrave" unicode="&#xe8;" horiz-adv-x="324" 
d="M139 751q-5 0 -6 3l-46 68q-4 6 3 6h52q3 0 5 -4l23 -67q2 -6 -4 -6h-27zM60 0q-5 0 -5 5v690q0 5 5 5h205q5 0 5 -5v-50q0 -5 -5 -5h-150v-260h106q5 0 5 -5v-50q0 -5 -5 -5h-106v-260h159q5 0 4 -5l-8 -50q0 -5 -6 -5h-204z" />
    <glyph glyph-name="eacute" unicode="&#xe9;" horiz-adv-x="324" 
d="M151 751q-5 0 -4 6l25 66q2 4 5 4h52q7 0 3 -6l-48 -67q-2 -3 -6 -3h-27zM60 0q-5 0 -5 5v690q0 5 5 5h205q5 0 5 -5v-50q0 -5 -5 -5h-150v-260h106q5 0 5 -5v-50q0 -5 -5 -5h-106v-260h159q5 0 4 -5l-8 -50q0 -5 -6 -5h-204z" />
    <glyph glyph-name="ecircumflex" unicode="&#xea;" horiz-adv-x="324" 
d="M68 751q-8 0 -3 6l60 70q1 3 6 3h54q5 0 6 -3l60 -70q4 -6 -3 -6h-51q-5 0 -6 3l-33 39l-33 -39q-1 -3 -6 -3h-51zM60 0q-5 0 -5 5v690q0 5 5 5h205q5 0 5 -5v-50q0 -5 -5 -5h-150v-260h106q5 0 5 -5v-50q0 -5 -5 -5h-106v-260h159q5 0 4 -5l-8 -50q0 -5 -6 -5h-204z" />
    <glyph glyph-name="edieresis" unicode="&#xeb;" horiz-adv-x="324" 
d="M67 750q-5 0 -5 5v55q0 5 5 5h55q5 0 5 -5v-55q0 -5 -5 -5h-55zM193 750q-5 0 -5 5v55q0 5 5 5h55q5 0 5 -5v-55q0 -5 -5 -5h-55zM60 0q-5 0 -5 5v690q0 5 5 5h205q5 0 5 -5v-50q0 -5 -5 -5h-150v-260h106q5 0 5 -5v-50q0 -5 -5 -5h-106v-260h159q5 0 4 -5l-8 -50
q0 -5 -6 -5h-204z" />
    <glyph glyph-name="igrave" unicode="&#xec;" horiz-adv-x="190" 
d="M76 750q-4 0 -6 3l-46 68q-4 6 3 6h52q3 0 5 -4l23 -67q1 -6 -4 -6h-27zM70 0q-5 0 -5 5v690q0 5 5 5h50q5 0 5 -5v-690q0 -5 -5 -5h-50z" />
    <glyph glyph-name="iacute" unicode="&#xed;" horiz-adv-x="157" 
d="M88 750q-6 0 -4 6l25 66q2 4 5 4h52q7 0 3 -6l-48 -67q-1 -3 -6 -3h-27zM70 0q-5 0 -5 5v690q0 5 5 5h50q5 0 5 -5v-690q0 -5 -5 -5h-50z" />
    <glyph glyph-name="icircumflex" unicode="&#xee;" horiz-adv-x="190" 
d="M5 750q-8 0 -3 6l60 70q2 3 6 3h54q4 0 6 -3l60 -70q4 -6 -3 -6h-51q-4 0 -6 3l-33 39l-33 -39q-2 -3 -6 -3h-51zM70 0q-5 0 -5 5v690q0 5 5 5h50q5 0 5 -5v-690q0 -5 -5 -5h-50z" />
    <glyph glyph-name="idieresis" unicode="&#xef;" horiz-adv-x="190" 
d="M4 749q-5 0 -5 5v55q0 5 5 5h55q5 0 5 -5v-55q0 -5 -5 -5h-55zM130 749q-5 0 -5 5v55q0 5 5 5h55q5 0 5 -5v-55q0 -5 -5 -5h-55zM70 0q-5 0 -5 5v690q0 5 5 5h50q5 0 5 -5v-690q0 -5 -5 -5h-50z" />
    <glyph glyph-name="eth" unicode="&#xf0;" horiz-adv-x="383" 
d="M65 0q-5 0 -5 5v315h-31q-5 0 -5 5v50q0 5 5 5h31v315q0 5 5 5h202q4 0 7 -3l49 -49q3 -3 3 -7v-582q0 -4 -3 -7l-49 -49q-3 -3 -7 -3h-202zM120 60h122l23 23v534l-23 23h-122v-260h76q5 0 5 -5v-50q0 -5 -5 -5h-76v-260z" />
    <glyph glyph-name="ntilde" unicode="&#xf1;" horiz-adv-x="380" 
d="M85 749q-5 0 -5 5v38q0 4 3 6l39 35q4 2 7 2h36q3 0 7 -2l43 -37h38v34q0 5 5 5h39q5 0 5 -5v-38q0 -4 -3 -6l-39 -35q-4 -2 -7 -2h-37q-3 0 -7 2l-43 37h-37v-34q0 -5 -5 -5h-39zM60 0q-5 0 -5 5v690q0 5 5 5h51q3 0 5 -4l144 -490h10v489q0 5 5 5h50q5 0 5 -5v-690
q0 -5 -5 -5h-51q-3 0 -5 4l-144 490h-10v-489q0 -5 -5 -5h-50z" />
    <glyph glyph-name="ograve" unicode="&#xf2;" 
d="M170 751q-4 0 -6 3l-46 68q-4 6 3 6h52q3 0 5 -4l23 -67q1 -6 -4 -6h-27zM114 0q-4 0 -7 3l-49 49q-3 3 -3 7v582q0 4 3 7l49 49q3 3 7 3h148q4 0 7 -3l49 -49q3 -3 3 -7v-582q0 -4 -3 -7l-49 -49q-3 -3 -7 -3h-148zM138 60h99l23 23v534l-23 23h-99l-23 -23v-534z" />
    <glyph glyph-name="oacute" unicode="&#xf3;" 
d="M182 751q-6 0 -4 6l25 66q2 4 5 4h52q7 0 3 -6l-48 -67q-1 -3 -6 -3h-27zM114 0q-4 0 -7 3l-49 49q-3 3 -3 7v582q0 4 3 7l49 49q3 3 7 3h148q4 0 7 -3l49 -49q3 -3 3 -7v-582q0 -4 -3 -7l-49 -49q-3 -3 -7 -3h-148zM138 60h99l23 23v534l-23 23h-99l-23 -23v-534z" />
    <glyph glyph-name="ocircumflex" unicode="&#xf4;" 
d="M99 751q-7 0 -3 6l60 70q2 3 6 3h54q4 0 6 -3l60 -70q4 -6 -3 -6h-51q-4 0 -6 3l-33 39l-33 -39q-2 -3 -6 -3h-51zM114 0q-4 0 -7 3l-49 49q-3 3 -3 7v582q0 4 3 7l49 49q3 3 7 3h148q4 0 7 -3l49 -49q3 -3 3 -7v-582q0 -4 -3 -7l-49 -49q-3 -3 -7 -3h-148zM138 60h99
l23 23v534l-23 23h-99l-23 -23v-534z" />
    <glyph glyph-name="otilde" unicode="&#xf5;" 
d="M83 751q-5 0 -5 5v38q0 4 3 6l39 35q4 2 7 2h36q3 0 7 -2l43 -37h38v34q0 5 5 5h39q5 0 5 -5v-38q0 -4 -3 -6l-39 -35q-4 -2 -7 -2h-37q-3 0 -7 2l-43 37h-37v-34q0 -5 -5 -5h-39zM114 0q-4 0 -7 3l-49 49q-3 3 -3 7v582q0 4 3 7l49 49q3 3 7 3h148q4 0 7 -3l49 -49
q3 -3 3 -7v-582q0 -4 -3 -7l-49 -49q-3 -3 -7 -3h-148zM138 60h99l23 23v534l-23 23h-99l-23 -23v-534z" />
    <glyph glyph-name="odieresis" unicode="&#xf6;" 
d="M98 750q-5 0 -5 5v55q0 5 5 5h55q5 0 5 -5v-55q0 -5 -5 -5h-55zM224 750q-5 0 -5 5v55q0 5 5 5h55q5 0 5 -5v-55q0 -5 -5 -5h-55zM114 0q-4 0 -7 3l-49 49q-3 3 -3 7v582q0 4 3 7l49 49q3 3 7 3h148q4 0 7 -3l49 -49q3 -3 3 -7v-582q0 -4 -3 -7l-49 -49q-3 -3 -7 -3h-148
zM138 60h99l23 23v534l-23 23h-99l-23 -23v-534z" />
    <glyph glyph-name="divide" unicode="&#xf7;" horiz-adv-x="367" 
d="M153 416q-5 0 -5 5v61q0 5 5 5h61q5 0 5 -5v-61q0 -5 -5 -5h-61zM65 293q-5 0 -5 5v50q0 5 5 5h237q5 0 5 -5v-50q0 -5 -5 -5h-237zM153 163q-5 0 -5 5v61q0 5 5 5h61q5 0 5 -5v-61q0 -5 -5 -5h-61z" />
    <glyph glyph-name="oslash" unicode="&#xf8;" horiz-adv-x="360" 
d="M278 688l40 -40q3 -3 3 -7v-582q0 -4 -3 -7l-49 -49q-3 -3 -7 -3h-102l-6 -33q0 -5 -6 -5h-44q-5 0 -4 5l6 37l-48 48q-3 3 -3 7v582q0 4 3 7l49 49q3 3 7 3h111l6 33q0 5 6 5h44q4 0 4 -5zM115 83l4 -4l96 561h-77l-23 -23v-534zM237 60l23 23v503l-90 -526h67z" />
    <glyph glyph-name="ugrave" unicode="&#xf9;" 
d="M168 751q-4 0 -6 3l-46 68q-4 6 3 6h52q3 0 5 -4l23 -67q1 -6 -4 -6h-27zM114 0q-4 0 -7 3l-49 49q-3 3 -3 7v636q0 5 5 5h50q5 0 5 -5v-612l23 -23h99l23 23v612q0 5 5 5h51q5 0 5 -5v-636q0 -4 -3 -7l-49 -49q-3 -3 -7 -3h-148z" />
    <glyph glyph-name="uacute" unicode="&#xfa;" 
d="M180 751q-6 0 -4 6l25 66q2 4 5 4h52q7 0 3 -6l-48 -67q-1 -3 -6 -3h-27zM114 0q-4 0 -7 3l-49 49q-3 3 -3 7v636q0 5 5 5h50q5 0 5 -5v-612l23 -23h99l23 23v612q0 5 5 5h51q5 0 5 -5v-636q0 -4 -3 -7l-49 -49q-3 -3 -7 -3h-148z" />
    <glyph glyph-name="ucircumflex" unicode="&#xfb;" 
d="M97 751q-7 0 -3 6l60 70q2 3 6 3h54q4 0 6 -3l60 -70q4 -6 -3 -6h-51q-4 0 -6 3l-33 39l-33 -39q-2 -3 -6 -3h-51zM114 0q-4 0 -7 3l-49 49q-3 3 -3 7v636q0 5 5 5h50q5 0 5 -5v-612l23 -23h99l23 23v612q0 5 5 5h51q5 0 5 -5v-636q0 -4 -3 -7l-49 -49q-3 -3 -7 -3h-148z
" />
    <glyph glyph-name="udieresis" unicode="&#xfc;" 
d="M96 750q-5 0 -5 5v55q0 5 5 5h55q5 0 5 -5v-55q0 -5 -5 -5h-55zM222 750q-5 0 -5 5v55q0 5 5 5h55q5 0 5 -5v-55q0 -5 -5 -5h-55zM114 0q-4 0 -7 3l-49 49q-3 3 -3 7v636q0 5 5 5h50q5 0 5 -5v-612l23 -23h99l23 23v612q0 5 5 5h51q5 0 5 -5v-636q0 -4 -3 -7l-49 -49
q-3 -3 -7 -3h-148z" />
    <glyph glyph-name="yacute" unicode="&#xfd;" horiz-adv-x="314" 
d="M152 751q-6 0 -4 6l25 66q2 4 5 4h52q7 0 3 -6l-48 -67q-1 -3 -6 -3h-27zM127 259l-102 435q-1 6 5 6h54q5 0 6 -4l64 -323h8l62 323q1 4 6 4h54q6 0 5 -6l-102 -436v-253q0 -5 -5 -5h-50q-5 0 -5 5v254z" />
    <glyph glyph-name="thorn" unicode="&#xfe;" horiz-adv-x="356" 
d="M65 0q-5 0 -5 5v690q0 5 5 5h50q5 0 5 -5v-57h147q4 0 7 -3l49 -49q3 -3 3 -7v-315q0 -4 -3 -7l-49 -49q-3 -3 -7 -3h-147v-200q0 -5 -5 -5h-50zM120 265h122l23 23v267l-23 23h-122v-313z" />
    <glyph glyph-name="ydieresis" unicode="&#xff;" horiz-adv-x="314" 
d="M68 750q-5 0 -5 5v55q0 5 5 5h55q5 0 5 -5v-55q0 -5 -5 -5h-55zM194 750q-5 0 -5 5v55q0 5 5 5h55q5 0 5 -5v-55q0 -5 -5 -5h-55zM127 259l-102 435q-1 6 5 6h54q5 0 6 -4l64 -323h8l62 323q1 4 6 4h54q6 0 5 -6l-102 -436v-253q0 -5 -5 -5h-50q-5 0 -5 5v254z" />
    <glyph glyph-name="Amacron" unicode="&#x100;" horiz-adv-x="348" 
d="M77 750q-5 0 -5 5v37q0 5 5 5h196q5 0 5 -5v-37q0 -5 -5 -5h-196zM37 0q-4 0 -4 5l106 690q0 5 6 5h56q6 0 6 -5l107 -690q0 -5 -4 -5h-50q-6 0 -6 5l-22 167h-117l-22 -167q0 -5 -6 -5h-50zM123 231h102l-48 347h-7z" />
    <glyph glyph-name="amacron" unicode="&#x101;" horiz-adv-x="348" 
d="M77 750q-5 0 -5 5v37q0 5 5 5h196q5 0 5 -5v-37q0 -5 -5 -5h-196zM37 0q-4 0 -4 5l106 690q0 5 6 5h56q6 0 6 -5l107 -690q0 -5 -4 -5h-50q-6 0 -6 5l-22 167h-117l-22 -167q0 -5 -6 -5h-50zM123 231h102l-48 347h-7z" />
    <glyph glyph-name="Abreve" unicode="&#x102;" horiz-adv-x="348" 
d="M131 750q-4 0 -7 3l-47 48q-3 3 -3 7v34q0 5 5 5h39q5 0 5 -5v-10l34 -33h36l31 33v10q0 5 5 5h42q5 0 5 -5v-34q0 -4 -3 -7l-49 -48q-3 -3 -7 -3h-86zM37 0q-4 0 -4 5l106 690q0 5 6 5h56q6 0 6 -5l107 -690q0 -5 -4 -5h-50q-6 0 -6 5l-22 167h-117l-22 -167q0 -5 -6 -5
h-50zM123 231h102l-48 347h-7z" />
    <glyph glyph-name="abreve" unicode="&#x103;" horiz-adv-x="348" 
d="M131 750q-4 0 -7 3l-47 48q-3 3 -3 7v34q0 5 5 5h39q5 0 5 -5v-10l34 -33h36l31 33v10q0 5 5 5h42q5 0 5 -5v-34q0 -4 -3 -7l-49 -48q-3 -3 -7 -3h-86zM37 0q-4 0 -4 5l106 690q0 5 6 5h56q6 0 6 -5l107 -690q0 -5 -4 -5h-50q-6 0 -6 5l-22 167h-117l-22 -167q0 -5 -6 -5
h-50zM123 231h102l-48 347h-7z" />
    <glyph glyph-name="Aogonek" unicode="&#x104;" horiz-adv-x="348" 
d="M239 -166q-4 0 -7 3l-36 37q-3 3 -3 7v73q0 3 3 6l59 40l-23 172h-118l-22 -167q0 -5 -6 -5h-49q-4 0 -4 5l106 690q0 5 6 5h56q6 0 6 -5l107 -691q0 -4 -2 -6l-74 -57v-45l15 -16h51l14 16v17q0 5 5 5h35q5 0 5 -5v-26q0 -2 -2 -6l-37 -44q-2 -3 -6 -3h-79zM122 231h103
l-51 394z" />
    <glyph glyph-name="aogonek" unicode="&#x105;" horiz-adv-x="348" 
d="M239 -166q-4 0 -7 3l-36 37q-3 3 -3 7v73q0 3 3 6l59 40l-23 172h-118l-22 -167q0 -5 -6 -5h-49q-4 0 -4 5l106 690q0 5 6 5h56q6 0 6 -5l107 -691q0 -4 -2 -6l-74 -57v-45l15 -16h51l14 16v17q0 5 5 5h35q5 0 5 -5v-26q0 -2 -2 -6l-37 -44q-2 -3 -6 -3h-79zM122 231h103
l-51 394z" />
    <glyph glyph-name="Cacute" unicode="&#x106;" 
d="M184 751q-6 0 -4 6l25 66q2 4 5 4h52q7 0 3 -6l-48 -67q-1 -3 -6 -3h-27zM114 0q-4 0 -7 3l-49 49q-3 3 -3 7v582q0 4 3 7l49 49q3 3 7 3h148q4 0 7 -3l49 -49q3 -3 3 -7v-147q0 -5 -5 -5h-51q-5 0 -5 5v123l-23 23h-99l-23 -23v-534l23 -23h99l23 23v153q0 5 5 5h51
q5 0 5 -5v-177q0 -4 -3 -7l-49 -49q-3 -3 -7 -3h-148z" />
    <glyph glyph-name="cacute" unicode="&#x107;" 
d="M184 751q-6 0 -4 6l25 66q2 4 5 4h52q7 0 3 -6l-48 -67q-1 -3 -6 -3h-27zM114 0q-4 0 -7 3l-49 49q-3 3 -3 7v582q0 4 3 7l49 49q3 3 7 3h148q4 0 7 -3l49 -49q3 -3 3 -7v-147q0 -5 -5 -5h-51q-5 0 -5 5v123l-23 23h-99l-23 -23v-534l23 -23h99l23 23v153q0 5 5 5h51
q5 0 5 -5v-177q0 -4 -3 -7l-49 -49q-3 -3 -7 -3h-148z" />
    <glyph glyph-name="Cdotaccent" unicode="&#x10a;" 
d="M156 775q-5 0 -5 5v65q0 5 5 5h65q5 0 5 -5v-65q0 -5 -5 -5h-65zM114 0q-4 0 -7 3l-49 49q-3 3 -3 7v582q0 4 3 7l49 49q3 3 7 3h148q4 0 7 -3l49 -49q3 -3 3 -7v-147q0 -5 -5 -5h-51q-5 0 -5 5v123l-23 23h-99l-23 -23v-534l23 -23h99l23 23v153q0 5 5 5h51q5 0 5 -5
v-177q0 -4 -3 -7l-49 -49q-3 -3 -7 -3h-148z" />
    <glyph glyph-name="cdotaccent" unicode="&#x10b;" 
d="M156 775q-5 0 -5 5v65q0 5 5 5h65q5 0 5 -5v-65q0 -5 -5 -5h-65zM114 0q-4 0 -7 3l-49 49q-3 3 -3 7v582q0 4 3 7l49 49q3 3 7 3h148q4 0 7 -3l49 -49q3 -3 3 -7v-147q0 -5 -5 -5h-51q-5 0 -5 5v123l-23 23h-99l-23 -23v-534l23 -23h99l23 23v153q0 5 5 5h51q5 0 5 -5
v-177q0 -4 -3 -7l-49 -49q-3 -3 -7 -3h-148z" />
    <glyph glyph-name="Ccaron" unicode="&#x10c;" 
d="M164 750q-4 0 -6 3l-60 70q-5 6 3 6h51q4 0 6 -3l33 -39l33 39q2 3 6 3h51q7 0 3 -6l-60 -70q-2 -3 -6 -3h-54zM114 0q-4 0 -7 3l-49 49q-3 3 -3 7v582q0 4 3 7l49 49q3 3 7 3h148q4 0 7 -3l49 -49q3 -3 3 -7v-147q0 -5 -5 -5h-51q-5 0 -5 5v123l-23 23h-99l-23 -23v-534
l23 -23h99l23 23v153q0 5 5 5h51q5 0 5 -5v-177q0 -4 -3 -7l-49 -49q-3 -3 -7 -3h-148z" />
    <glyph glyph-name="ccaron" unicode="&#x10d;" 
d="M164 750q-4 0 -6 3l-60 70q-5 6 3 6h51q4 0 6 -3l33 -39l33 39q2 3 6 3h51q7 0 3 -6l-60 -70q-2 -3 -6 -3h-54zM114 0q-4 0 -7 3l-49 49q-3 3 -3 7v582q0 4 3 7l49 49q3 3 7 3h148q4 0 7 -3l49 -49q3 -3 3 -7v-147q0 -5 -5 -5h-51q-5 0 -5 5v123l-23 23h-99l-23 -23v-534
l23 -23h99l23 23v153q0 5 5 5h51q5 0 5 -5v-177q0 -4 -3 -7l-49 -49q-3 -3 -7 -3h-148z" />
    <glyph glyph-name="Dcaron" unicode="&#x10e;" 
d="M148 738q-4 0 -6 3l-60 70q-4 6 3 6h51q4 0 6 -3l33 -39l33 39q2 3 6 3h51q7 0 3 -6l-60 -70q-2 -3 -6 -3h-54zM60 0q-5 0 -5 5v690q0 5 5 5h202q4 0 7 -3l49 -49q3 -3 3 -7v-582q0 -4 -3 -7l-49 -49q-3 -3 -7 -3h-202zM115 60h122l23 23v534l-23 23h-122v-580z" />
    <glyph glyph-name="dcaron" unicode="&#x10f;" 
d="M148 738q-4 0 -6 3l-60 70q-4 6 3 6h51q4 0 6 -3l33 -39l33 39q2 3 6 3h51q7 0 3 -6l-60 -70q-2 -3 -6 -3h-54zM60 0q-5 0 -5 5v690q0 5 5 5h202q4 0 7 -3l49 -49q3 -3 3 -7v-582q0 -4 -3 -7l-49 -49q-3 -3 -7 -3h-202zM115 60h122l23 23v534l-23 23h-122v-580z" />
    <glyph glyph-name="Dcroat" unicode="&#x110;" horiz-adv-x="383" 
d="M65 0q-5 0 -5 5v315h-31q-5 0 -5 5v50q0 5 5 5h31v315q0 5 5 5h202q4 0 7 -3l49 -49q3 -3 3 -7v-582q0 -4 -3 -7l-49 -49q-3 -3 -7 -3h-202zM120 60h122l23 23v534l-23 23h-122v-260h76q5 0 5 -5v-50q0 -5 -5 -5h-76v-260z" />
    <glyph glyph-name="dcroat" unicode="&#x111;" horiz-adv-x="383" 
d="M65 0q-5 0 -5 5v315h-31q-5 0 -5 5v50q0 5 5 5h31v315q0 5 5 5h202q4 0 7 -3l49 -49q3 -3 3 -7v-582q0 -4 -3 -7l-49 -49q-3 -3 -7 -3h-202zM120 60h122l23 23v534l-23 23h-122v-260h76q5 0 5 -5v-50q0 -5 -5 -5h-76v-260z" />
    <glyph glyph-name="Emacron" unicode="&#x112;" horiz-adv-x="324" 
d="M60 750q-5 0 -5 5v37q0 5 5 5h196q5 0 5 -5v-37q0 -5 -5 -5h-196zM60 0q-5 0 -5 5v690q0 5 5 5h205q5 0 5 -5v-50q0 -5 -5 -5h-150v-260h106q5 0 5 -5v-50q0 -5 -5 -5h-106v-260h159q5 0 4 -5l-8 -50q0 -5 -6 -5h-204z" />
    <glyph glyph-name="emacron" unicode="&#x113;" horiz-adv-x="324" 
d="M60 750q-5 0 -5 5v37q0 5 5 5h196q5 0 5 -5v-37q0 -5 -5 -5h-196zM60 0q-5 0 -5 5v690q0 5 5 5h205q5 0 5 -5v-50q0 -5 -5 -5h-150v-260h106q5 0 5 -5v-50q0 -5 -5 -5h-106v-260h159q5 0 4 -5l-8 -50q0 -5 -6 -5h-204z" />
    <glyph glyph-name="Edotaccent" unicode="&#x116;" horiz-adv-x="324" 
d="M123 775q-5 0 -5 5v65q0 5 5 5h65q5 0 5 -5v-65q0 -5 -5 -5h-65zM60 0q-5 0 -5 5v690q0 5 5 5h205q5 0 5 -5v-50q0 -5 -5 -5h-150v-260h106q5 0 5 -5v-50q0 -5 -5 -5h-106v-260h159q5 0 4 -5l-8 -50q0 -5 -6 -5h-204z" />
    <glyph glyph-name="edotaccent" unicode="&#x117;" horiz-adv-x="324" 
d="M123 775q-5 0 -5 5v65q0 5 5 5h65q5 0 5 -5v-65q0 -5 -5 -5h-65zM60 0q-5 0 -5 5v690q0 5 5 5h205q5 0 5 -5v-50q0 -5 -5 -5h-150v-260h106q5 0 5 -5v-50q0 -5 -5 -5h-106v-260h159q5 0 4 -5l-8 -50q0 -5 -6 -5h-204z" />
    <glyph glyph-name="Eogonek" unicode="&#x118;" horiz-adv-x="324" 
d="M272 -87q0 5 5 5h35q5 0 5 -5v-26q0 -2 -2 -6l-37 -44q-2 -3 -6 -3h-79q-4 0 -7 3l-36 37q-3 3 -3 7v73q0 3 3 6l57 40h-147q-5 0 -5 5v690q0 5 5 5h205q5 0 5 -5v-50q0 -5 -5 -5h-150v-260h106q5 0 5 -5v-50q0 -5 -5 -5h-106v-260h159q5 0 4 -5l-8 -51q0 -4 -4 -6
l-74 -57v-45l15 -16h51l14 16v17z" />
    <glyph glyph-name="eogonek" unicode="&#x119;" horiz-adv-x="324" 
d="M272 -87q0 5 5 5h35q5 0 5 -5v-26q0 -2 -2 -6l-37 -44q-2 -3 -6 -3h-79q-4 0 -7 3l-36 37q-3 3 -3 7v73q0 3 3 6l57 40h-147q-5 0 -5 5v690q0 5 5 5h205q5 0 5 -5v-50q0 -5 -5 -5h-150v-260h106q5 0 5 -5v-50q0 -5 -5 -5h-106v-260h159q5 0 4 -5l-8 -51q0 -4 -4 -6
l-74 -57v-45l15 -16h51l14 16v17z" />
    <glyph glyph-name="Ecaron" unicode="&#x11a;" horiz-adv-x="324" 
d="M131 750q-5 0 -6 3l-60 70q-5 6 3 6h51q5 0 6 -3l33 -39l33 39q1 3 6 3h51q7 0 3 -6l-60 -70q-1 -3 -6 -3h-54zM60 0q-5 0 -5 5v690q0 5 5 5h205q5 0 5 -5v-50q0 -5 -5 -5h-150v-260h106q5 0 5 -5v-50q0 -5 -5 -5h-106v-260h159q5 0 4 -5l-8 -50q0 -5 -6 -5h-204z" />
    <glyph glyph-name="ecaron" unicode="&#x11b;" horiz-adv-x="324" 
d="M131 750q-5 0 -6 3l-60 70q-5 6 3 6h51q5 0 6 -3l33 -39l33 39q1 3 6 3h51q7 0 3 -6l-60 -70q-1 -3 -6 -3h-54zM60 0q-5 0 -5 5v690q0 5 5 5h205q5 0 5 -5v-50q0 -5 -5 -5h-150v-260h106q5 0 5 -5v-50q0 -5 -5 -5h-106v-260h159q5 0 4 -5l-8 -50q0 -5 -6 -5h-204z" />
    <glyph glyph-name="Gbreve" unicode="&#x11e;" horiz-adv-x="381" 
d="M151 750q-4 0 -7 3l-47 48q-3 3 -3 7v34q0 5 5 5h39q5 0 5 -5v-10l34 -33h36l31 33v10q0 5 5 5h42q5 0 5 -5v-34q0 -4 -3 -7l-49 -48q-3 -3 -7 -3h-86zM114 0q-4 0 -7 3l-49 49q-3 3 -3 7v582q0 4 3 7l49 49q3 3 7 3h158q4 0 7 -3l49 -49q3 -3 3 -7v-117q0 -5 -5 -5h-51
q-5 0 -5 5v93l-23 23h-109l-23 -23v-534l23 -23h109l23 23v240h-66q-5 0 -5 5v50q0 5 5 5h122q5 0 5 -5v-319q0 -4 -3 -7l-49 -49q-3 -3 -7 -3h-158z" />
    <glyph glyph-name="gbreve" unicode="&#x11f;" horiz-adv-x="381" 
d="M151 750q-4 0 -7 3l-47 48q-3 3 -3 7v34q0 5 5 5h39q5 0 5 -5v-10l34 -33h36l31 33v10q0 5 5 5h42q5 0 5 -5v-34q0 -4 -3 -7l-49 -48q-3 -3 -7 -3h-86zM114 0q-4 0 -7 3l-49 49q-3 3 -3 7v582q0 4 3 7l49 49q3 3 7 3h158q4 0 7 -3l49 -49q3 -3 3 -7v-117q0 -5 -5 -5h-51
q-5 0 -5 5v93l-23 23h-109l-23 -23v-534l23 -23h109l23 23v240h-66q-5 0 -5 5v50q0 5 5 5h122q5 0 5 -5v-319q0 -4 -3 -7l-49 -49q-3 -3 -7 -3h-158z" />
    <glyph glyph-name="Gdotaccent" unicode="&#x120;" horiz-adv-x="381" 
d="M160 775q-5 0 -5 5v65q0 5 5 5h65q5 0 5 -5v-65q0 -5 -5 -5h-65zM114 0q-4 0 -7 3l-49 49q-3 3 -3 7v582q0 4 3 7l49 49q3 3 7 3h158q4 0 7 -3l49 -49q3 -3 3 -7v-117q0 -5 -5 -5h-51q-5 0 -5 5v93l-23 23h-109l-23 -23v-534l23 -23h109l23 23v240h-66q-5 0 -5 5v50
q0 5 5 5h122q5 0 5 -5v-319q0 -4 -3 -7l-49 -49q-3 -3 -7 -3h-158z" />
    <glyph glyph-name="gdotaccent" unicode="&#x121;" horiz-adv-x="381" 
d="M160 775q-5 0 -5 5v65q0 5 5 5h65q5 0 5 -5v-65q0 -5 -5 -5h-65zM114 0q-4 0 -7 3l-49 49q-3 3 -3 7v582q0 4 3 7l49 49q3 3 7 3h158q4 0 7 -3l49 -49q3 -3 3 -7v-117q0 -5 -5 -5h-51q-5 0 -5 5v93l-23 23h-109l-23 -23v-534l23 -23h109l23 23v240h-66q-5 0 -5 5v50
q0 5 5 5h122q5 0 5 -5v-319q0 -4 -3 -7l-49 -49q-3 -3 -7 -3h-158z" />
    <glyph glyph-name="uni0122" unicode="&#x122;" horiz-adv-x="381" 
d="M114 0q-4 0 -7 3l-49 49q-3 3 -3 7v582q0 4 3 7l49 49q3 3 7 3h158q4 0 7 -3l49 -49q3 -3 3 -7v-117q0 -5 -5 -5h-51q-5 0 -5 5v93l-23 23h-109l-23 -23v-534l23 -23h109l23 23v240h-66q-5 0 -5 5v50q0 5 5 5h122q5 0 5 -5v-319q0 -4 -3 -7l-49 -49q-3 -3 -7 -3h-158z
M172 -182q-5 0 -5 5v120q0 5 5 5h51q5 0 5 -5v-52q0 -3 -1 -6l-25 -63q-2 -4 -6 -4h-24z" />
    <glyph glyph-name="uni0123" unicode="&#x123;" horiz-adv-x="381" 
d="M211 901q5 0 5 -5v-120q0 -5 -5 -5h-51q-5 0 -5 5v52q0 3 1 6l25 63q2 4 6 4h24zM114 0q-4 0 -7 3l-49 49q-3 3 -3 7v582q0 4 3 7l49 49q3 3 7 3h158q4 0 7 -3l49 -49q3 -3 3 -7v-117q0 -5 -5 -5h-51q-5 0 -5 5v93l-23 23h-109l-23 -23v-534l23 -23h109l23 23v240h-66
q-5 0 -5 5v50q0 5 5 5h122q5 0 5 -5v-319q0 -4 -3 -7l-49 -49q-3 -3 -7 -3h-158z" />
    <glyph glyph-name="Hbar" unicode="&#x126;" horiz-adv-x="378" 
d="M353 567q5 0 5 -5v-50q0 -5 -5 -5h-25v-502q0 -5 -5 -5h-51q-5 0 -5 5v315h-152v-315q0 -5 -5 -5h-50q-5 0 -5 5v502h-25q-5 0 -5 5v50q0 5 5 5h25v128q0 5 5 5h50q5 0 5 -5v-128h152v128q0 5 5 5h51q5 0 5 -5v-128h25zM267 380v127h-152v-127h152z" />
    <glyph glyph-name="hbar" unicode="&#x127;" horiz-adv-x="378" 
d="M353 567q5 0 5 -5v-50q0 -5 -5 -5h-25v-502q0 -5 -5 -5h-51q-5 0 -5 5v315h-152v-315q0 -5 -5 -5h-50q-5 0 -5 5v502h-25q-5 0 -5 5v50q0 5 5 5h25v128q0 5 5 5h50q5 0 5 -5v-128h152v128q0 5 5 5h51q5 0 5 -5v-128h25zM267 380v127h-152v-127h152z" />
    <glyph glyph-name="Imacron" unicode="&#x12a;" horiz-adv-x="190" 
d="M-3 749q-5 0 -5 5v37q0 5 5 5h196q5 0 5 -5v-37q0 -5 -5 -5h-196zM70 0q-5 0 -5 5v690q0 5 5 5h50q5 0 5 -5v-690q0 -5 -5 -5h-50z" />
    <glyph glyph-name="imacron" unicode="&#x12b;" horiz-adv-x="190" 
d="M-3 749q-5 0 -5 5v37q0 5 5 5h196q5 0 5 -5v-37q0 -5 -5 -5h-196zM70 0q-5 0 -5 5v690q0 5 5 5h50q5 0 5 -5v-690q0 -5 -5 -5h-50z" />
    <glyph glyph-name="Iogonek" unicode="&#x12e;" horiz-adv-x="169" 
d="M39 -166q-4 0 -7 3l-36 37q-3 3 -3 7v73q0 3 3 6l59 40v695q0 5 5 5h50q5 0 5 -5v-691q0 -4 -3 -6l-74 -57v-45l15 -16h51l14 16v17q0 5 5 5h35q5 0 5 -5v-26q0 -2 -2 -6l-37 -44q-2 -3 -6 -3h-79z" />
    <glyph glyph-name="iogonek" unicode="&#x12f;" horiz-adv-x="169" 
d="M39 -166q-4 0 -7 3l-36 37q-3 3 -3 7v73q0 3 3 6l59 40v695q0 5 5 5h50q5 0 5 -5v-691q0 -4 -3 -6l-74 -57v-45l15 -16h51l14 16v17q0 5 5 5h35q5 0 5 -5v-26q0 -2 -2 -6l-37 -44q-2 -3 -6 -3h-79z" />
    <glyph glyph-name="Idotaccent" unicode="&#x130;" horiz-adv-x="190" 
d="M60 774q-5 0 -5 5v65q0 5 5 5h65q5 0 5 -5v-65q0 -5 -5 -5h-65zM70 0q-5 0 -5 5v690q0 5 5 5h50q5 0 5 -5v-690q0 -5 -5 -5h-50z" />
    <glyph glyph-name="dotlessi" unicode="&#x131;" horiz-adv-x="190" 
d="M70 0q-5 0 -5 5v690q0 5 5 5h50q5 0 5 -5v-690q0 -5 -5 -5h-50z" />
    <glyph glyph-name="uni0136" unicode="&#x136;" horiz-adv-x="356" 
d="M60 0q-5 0 -5 5v690q0 5 5 5h50q5 0 5 -5v-299h10l140 300q2 4 6 4h53q6 0 4 -6l-155 -326l155 -362q2 -6 -3 -6h-54q-4 0 -6 4l-140 332h-10v-331q0 -5 -5 -5h-50zM161 -182q-5 0 -5 5v120q0 5 5 5h51q5 0 5 -5v-52q0 -3 -1 -6l-25 -63q-2 -4 -6 -4h-24z" />
    <glyph glyph-name="uni0137" unicode="&#x137;" horiz-adv-x="356" 
d="M60 0q-5 0 -5 5v690q0 5 5 5h50q5 0 5 -5v-299h10l140 300q2 4 6 4h53q6 0 4 -6l-155 -326l155 -362q2 -6 -3 -6h-54q-4 0 -6 4l-140 332h-10v-331q0 -5 -5 -5h-50zM161 -182q-5 0 -5 5v120q0 5 5 5h51q5 0 5 -5v-52q0 -3 -1 -6l-25 -63q-2 -4 -6 -4h-24z" />
    <glyph glyph-name="Lacute" unicode="&#x139;" horiz-adv-x="293" 
d="M111 751q-5 0 -4 6l25 66q2 4 5 4h52q7 0 3 -6l-48 -67q-2 -3 -6 -3h-27zM60 0q-5 0 -5 5v690q0 5 5 5h50q5 0 5 -5v-635h123q5 0 4 -5l-8 -50q0 -5 -6 -5h-168z" />
    <glyph glyph-name="lacute" unicode="&#x13a;" horiz-adv-x="293" 
d="M111 751q-5 0 -4 6l25 66q2 4 5 4h52q7 0 3 -6l-48 -67q-2 -3 -6 -3h-27zM60 0q-5 0 -5 5v690q0 5 5 5h50q5 0 5 -5v-635h123q5 0 4 -5l-8 -50q0 -5 -6 -5h-168z" />
    <glyph glyph-name="uni013B" unicode="&#x13b;" horiz-adv-x="293" 
d="M60 0q-5 0 -5 5v690q0 5 5 5h50q5 0 5 -5v-635h123q5 0 4 -5l-8 -50q0 -5 -6 -5h-168zM122 -181q-5 0 -5 5v120q0 5 5 5h51q5 0 5 -5v-52q0 -3 -1 -6l-25 -63q-2 -4 -6 -4h-24z" />
    <glyph glyph-name="uni013C" unicode="&#x13c;" horiz-adv-x="293" 
d="M60 0q-5 0 -5 5v690q0 5 5 5h50q5 0 5 -5v-635h123q5 0 4 -5l-8 -50q0 -5 -6 -5h-168zM122 -181q-5 0 -5 5v120q0 5 5 5h51q5 0 5 -5v-52q0 -3 -1 -6l-25 -63q-2 -4 -6 -4h-24z" />
    <glyph glyph-name="Lcaron" unicode="&#x13d;" horiz-adv-x="293" 
d="M91 750q-5 0 -6 3l-60 70q-4 6 3 6h51q5 0 6 -3l33 -39l33 39q1 3 6 3h51q7 0 3 -6l-60 -70q-1 -3 -6 -3h-54zM60 0q-5 0 -5 5v690q0 5 5 5h50q5 0 5 -5v-635h123q5 0 4 -5l-8 -50q0 -5 -6 -5h-168z" />
    <glyph glyph-name="lcaron" unicode="&#x13e;" horiz-adv-x="293" 
d="M91 750q-5 0 -6 3l-60 70q-4 6 3 6h51q5 0 6 -3l33 -39l33 39q1 3 6 3h51q7 0 3 -6l-60 -70q-1 -3 -6 -3h-54zM60 0q-5 0 -5 5v690q0 5 5 5h50q5 0 5 -5v-635h123q5 0 4 -5l-8 -50q0 -5 -6 -5h-168z" />
    <glyph glyph-name="Lslash" unicode="&#x141;" horiz-adv-x="341" 
d="M163 60h123q5 0 4 -5l-8 -50q0 -5 -6 -5h-168q-5 0 -5 5v268l-42 -25q-6 -4 -6 4v49q0 4 3 6l45 26v362q0 5 5 5h50q5 0 5 -5v-327l75 44q6 4 6 -4v-49q0 -4 -3 -6l-78 -45v-248z" />
    <glyph glyph-name="lslash" unicode="&#x142;" horiz-adv-x="341" 
d="M163 60h123q5 0 4 -5l-8 -50q0 -5 -6 -5h-168q-5 0 -5 5v268l-42 -25q-6 -4 -6 4v49q0 4 3 6l45 26v362q0 5 5 5h50q5 0 5 -5v-327l75 44q6 4 6 -4v-49q0 -4 -3 -6l-78 -45v-248z" />
    <glyph glyph-name="Nacute" unicode="&#x143;" horiz-adv-x="380" 
d="M184 749q-6 0 -4 6l25 66q2 4 5 4h52q7 0 3 -6l-48 -67q-1 -3 -6 -3h-27zM60 0q-5 0 -5 5v690q0 5 5 5h51q3 0 5 -4l144 -490h10v489q0 5 5 5h50q5 0 5 -5v-690q0 -5 -5 -5h-51q-3 0 -5 4l-144 490h-10v-489q0 -5 -5 -5h-50z" />
    <glyph glyph-name="nacute" unicode="&#x144;" horiz-adv-x="380" 
d="M184 749q-6 0 -4 6l25 66q2 4 5 4h52q7 0 3 -6l-48 -67q-1 -3 -6 -3h-27zM60 0q-5 0 -5 5v690q0 5 5 5h51q3 0 5 -4l144 -490h10v489q0 5 5 5h50q5 0 5 -5v-690q0 -5 -5 -5h-51q-3 0 -5 4l-144 490h-10v-489q0 -5 -5 -5h-50z" />
    <glyph glyph-name="uni0145" unicode="&#x145;" horiz-adv-x="380" 
d="M60 0q-5 0 -5 5v690q0 5 5 5h51q3 0 5 -4l144 -490h10v489q0 5 5 5h50q5 0 5 -5v-690q0 -5 -5 -5h-51q-3 0 -5 4l-144 490h-10v-489q0 -5 -5 -5h-50zM167 -181q-5 0 -5 5v120q0 5 5 5h51q5 0 5 -5v-52q0 -3 -1 -6l-25 -63q-2 -4 -6 -4h-24z" />
    <glyph glyph-name="uni0146" unicode="&#x146;" horiz-adv-x="380" 
d="M60 0q-5 0 -5 5v690q0 5 5 5h51q3 0 5 -4l144 -490h10v489q0 5 5 5h50q5 0 5 -5v-690q0 -5 -5 -5h-51q-3 0 -5 4l-144 490h-10v-489q0 -5 -5 -5h-50zM167 -181q-5 0 -5 5v120q0 5 5 5h51q5 0 5 -5v-52q0 -3 -1 -6l-25 -63q-2 -4 -6 -4h-24z" />
    <glyph glyph-name="Ncaron" unicode="&#x147;" horiz-adv-x="380" 
d="M164 748q-4 0 -6 3l-60 70q-5 6 3 6h51q4 0 6 -3l33 -39l33 39q2 3 6 3h51q7 0 3 -6l-60 -70q-2 -3 -6 -3h-54zM60 0q-5 0 -5 5v690q0 5 5 5h51q3 0 5 -4l144 -490h10v489q0 5 5 5h50q5 0 5 -5v-690q0 -5 -5 -5h-51q-3 0 -5 4l-144 490h-10v-489q0 -5 -5 -5h-50z" />
    <glyph glyph-name="ncaron" unicode="&#x148;" horiz-adv-x="380" 
d="M164 748q-4 0 -6 3l-60 70q-5 6 3 6h51q4 0 6 -3l33 -39l33 39q2 3 6 3h51q7 0 3 -6l-60 -70q-2 -3 -6 -3h-54zM60 0q-5 0 -5 5v690q0 5 5 5h51q3 0 5 -4l144 -490h10v489q0 5 5 5h50q5 0 5 -5v-690q0 -5 -5 -5h-51q-3 0 -5 4l-144 490h-10v-489q0 -5 -5 -5h-50z" />
    <glyph glyph-name="Eng" unicode="&#x14a;" horiz-adv-x="380" 
d="M170 -251q-4 0 -7 3l-51 50q-3 3 -3 7v84q0 5 5 5h50q5 0 5 -5v-58l26 -27h49l26 27v165l-145 494h-10v-489q0 -5 -5 -5h-50q-5 0 -5 5v690q0 5 5 5h51q3 0 5 -4l144 -490h10v489q0 5 5 5h50q5 0 5 -5v-886q0 -4 -3 -7l-51 -50q-3 -3 -7 -3h-99z" />
    <glyph glyph-name="eng" unicode="&#x14b;" horiz-adv-x="380" 
d="M170 -251q-4 0 -7 3l-51 50q-3 3 -3 7v84q0 5 5 5h50q5 0 5 -5v-58l26 -27h49l26 27v165l-145 494h-10v-489q0 -5 -5 -5h-50q-5 0 -5 5v690q0 5 5 5h51q3 0 5 -4l144 -490h10v489q0 5 5 5h50q5 0 5 -5v-886q0 -4 -3 -7l-51 -50q-3 -3 -7 -3h-99z" />
    <glyph glyph-name="Omacron" unicode="&#x14c;" 
d="M91 750q-5 0 -5 5v37q0 5 5 5h196q5 0 5 -5v-37q0 -5 -5 -5h-196zM114 0q-4 0 -7 3l-49 49q-3 3 -3 7v582q0 4 3 7l49 49q3 3 7 3h148q4 0 7 -3l49 -49q3 -3 3 -7v-582q0 -4 -3 -7l-49 -49q-3 -3 -7 -3h-148zM138 60h99l23 23v534l-23 23h-99l-23 -23v-534z" />
    <glyph glyph-name="omacron" unicode="&#x14d;" 
d="M91 750q-5 0 -5 5v37q0 5 5 5h196q5 0 5 -5v-37q0 -5 -5 -5h-196zM114 0q-4 0 -7 3l-49 49q-3 3 -3 7v582q0 4 3 7l49 49q3 3 7 3h148q4 0 7 -3l49 -49q3 -3 3 -7v-582q0 -4 -3 -7l-49 -49q-3 -3 -7 -3h-148zM138 60h99l23 23v534l-23 23h-99l-23 -23v-534z" />
    <glyph glyph-name="Ohungarumlaut" unicode="&#x150;" 
d="M104 751q-6 0 -4 6l25 66q2 4 5 4h52q7 0 3 -6l-48 -67q-1 -3 -6 -3h-27zM194 751q-6 0 -4 6l25 66q2 4 5 4h52q7 0 3 -6l-48 -67q-1 -3 -6 -3h-27zM114 0q-4 0 -7 3l-49 49q-3 3 -3 7v582q0 4 3 7l49 49q3 3 7 3h148q4 0 7 -3l49 -49q3 -3 3 -7v-582q0 -4 -3 -7l-49 -49
q-3 -3 -7 -3h-148zM138 60h99l23 23v534l-23 23h-99l-23 -23v-534z" />
    <glyph glyph-name="ohungarumlaut" unicode="&#x151;" 
d="M104 751q-6 0 -4 6l25 66q2 4 5 4h52q7 0 3 -6l-48 -67q-1 -3 -6 -3h-27zM194 751q-6 0 -4 6l25 66q2 4 5 4h52q7 0 3 -6l-48 -67q-1 -3 -6 -3h-27zM114 0q-4 0 -7 3l-49 49q-3 3 -3 7v582q0 4 3 7l49 49q3 3 7 3h148q4 0 7 -3l49 -49q3 -3 3 -7v-582q0 -4 -3 -7l-49 -49
q-3 -3 -7 -3h-148zM138 60h99l23 23v534l-23 23h-99l-23 -23v-534z" />
    <glyph glyph-name="OE" unicode="&#x152;" horiz-adv-x="530" 
d="M114 0q-4 0 -7 3l-49 49q-3 3 -3 7v582q0 4 3 7l49 49q3 3 7 3h357q5 0 5 -5v-50q0 -5 -5 -5h-150v-260h126q5 0 5 -5v-50q0 -5 -5 -5h-126v-260h159q5 0 4 -5l-8 -50q0 -5 -6 -5h-356zM138 60h99l23 23v534l-23 23h-99l-23 -23v-534z" />
    <glyph glyph-name="oe" unicode="&#x153;" horiz-adv-x="530" 
d="M114 0q-4 0 -7 3l-49 49q-3 3 -3 7v582q0 4 3 7l49 49q3 3 7 3h357q5 0 5 -5v-50q0 -5 -5 -5h-150v-260h126q5 0 5 -5v-50q0 -5 -5 -5h-126v-260h159q5 0 4 -5l-8 -50q0 -5 -6 -5h-356zM138 60h99l23 23v534l-23 23h-99l-23 -23v-534z" />
    <glyph glyph-name="Racute" unicode="&#x154;" horiz-adv-x="383" 
d="M166 751q-6 0 -4 6l25 66q2 4 5 4h52q7 0 3 -6l-48 -67q-1 -3 -6 -3h-27zM60 0q-5 0 -5 5v690q0 5 5 5h202q4 0 7 -3l49 -49q3 -3 3 -7v-305q0 -4 -3 -7l-49 -49q-3 -3 -7 -3h-26l101 -271q1 -6 -4 -6h-55q-3 0 -5 4l-103 273h-55v-272q0 -5 -5 -5h-50zM115 337h122
l23 23v257l-23 23h-122v-303z" />
    <glyph glyph-name="racute" unicode="&#x155;" horiz-adv-x="383" 
d="M166 751q-6 0 -4 6l25 66q2 4 5 4h52q7 0 3 -6l-48 -67q-1 -3 -6 -3h-27zM60 0q-5 0 -5 5v690q0 5 5 5h202q4 0 7 -3l49 -49q3 -3 3 -7v-305q0 -4 -3 -7l-49 -49q-3 -3 -7 -3h-26l101 -271q1 -6 -4 -6h-55q-3 0 -5 4l-103 273h-55v-272q0 -5 -5 -5h-50zM115 337h122
l23 23v257l-23 23h-122v-303z" />
    <glyph glyph-name="uni0156" unicode="&#x156;" horiz-adv-x="383" 
d="M60 0q-5 0 -5 5v690q0 5 5 5h202q4 0 7 -3l49 -49q3 -3 3 -7v-305q0 -4 -3 -7l-49 -49q-3 -3 -7 -3h-26l101 -271q1 -6 -4 -6h-55q-3 0 -5 4l-103 273h-55v-272q0 -5 -5 -5h-50zM115 337h122l23 23v257l-23 23h-122v-303zM156 -181q-5 0 -5 5v120q0 5 5 5h51q5 0 5 -5
v-52q0 -3 -1 -6l-25 -63q-2 -4 -6 -4h-24z" />
    <glyph glyph-name="uni0157" unicode="&#x157;" horiz-adv-x="383" 
d="M60 0q-5 0 -5 5v690q0 5 5 5h202q4 0 7 -3l49 -49q3 -3 3 -7v-305q0 -4 -3 -7l-49 -49q-3 -3 -7 -3h-26l101 -271q1 -6 -4 -6h-55q-3 0 -5 4l-103 273h-55v-272q0 -5 -5 -5h-50zM115 337h122l23 23v257l-23 23h-122v-303zM156 -181q-5 0 -5 5v120q0 5 5 5h51q5 0 5 -5
v-52q0 -3 -1 -6l-25 -63q-2 -4 -6 -4h-24z" />
    <glyph glyph-name="Rcaron" unicode="&#x158;" horiz-adv-x="383" 
d="M146 750q-4 0 -6 3l-60 70q-5 6 3 6h51q4 0 6 -3l33 -39l33 39q2 3 6 3h51q7 0 3 -6l-60 -70q-2 -3 -6 -3h-54zM60 0q-5 0 -5 5v690q0 5 5 5h202q4 0 7 -3l49 -49q3 -3 3 -7v-305q0 -4 -3 -7l-49 -49q-3 -3 -7 -3h-26l101 -271q1 -6 -4 -6h-55q-3 0 -5 4l-103 273h-55
v-272q0 -5 -5 -5h-50zM115 337h122l23 23v257l-23 23h-122v-303z" />
    <glyph glyph-name="rcaron" unicode="&#x159;" horiz-adv-x="383" 
d="M146 750q-4 0 -6 3l-60 70q-5 6 3 6h51q4 0 6 -3l33 -39l33 39q2 3 6 3h51q7 0 3 -6l-60 -70q-2 -3 -6 -3h-54zM60 0q-5 0 -5 5v690q0 5 5 5h202q4 0 7 -3l49 -49q3 -3 3 -7v-305q0 -4 -3 -7l-49 -49q-3 -3 -7 -3h-26l101 -271q1 -6 -4 -6h-55q-3 0 -5 4l-103 273h-55
v-272q0 -5 -5 -5h-50zM115 337h122l23 23v257l-23 23h-122v-303z" />
    <glyph glyph-name="Sacute" unicode="&#x15a;" 
d="M189 750q-5 0 -4 6l25 66q2 4 5 4h52q7 0 3 -6l-48 -67q-2 -3 -6 -3h-27zM114 0q-4 0 -7 3l-49 49q-3 3 -3 7v168q0 5 5 5h50q5 0 5 -5v-144l23 -23h99l23 23v234l-23 23h-123q-4 0 -7 3l-49 49q-3 3 -3 7v242q0 4 3 7l49 49q3 3 7 3h148q4 0 7 -3l49 -49q3 -3 3 -7v-144
q0 -5 -5 -5h-51q-5 0 -5 5v120l-23 23h-99l-23 -23v-194l23 -23h124q4 0 7 -3l49 -49q3 -3 3 -7v-282q0 -4 -3 -7l-49 -49q-3 -3 -7 -3h-148z" />
    <glyph glyph-name="sacute" unicode="&#x15b;" 
d="M189 750q-5 0 -4 6l25 66q2 4 5 4h52q7 0 3 -6l-48 -67q-2 -3 -6 -3h-27zM114 0q-4 0 -7 3l-49 49q-3 3 -3 7v168q0 5 5 5h50q5 0 5 -5v-144l23 -23h99l23 23v234l-23 23h-123q-4 0 -7 3l-49 49q-3 3 -3 7v242q0 4 3 7l49 49q3 3 7 3h148q4 0 7 -3l49 -49q3 -3 3 -7v-144
q0 -5 -5 -5h-51q-5 0 -5 5v120l-23 23h-99l-23 -23v-194l23 -23h124q4 0 7 -3l49 -49q3 -3 3 -7v-282q0 -4 -3 -7l-49 -49q-3 -3 -7 -3h-148z" />
    <glyph glyph-name="Scedilla" unicode="&#x15e;" 
d="M114 0q-4 0 -7 3l-49 49q-3 3 -3 7v168q0 5 5 5h50q5 0 5 -5v-144l23 -23h99l23 23v234l-23 23h-123q-4 0 -7 3l-49 49q-3 3 -3 7v242q0 4 3 7l49 49q3 3 7 3h148q4 0 7 -3l49 -49q3 -3 3 -7v-144q0 -5 -5 -5h-51q-5 0 -5 5v120l-23 23h-99l-23 -23v-194l23 -23h124
q4 0 7 -3l49 -49q3 -3 3 -7v-282q0 -4 -3 -7l-49 -49q-3 -3 -7 -3h-148zM164 -181q-5 0 -5 5v120q0 5 5 5h51q5 0 5 -5v-52q0 -3 -1 -6l-25 -63q-2 -4 -6 -4h-24z" />
    <glyph glyph-name="scedilla" unicode="&#x15f;" 
d="M114 0q-4 0 -7 3l-49 49q-3 3 -3 7v168q0 5 5 5h50q5 0 5 -5v-144l23 -23h99l23 23v234l-23 23h-123q-4 0 -7 3l-49 49q-3 3 -3 7v242q0 4 3 7l49 49q3 3 7 3h148q4 0 7 -3l49 -49q3 -3 3 -7v-144q0 -5 -5 -5h-51q-5 0 -5 5v120l-23 23h-99l-23 -23v-194l23 -23h124
q4 0 7 -3l49 -49q3 -3 3 -7v-282q0 -4 -3 -7l-49 -49q-3 -3 -7 -3h-148zM164 -181q-5 0 -5 5v120q0 5 5 5h51q5 0 5 -5v-52q0 -3 -1 -6l-25 -63q-2 -4 -6 -4h-24z" />
    <glyph glyph-name="Scaron" unicode="&#x160;" 
d="M169 749q-5 0 -6 3l-60 70q-5 6 3 6h51q5 0 6 -3l33 -39l33 39q1 3 6 3h51q8 0 3 -6l-60 -70q-1 -3 -6 -3h-54zM114 0q-4 0 -7 3l-49 49q-3 3 -3 7v168q0 5 5 5h50q5 0 5 -5v-144l23 -23h99l23 23v234l-23 23h-123q-4 0 -7 3l-49 49q-3 3 -3 7v242q0 4 3 7l49 49q3 3 7 3
h148q4 0 7 -3l49 -49q3 -3 3 -7v-144q0 -5 -5 -5h-51q-5 0 -5 5v120l-23 23h-99l-23 -23v-194l23 -23h124q4 0 7 -3l49 -49q3 -3 3 -7v-282q0 -4 -3 -7l-49 -49q-3 -3 -7 -3h-148z" />
    <glyph glyph-name="scaron" unicode="&#x161;" 
d="M169 749q-5 0 -6 3l-60 70q-5 6 3 6h51q5 0 6 -3l33 -39l33 39q1 3 6 3h51q8 0 3 -6l-60 -70q-1 -3 -6 -3h-54zM114 0q-4 0 -7 3l-49 49q-3 3 -3 7v168q0 5 5 5h50q5 0 5 -5v-144l23 -23h99l23 23v234l-23 23h-123q-4 0 -7 3l-49 49q-3 3 -3 7v242q0 4 3 7l49 49q3 3 7 3
h148q4 0 7 -3l49 -49q3 -3 3 -7v-144q0 -5 -5 -5h-51q-5 0 -5 5v120l-23 23h-99l-23 -23v-194l23 -23h124q4 0 7 -3l49 -49q3 -3 3 -7v-282q0 -4 -3 -7l-49 -49q-3 -3 -7 -3h-148z" />
    <glyph glyph-name="uni0162" unicode="&#x162;" horiz-adv-x="334" 
d="M142 0q-5 0 -5 5v635h-102q-5 0 -5 5v50q0 5 5 5h265q5 0 5 -5v-50q0 -5 -5 -5h-103v-635q0 -5 -5 -5h-50zM140 -181q-5 0 -5 5v120q0 5 5 5h51q5 0 5 -5v-52q0 -3 -1 -6l-25 -63q-2 -4 -6 -4h-24z" />
    <glyph glyph-name="uni0163" unicode="&#x163;" horiz-adv-x="334" 
d="M142 0q-5 0 -5 5v635h-102q-5 0 -5 5v50q0 5 5 5h265q5 0 5 -5v-50q0 -5 -5 -5h-103v-635q0 -5 -5 -5h-50zM140 -181q-5 0 -5 5v120q0 5 5 5h51q5 0 5 -5v-52q0 -3 -1 -6l-25 -63q-2 -4 -6 -4h-24z" />
    <glyph glyph-name="Tcaron" unicode="&#x164;" horiz-adv-x="334" 
d="M142 749q-4 0 -6 3l-60 70q-4 6 3 6h51q4 0 6 -3l33 -39l33 39q2 3 6 3h51q7 0 3 -6l-60 -70q-2 -3 -6 -3h-54zM142 0q-5 0 -5 5v635h-102q-5 0 -5 5v50q0 5 5 5h265q5 0 5 -5v-50q0 -5 -5 -5h-103v-635q0 -5 -5 -5h-50z" />
    <glyph glyph-name="tcaron" unicode="&#x165;" horiz-adv-x="334" 
d="M142 749q-4 0 -6 3l-60 70q-4 6 3 6h51q4 0 6 -3l33 -39l33 39q2 3 6 3h51q7 0 3 -6l-60 -70q-2 -3 -6 -3h-54zM142 0q-5 0 -5 5v635h-102q-5 0 -5 5v50q0 5 5 5h265q5 0 5 -5v-50q0 -5 -5 -5h-103v-635q0 -5 -5 -5h-50z" />
    <glyph glyph-name="Tbar" unicode="&#x166;" horiz-adv-x="334" 
d="M305 645q0 -5 -5 -5h-103v-266h67q5 0 5 -5v-37q0 -5 -5 -5h-67v-322q0 -5 -5 -5h-50q-5 0 -5 5v322h-69q-5 0 -5 5v37q0 5 5 5h69v266h-102q-5 0 -5 5v50q0 5 5 5h265q5 0 5 -5v-50z" />
    <glyph glyph-name="tbar" unicode="&#x167;" horiz-adv-x="334" 
d="M305 645q0 -5 -5 -5h-103v-266h67q5 0 5 -5v-37q0 -5 -5 -5h-67v-322q0 -5 -5 -5h-50q-5 0 -5 5v322h-69q-5 0 -5 5v37q0 5 5 5h69v266h-102q-5 0 -5 5v50q0 5 5 5h265q5 0 5 -5v-50z" />
    <glyph glyph-name="Umacron" unicode="&#x16a;" 
d="M89 750q-5 0 -5 5v37q0 5 5 5h196q5 0 5 -5v-37q0 -5 -5 -5h-196zM114 0q-4 0 -7 3l-49 49q-3 3 -3 7v636q0 5 5 5h50q5 0 5 -5v-612l23 -23h99l23 23v612q0 5 5 5h51q5 0 5 -5v-636q0 -4 -3 -7l-49 -49q-3 -3 -7 -3h-148z" />
    <glyph glyph-name="umacron" unicode="&#x16b;" 
d="M89 750q-5 0 -5 5v37q0 5 5 5h196q5 0 5 -5v-37q0 -5 -5 -5h-196zM114 0q-4 0 -7 3l-49 49q-3 3 -3 7v636q0 5 5 5h50q5 0 5 -5v-612l23 -23h99l23 23v612q0 5 5 5h51q5 0 5 -5v-636q0 -4 -3 -7l-49 -49q-3 -3 -7 -3h-148z" />
    <glyph glyph-name="Uring" unicode="&#x16e;" 
d="M150 751q-4 0 -7 3l-25 25q-3 3 -3 7v71q0 4 3 7l26 26q3 3 7 3h71q4 0 7 -3l26 -25q3 -3 3 -7v-72q0 -4 -3 -7l-25 -25q-3 -3 -7 -3h-73zM155 790h63v63h-63v-63zM114 0q-4 0 -7 3l-49 49q-3 3 -3 7v636q0 5 5 5h50q5 0 5 -5v-612l23 -23h99l23 23v612q0 5 5 5h51
q5 0 5 -5v-636q0 -4 -3 -7l-49 -49q-3 -3 -7 -3h-148z" />
    <glyph glyph-name="uring" unicode="&#x16f;" 
d="M150 751q-4 0 -7 3l-25 25q-3 3 -3 7v71q0 4 3 7l26 26q3 3 7 3h71q4 0 7 -3l26 -25q3 -3 3 -7v-72q0 -4 -3 -7l-25 -25q-3 -3 -7 -3h-73zM155 790h63v63h-63v-63zM114 0q-4 0 -7 3l-49 49q-3 3 -3 7v636q0 5 5 5h50q5 0 5 -5v-612l23 -23h99l23 23v612q0 5 5 5h51
q5 0 5 -5v-636q0 -4 -3 -7l-49 -49q-3 -3 -7 -3h-148z" />
    <glyph glyph-name="Uhungarumlaut" unicode="&#x170;" 
d="M102 751q-6 0 -4 6l25 66q2 4 5 4h52q7 0 3 -6l-48 -67q-1 -3 -6 -3h-27zM192 751q-6 0 -4 6l25 66q2 4 5 4h52q7 0 3 -6l-48 -67q-1 -3 -6 -3h-27zM114 0q-4 0 -7 3l-49 49q-3 3 -3 7v636q0 5 5 5h50q5 0 5 -5v-612l23 -23h99l23 23v612q0 5 5 5h51q5 0 5 -5v-636
q0 -4 -3 -7l-49 -49q-3 -3 -7 -3h-148z" />
    <glyph glyph-name="uhungarumlaut" unicode="&#x171;" 
d="M102 751q-6 0 -4 6l25 66q2 4 5 4h52q7 0 3 -6l-48 -67q-1 -3 -6 -3h-27zM192 751q-6 0 -4 6l25 66q2 4 5 4h52q7 0 3 -6l-48 -67q-1 -3 -6 -3h-27zM114 0q-4 0 -7 3l-49 49q-3 3 -3 7v636q0 5 5 5h50q5 0 5 -5v-612l23 -23h99l23 23v612q0 5 5 5h51q5 0 5 -5v-636
q0 -4 -3 -7l-49 -49q-3 -3 -7 -3h-148z" />
    <glyph glyph-name="Uogonek" unicode="&#x172;" 
d="M56 52q-3 3 -3 7v636q0 5 5 5h50q5 0 5 -5v-612l23 -23h99l23 23v612q0 5 5 5h51q5 0 5 -5v-636q0 -5 -3 -6l-129 -112v-45l15 -16h51l14 16v17q0 5 5 5h35q5 0 5 -5v-26q0 -2 -2 -6l-37 -44q-1 -3 -6 -3h-79q-4 0 -7 3l-36 37q-3 3 -3 7v73q0 4 3 6l47 40h-80q-4 0 -7 3
z" />
    <glyph glyph-name="uogonek" unicode="&#x173;" 
d="M56 52q-3 3 -3 7v636q0 5 5 5h50q5 0 5 -5v-612l23 -23h99l23 23v612q0 5 5 5h51q5 0 5 -5v-636q0 -5 -3 -6l-129 -112v-45l15 -16h51l14 16v17q0 5 5 5h35q5 0 5 -5v-26q0 -2 -2 -6l-37 -44q-1 -3 -6 -3h-79q-4 0 -7 3l-36 37q-3 3 -3 7v73q0 4 3 6l47 40h-80q-4 0 -7 3
z" />
    <glyph glyph-name="Wcircumflex" unicode="&#x174;" horiz-adv-x="502" 
d="M162 751q-8 0 -3 6l60 70q1 3 6 3h54q5 0 6 -3l60 -70q5 -6 -3 -6h-51q-5 0 -6 3l-33 39l-33 -39q-1 -3 -6 -3h-51zM110 -1q-6 0 -6 5l-74 690q0 5 4 5h55q5 0 5 -5l45 -498h8l70 498q0 5 6 5h56q6 0 6 -5l73 -498h8l42 498q0 5 5 5h55q4 0 4 -5l-73 -690q0 -5 -6 -5h-56
q-6 0 -6 5l-76 493h-8l-76 -493q0 -5 -6 -5h-55z" />
    <glyph glyph-name="wcircumflex" unicode="&#x175;" horiz-adv-x="502" 
d="M162 751q-8 0 -3 6l60 70q1 3 6 3h54q5 0 6 -3l60 -70q5 -6 -3 -6h-51q-5 0 -6 3l-33 39l-33 -39q-1 -3 -6 -3h-51zM110 -1q-6 0 -6 5l-74 690q0 5 4 5h55q5 0 5 -5l45 -498h8l70 498q0 5 6 5h56q6 0 6 -5l73 -498h8l42 498q0 5 5 5h55q4 0 4 -5l-73 -690q0 -5 -6 -5h-56
q-6 0 -6 5l-76 493h-8l-76 -493q0 -5 -6 -5h-55z" />
    <glyph glyph-name="Ycircumflex" unicode="&#x176;" horiz-adv-x="314" 
d="M69 751q-7 0 -3 6l60 70q2 3 6 3h54q4 0 6 -3l60 -70q4 -6 -3 -6h-51q-4 0 -6 3l-33 39l-33 -39q-2 -3 -6 -3h-51zM127 259l-102 435q-1 6 5 6h54q5 0 6 -4l64 -323h8l62 323q1 4 6 4h54q6 0 5 -6l-102 -436v-253q0 -5 -5 -5h-50q-5 0 -5 5v254z" />
    <glyph glyph-name="ycircumflex" unicode="&#x177;" horiz-adv-x="314" 
d="M69 751q-7 0 -3 6l60 70q2 3 6 3h54q4 0 6 -3l60 -70q4 -6 -3 -6h-51q-4 0 -6 3l-33 39l-33 -39q-2 -3 -6 -3h-51zM127 259l-102 435q-1 6 5 6h54q5 0 6 -4l64 -323h8l62 323q1 4 6 4h54q6 0 5 -6l-102 -436v-253q0 -5 -5 -5h-50q-5 0 -5 5v254z" />
    <glyph glyph-name="Ydieresis" unicode="&#x178;" horiz-adv-x="314" 
d="M68 750q-5 0 -5 5v55q0 5 5 5h55q5 0 5 -5v-55q0 -5 -5 -5h-55zM194 750q-5 0 -5 5v55q0 5 5 5h55q5 0 5 -5v-55q0 -5 -5 -5h-55zM127 259l-102 435q-1 6 5 6h54q5 0 6 -4l64 -323h8l62 323q1 4 6 4h54q6 0 5 -6l-102 -436v-253q0 -5 -5 -5h-50q-5 0 -5 5v254z" />
    <glyph glyph-name="Zacute" unicode="&#x179;" horiz-adv-x="384" 
d="M185 750q-5 0 -4 6l25 66q2 4 5 4h52q7 0 3 -6l-48 -67q-2 -3 -6 -3h-27zM55 57q0 3 1 6l208 567v10h-204q-5 0 -5 5v50q0 5 5 5h265q5 0 5 -5v-52q0 -3 -1 -6l-210 -567v-10h206q5 0 5 -5v-50q0 -5 -5 -5h-265q-5 0 -5 5v52z" />
    <glyph glyph-name="zacute" unicode="&#x17a;" horiz-adv-x="384" 
d="M185 750q-5 0 -4 6l25 66q2 4 5 4h52q7 0 3 -6l-48 -67q-2 -3 -6 -3h-27zM55 57q0 3 1 6l208 567v10h-204q-5 0 -5 5v50q0 5 5 5h265q5 0 5 -5v-52q0 -3 -1 -6l-210 -567v-10h206q5 0 5 -5v-50q0 -5 -5 -5h-265q-5 0 -5 5v52z" />
    <glyph glyph-name="Zdotaccent" unicode="&#x17b;" horiz-adv-x="384" 
d="M157 774q-5 0 -5 5v65q0 5 5 5h65q5 0 5 -5v-65q0 -5 -5 -5h-65zM55 57q0 3 1 6l208 567v10h-204q-5 0 -5 5v50q0 5 5 5h265q5 0 5 -5v-52q0 -3 -1 -6l-210 -567v-10h206q5 0 5 -5v-50q0 -5 -5 -5h-265q-5 0 -5 5v52z" />
    <glyph glyph-name="zdotaccent" unicode="&#x17c;" horiz-adv-x="384" 
d="M157 774q-5 0 -5 5v65q0 5 5 5h65q5 0 5 -5v-65q0 -5 -5 -5h-65zM55 57q0 3 1 6l208 567v10h-204q-5 0 -5 5v50q0 5 5 5h265q5 0 5 -5v-52q0 -3 -1 -6l-210 -567v-10h206q5 0 5 -5v-50q0 -5 -5 -5h-265q-5 0 -5 5v52z" />
    <glyph glyph-name="Zcaron" unicode="&#x17d;" horiz-adv-x="384" 
d="M165 749q-5 0 -6 3l-60 70q-5 6 3 6h51q5 0 6 -3l33 -39l33 39q1 3 6 3h51q8 0 3 -6l-60 -70q-1 -3 -6 -3h-54zM55 57q0 3 1 6l208 567v10h-204q-5 0 -5 5v50q0 5 5 5h265q5 0 5 -5v-52q0 -3 -1 -6l-210 -567v-10h206q5 0 5 -5v-50q0 -5 -5 -5h-265q-5 0 -5 5v52z" />
    <glyph glyph-name="zcaron" unicode="&#x17e;" horiz-adv-x="384" 
d="M165 749q-5 0 -6 3l-60 70q-5 6 3 6h51q5 0 6 -3l33 -39l33 39q1 3 6 3h51q8 0 3 -6l-60 -70q-1 -3 -6 -3h-54zM55 57q0 3 1 6l208 567v10h-204q-5 0 -5 5v50q0 5 5 5h265q5 0 5 -5v-52q0 -3 -1 -6l-210 -567v-10h206q5 0 5 -5v-50q0 -5 -5 -5h-265q-5 0 -5 5v52z" />
    <glyph glyph-name="uni0218" unicode="&#x218;" 
d="M114 0q-4 0 -7 3l-49 49q-3 3 -3 7v168q0 5 5 5h50q5 0 5 -5v-144l23 -23h99l23 23v234l-23 23h-123q-4 0 -7 3l-49 49q-3 3 -3 7v242q0 4 3 7l49 49q3 3 7 3h148q4 0 7 -3l49 -49q3 -3 3 -7v-144q0 -5 -5 -5h-51q-5 0 -5 5v120l-23 23h-99l-23 -23v-194l23 -23h124
q4 0 7 -3l49 -49q3 -3 3 -7v-282q0 -4 -3 -7l-49 -49q-3 -3 -7 -3h-148zM164 -181q-5 0 -5 5v120q0 5 5 5h51q5 0 5 -5v-52q0 -3 -1 -6l-25 -63q-2 -4 -6 -4h-24z" />
    <glyph glyph-name="uni0219" unicode="&#x219;" 
d="M114 0q-4 0 -7 3l-49 49q-3 3 -3 7v168q0 5 5 5h50q5 0 5 -5v-144l23 -23h99l23 23v234l-23 23h-123q-4 0 -7 3l-49 49q-3 3 -3 7v242q0 4 3 7l49 49q3 3 7 3h148q4 0 7 -3l49 -49q3 -3 3 -7v-144q0 -5 -5 -5h-51q-5 0 -5 5v120l-23 23h-99l-23 -23v-194l23 -23h124
q4 0 7 -3l49 -49q3 -3 3 -7v-282q0 -4 -3 -7l-49 -49q-3 -3 -7 -3h-148zM164 -181q-5 0 -5 5v120q0 5 5 5h51q5 0 5 -5v-52q0 -3 -1 -6l-25 -63q-2 -4 -6 -4h-24z" />
    <glyph glyph-name="uni021A" unicode="&#x21a;" horiz-adv-x="334" 
d="M142 0q-5 0 -5 5v635h-102q-5 0 -5 5v50q0 5 5 5h265q5 0 5 -5v-50q0 -5 -5 -5h-103v-635q0 -5 -5 -5h-50zM140 -181q-5 0 -5 5v120q0 5 5 5h51q5 0 5 -5v-52q0 -3 -1 -6l-25 -63q-2 -4 -6 -4h-24z" />
    <glyph glyph-name="uni021B" unicode="&#x21b;" horiz-adv-x="334" 
d="M142 0q-5 0 -5 5v635h-102q-5 0 -5 5v50q0 5 5 5h265q5 0 5 -5v-50q0 -5 -5 -5h-103v-635q0 -5 -5 -5h-50zM140 -181q-5 0 -5 5v120q0 5 5 5h51q5 0 5 -5v-52q0 -3 -1 -6l-25 -63q-2 -4 -6 -4h-24z" />
    <glyph glyph-name="circumflex" unicode="&#x2c6;" horiz-adv-x="306" 
d="M39 631q-7 0 -3 6l60 70q2 3 6 3h54q4 0 6 -3l60 -70q4 -6 -3 -6h-51q-4 0 -6 3l-33 39l-33 -39q-2 -3 -6 -3h-51z" />
    <glyph glyph-name="caron" unicode="&#x2c7;" horiz-adv-x="306" 
d="M126 631q-4 0 -6 3l-60 70q-4 6 3 6h51q4 0 6 -3l33 -39l33 39q2 3 6 3h51q7 0 3 -6l-60 -70q-2 -3 -6 -3h-54z" />
    <glyph glyph-name="uni02C9" unicode="&#x2c9;" horiz-adv-x="387" 
d="M85 670q-5 0 -5 5v40q0 5 5 5h217q5 0 5 -5v-40q0 -5 -5 -5h-217z" />
    <glyph glyph-name="breve" unicode="&#x2d8;" horiz-adv-x="242" 
d="M77 631q-4 0 -7 3l-47 48q-3 3 -3 7v34q0 5 5 5h39q5 0 5 -5v-10l34 -33h36l31 33v10q0 5 5 5h42q5 0 5 -5v-34q0 -4 -3 -7l-49 -48q-3 -3 -7 -3h-86z" />
    <glyph glyph-name="dotaccent" unicode="&#x2d9;" horiz-adv-x="175" 
d="M55 655q-5 0 -5 5v65q0 5 5 5h65q5 0 5 -5v-65q0 -5 -5 -5h-65z" />
    <glyph glyph-name="ring" unicode="&#x2da;" horiz-adv-x="253" 
d="M85 558q-4 0 -7 3l-25 25q-3 3 -3 7v71q0 4 3 7l26 26q3 3 7 3h71q4 0 7 -3l26 -25q3 -3 3 -7v-72q0 -4 -3 -7l-25 -25q-3 -3 -7 -3h-73zM90 597h63v63h-63v-63z" />
    <glyph glyph-name="ogonek" unicode="&#x2db;" horiz-adv-x="270" 
d="M74 -166q-4 0 -7 3l-36 37q-3 3 -3 7v73q0 3 3 6l57 40v8q0 5 5 5h52q5 0 5 -5v-4q0 -4 -3 -6l-74 -57v-45l15 -16h51l14 16v17q0 5 5 5h35q5 0 5 -5v-26q0 -2 -2 -6l-37 -44q-1 -3 -6 -3h-79z" />
    <glyph glyph-name="tilde" unicode="&#x2dc;" horiz-adv-x="398" 
d="M121 631q-5 0 -5 5v38q0 4 3 6l39 35q4 2 7 2h36q3 0 7 -2l43 -37h38v34q0 5 5 5h39q5 0 5 -5v-38q0 -4 -3 -6l-39 -35q-4 -2 -7 -2h-37q-3 0 -7 2l-43 37h-37v-34q0 -5 -5 -5h-39z" />
    <glyph glyph-name="hungarumlaut" unicode="&#x2dd;" horiz-adv-x="291" 
d="M66 632q-6 0 -4 6l25 66q2 4 5 4h52q7 0 3 -6l-48 -67q-1 -3 -6 -3h-27zM156 632q-6 0 -4 6l25 66q2 4 5 4h52q7 0 3 -6l-48 -67q-1 -3 -6 -3h-27z" />
    <glyph glyph-name="gravecomb" unicode="&#x300;" horiz-adv-x="0" 
d="M-118 631q-4 0 -6 3l-46 68q-4 6 3 6h52q3 0 5 -4l23 -67q1 -6 -4 -6h-27z" />
    <glyph glyph-name="acutecomb" unicode="&#x301;" horiz-adv-x="0" 
d="M-140 631q-6 0 -4 6l25 66q2 4 5 4h52q7 0 3 -6l-48 -67q-1 -3 -6 -3h-27z" />
    <glyph glyph-name="uni0302" unicode="&#x302;" horiz-adv-x="0" 
d="M-243 631q-7 0 -3 6l60 70q2 3 6 3h54q4 0 6 -3l60 -70q4 -6 -3 -6h-51q-4 0 -6 3l-33 39l-33 -39q-2 -3 -6 -3h-51z" />
    <glyph glyph-name="tildecomb" unicode="&#x303;" horiz-adv-x="0" 
d="M-298 631q-5 0 -5 5v38q0 4 3 6l39 35q4 2 7 2h36q3 0 7 -2l43 -37h38v34q0 5 5 5h39q5 0 5 -5v-38q0 -4 -3 -6l-39 -35q-4 -2 -7 -2h-37q-3 0 -7 2l-43 37h-37v-34q0 -5 -5 -5h-39z" />
    <glyph glyph-name="uni0304" unicode="&#x304;" horiz-adv-x="0" 
d="M-256 631q-5 0 -5 5v37q0 5 5 5h196q5 0 5 -5v-37q0 -5 -5 -5h-196z" />
    <glyph glyph-name="uni0306" unicode="&#x306;" horiz-adv-x="0" 
d="M-222 631q-4 0 -7 3l-47 48q-3 3 -3 7v34q0 5 5 5h39q5 0 5 -5v-10l34 -33h36l31 33v10q0 5 5 5h42q5 0 5 -5v-34q0 -4 -3 -7l-49 -48q-3 -3 -7 -3h-86z" />
    <glyph glyph-name="uni0307" unicode="&#x307;" horiz-adv-x="0" 
d="M-120 655q-5 0 -5 5v65q0 5 5 5h65q5 0 5 -5v-65q0 -5 -5 -5h-65z" />
    <glyph glyph-name="uni0308" unicode="&#x308;" horiz-adv-x="0" 
d="M-241 631q-5 0 -5 5v55q0 5 5 5h55q5 0 5 -5v-55q0 -5 -5 -5h-55zM-115 631q-5 0 -5 5v55q0 5 5 5h55q5 0 5 -5v-55q0 -5 -5 -5h-55z" />
    <glyph glyph-name="uni030A" unicode="&#x30a;" horiz-adv-x="0" 
d="M-163 558q-4 0 -7 3l-25 25q-3 3 -3 7v71q0 4 3 7l26 26q3 3 7 3h71q4 0 7 -3l26 -25q3 -3 3 -7v-72q0 -4 -3 -7l-25 -25q-3 -3 -7 -3h-73zM-158 597h63v63h-63v-63z" />
    <glyph glyph-name="uni030B" unicode="&#x30b;" horiz-adv-x="0" 
d="M-230 632q-6 0 -4 6l25 66q2 4 5 4h52q7 0 3 -6l-48 -67q-1 -3 -6 -3h-27zM-140 632q-6 0 -4 6l25 66q2 4 5 4h52q7 0 3 -6l-48 -67q-1 -3 -6 -3h-27z" />
    <glyph glyph-name="uni030C" unicode="&#x30c;" horiz-adv-x="0" 
d="M-180 631q-4 0 -6 3l-60 70q-4 6 3 6h51q4 0 6 -3l33 -39l33 39q2 3 6 3h51q7 0 3 -6l-60 -70q-2 -3 -6 -3h-54z" />
    <glyph glyph-name="uni0312" unicode="&#x312;" horiz-adv-x="0" 
d="M-59 782q5 0 5 -5v-120q0 -5 -5 -5h-51q-5 0 -5 5v52q0 3 1 6l25 63q2 4 6 4h24z" />
    <glyph glyph-name="uni0326" unicode="&#x326;" horiz-adv-x="0" 
d="M-82 -151q-5 0 -5 5v120q0 5 5 5h51q5 0 5 -5v-52q0 -3 -1 -6l-25 -63q-2 -4 -6 -4h-24z" />
    <glyph glyph-name="uni0327" unicode="&#x327;" horiz-adv-x="0" 
d="M-187 -192q-5 0 -5 5v35q0 5 5 5h58l32 24v31l-32 22h-60q-5 0 -5 5v70q0 5 5 5h33q5 0 5 -5v-33h44q4 0 6 -2l43 -33q3 -1 3 -6v-75q0 -4 -3 -6l-45 -40q-4 -2 -7 -2h-77z" />
    <glyph glyph-name="uni0328" unicode="&#x328;" horiz-adv-x="0" 
d="M-179 -166q-4 0 -7 3l-36 37q-3 3 -3 7v73q0 3 3 6l57 40v8q0 5 5 5h52q5 0 5 -5v-4q0 -4 -3 -6l-74 -57v-45l15 -16h51l14 16v17q0 5 5 5h35q5 0 5 -5v-26q0 -2 -2 -6l-37 -44q-2 -3 -6 -3h-79z" />
    <glyph glyph-name="Wgrave" unicode="&#x1e80;" horiz-adv-x="502" 
d="M233 751q-5 0 -6 3l-46 68q-4 6 3 6h52q3 0 5 -4l23 -67q2 -6 -4 -6h-27zM110 -1q-6 0 -6 5l-74 690q0 5 4 5h55q5 0 5 -5l45 -498h8l70 498q0 5 6 5h56q6 0 6 -5l73 -498h8l42 498q0 5 5 5h55q4 0 4 -5l-73 -690q0 -5 -6 -5h-56q-6 0 -6 5l-76 493h-8l-76 -493
q0 -5 -6 -5h-55z" />
    <glyph glyph-name="wgrave" unicode="&#x1e81;" horiz-adv-x="502" 
d="M233 751q-5 0 -6 3l-46 68q-4 6 3 6h52q3 0 5 -4l23 -67q2 -6 -4 -6h-27zM110 -1q-6 0 -6 5l-74 690q0 5 4 5h55q5 0 5 -5l45 -498h8l70 498q0 5 6 5h56q6 0 6 -5l73 -498h8l42 498q0 5 5 5h55q4 0 4 -5l-73 -690q0 -5 -6 -5h-56q-6 0 -6 5l-76 493h-8l-76 -493
q0 -5 -6 -5h-55z" />
    <glyph glyph-name="Wacute" unicode="&#x1e82;" horiz-adv-x="502" 
d="M245 751q-5 0 -4 6l25 66q2 4 5 4h52q7 0 3 -6l-48 -67q-2 -3 -6 -3h-27zM110 -1q-6 0 -6 5l-74 690q0 5 4 5h55q5 0 5 -5l45 -498h8l70 498q0 5 6 5h56q6 0 6 -5l73 -498h8l42 498q0 5 5 5h55q4 0 4 -5l-73 -690q0 -5 -6 -5h-56q-6 0 -6 5l-76 493h-8l-76 -493
q0 -5 -6 -5h-55z" />
    <glyph glyph-name="wacute" unicode="&#x1e83;" horiz-adv-x="502" 
d="M245 751q-5 0 -4 6l25 66q2 4 5 4h52q7 0 3 -6l-48 -67q-2 -3 -6 -3h-27zM110 -1q-6 0 -6 5l-74 690q0 5 4 5h55q5 0 5 -5l45 -498h8l70 498q0 5 6 5h56q6 0 6 -5l73 -498h8l42 498q0 5 5 5h55q4 0 4 -5l-73 -690q0 -5 -6 -5h-56q-6 0 -6 5l-76 493h-8l-76 -493
q0 -5 -6 -5h-55z" />
    <glyph glyph-name="Wdieresis" unicode="&#x1e84;" horiz-adv-x="502" 
d="M161 750q-5 0 -5 5v55q0 5 5 5h55q5 0 5 -5v-55q0 -5 -5 -5h-55zM287 750q-5 0 -5 5v55q0 5 5 5h55q5 0 5 -5v-55q0 -5 -5 -5h-55zM110 -1q-6 0 -6 5l-74 690q0 5 4 5h55q5 0 5 -5l45 -498h8l70 498q0 5 6 5h56q6 0 6 -5l73 -498h8l42 498q0 5 5 5h55q4 0 4 -5l-73 -690
q0 -5 -6 -5h-56q-6 0 -6 5l-76 493h-8l-76 -493q0 -5 -6 -5h-55z" />
    <glyph glyph-name="wdieresis" unicode="&#x1e85;" horiz-adv-x="502" 
d="M161 750q-5 0 -5 5v55q0 5 5 5h55q5 0 5 -5v-55q0 -5 -5 -5h-55zM287 750q-5 0 -5 5v55q0 5 5 5h55q5 0 5 -5v-55q0 -5 -5 -5h-55zM110 -1q-6 0 -6 5l-74 690q0 5 4 5h55q5 0 5 -5l45 -498h8l70 498q0 5 6 5h56q6 0 6 -5l73 -498h8l42 498q0 5 5 5h55q4 0 4 -5l-73 -690
q0 -5 -6 -5h-56q-6 0 -6 5l-76 493h-8l-76 -493q0 -5 -6 -5h-55z" />
    <glyph glyph-name="uni1E9E" unicode="&#x1e9e;" horiz-adv-x="401" 
d="M60 -49q-5 0 -5 5v686q0 4 3 7l49 49q3 3 7 3h178q4 0 7 -3l49 -49q3 -3 3 -7v-231q0 -4 -3 -7l-33 -32l33 -33q3 -3 3 -7v-273q0 -4 -3 -7l-49 -49q-3 -3 -7 -3h-119q-5 0 -5 5v50q0 5 5 5h94l23 23v236l-23 23h-152v-386q0 -5 -5 -5h-50zM115 402h152l23 23v193l-23 23
h-129l-23 -23v-216z" />
    <glyph glyph-name="Ygrave" unicode="&#x1ef2;" horiz-adv-x="314" 
d="M140 751q-4 0 -6 3l-46 68q-4 6 3 6h52q3 0 5 -4l23 -67q1 -6 -4 -6h-27zM127 259l-102 435q-1 6 5 6h54q5 0 6 -4l64 -323h8l62 323q1 4 6 4h54q6 0 5 -6l-102 -436v-253q0 -5 -5 -5h-50q-5 0 -5 5v254z" />
    <glyph glyph-name="ygrave" unicode="&#x1ef3;" horiz-adv-x="314" 
d="M140 751q-4 0 -6 3l-46 68q-4 6 3 6h52q3 0 5 -4l23 -67q1 -6 -4 -6h-27zM127 259l-102 435q-1 6 5 6h54q5 0 6 -4l64 -323h8l62 323q1 4 6 4h54q6 0 5 -6l-102 -436v-253q0 -5 -5 -5h-50q-5 0 -5 5v254z" />
    <glyph glyph-name="endash" unicode="&#x2013;" horiz-adv-x="269" 
d="M65 320q-5 0 -5 5v50q0 5 5 5h140q5 0 5 -5v-50q0 -5 -5 -5h-140z" />
    <glyph glyph-name="emdash" unicode="&#x2014;" horiz-adv-x="327" 
d="M65 320q-5 0 -5 5v50q0 5 5 5h197q5 0 5 -5v-50q0 -5 -5 -5h-197z" />
    <glyph glyph-name="quoteleft" unicode="&#x2018;" horiz-adv-x="181" 
d="M116 700q5 0 5 -5v-120q0 -5 -5 -5h-51q-5 0 -5 5v52q0 3 1 6l25 63q2 4 6 4h24z" />
    <glyph glyph-name="quoteright" unicode="&#x2019;" horiz-adv-x="181" 
d="M65 570q-5 0 -5 5v120q0 5 5 5h51q5 0 5 -5v-52q0 -3 -1 -6l-25 -63q-2 -4 -6 -4h-24z" />
    <glyph glyph-name="quotesinglbase" unicode="&#x201a;" horiz-adv-x="181" 
d="M65 -70q-5 0 -5 5v120q0 5 5 5h51q5 0 5 -5v-52q0 -3 -1 -6l-25 -63q-2 -4 -6 -4h-24z" />
    <glyph glyph-name="quotedblleft" unicode="&#x201c;" horiz-adv-x="266" 
d="M116 700q5 0 5 -5v-120q0 -5 -5 -5h-51q-5 0 -5 5v52q0 3 1 6l25 63q2 4 6 4h24zM201 700q5 0 5 -5v-120q0 -5 -5 -5h-51q-5 0 -5 5v52q0 3 1 6l25 63q2 4 6 4h24z" />
    <glyph glyph-name="quotedblright" unicode="&#x201d;" horiz-adv-x="266" 
d="M65 570q-5 0 -5 5v120q0 5 5 5h51q5 0 5 -5v-52q0 -3 -1 -6l-25 -63q-2 -4 -6 -4h-24zM150 570q-5 0 -5 5v120q0 5 5 5h51q5 0 5 -5v-52q0 -3 -1 -6l-25 -63q-2 -4 -6 -4h-24z" />
    <glyph glyph-name="quotedblbase" unicode="&#x201e;" horiz-adv-x="266" 
d="M65 -70q-5 0 -5 5v120q0 5 5 5h51q5 0 5 -5v-52q0 -3 -1 -6l-25 -63q-2 -4 -6 -4h-24zM150 -70q-5 0 -5 5v120q0 5 5 5h51q5 0 5 -5v-52q0 -3 -1 -6l-25 -63q-2 -4 -6 -4h-24z" />
    <glyph glyph-name="dagger" unicode="&#x2020;" horiz-adv-x="284" 
d="M117 305q-5 0 -5 5v212h-82q-5 0 -5 5v50q0 5 5 5h82v113q0 5 5 5h50q5 0 5 -5v-113h83q5 0 5 -5v-50q0 -5 -5 -5h-83v-212q0 -5 -5 -5h-50z" />
    <glyph glyph-name="bullet" unicode="&#x2022;" horiz-adv-x="266" 
d="M105 234q-4 0 -7 3l-35 34q-3 3 -3 7v57q0 4 3 7l35 35q3 3 7 3h56q4 0 7 -3l35 -35q3 -3 3 -7v-57q0 -4 -3 -7l-33 -34q-3 -3 -7 -3h-58z" />
    <glyph glyph-name="guilsinglleft" unicode="&#x2039;" horiz-adv-x="267" 
d="M217 190q0 -9 -6 -3l-158 124q-3 1 -3 6v67q0 4 3 6l158 124q6 6 6 -3v-63q0 -4 -3 -6l-124 -92l124 -91q3 -1 3 -6v-63z" />
    <glyph glyph-name="guilsinglright" unicode="&#x203a;" horiz-adv-x="267" 
d="M56 187q-6 -6 -6 3v63q0 5 3 6l124 91l-124 92q-3 2 -3 6v63q0 9 6 3l158 -124q3 -2 3 -6v-67q0 -5 -3 -6z" />
    <glyph glyph-name="fraction" unicode="&#x2044;" horiz-adv-x="187" 
d="M-54 -38q-6 0 -4 6l250 766q2 4 5 4h44q5 0 4 -6l-250 -766q-2 -4 -5 -4h-44z" />
    <glyph glyph-name="uni2070" unicode="&#x2070;" horiz-adv-x="327" 
d="M96 200q-4 0 -7 3l-39 39q-3 3 -3 7v403q0 4 3 7l39 39q3 3 7 3h119q4 0 7 -3l38 -39q3 -3 3 -7v-403q0 -4 -3 -7l-38 -39q-3 -3 -7 -3h-119zM207 349v279l-16 16h-53zM119 257h58l-73 314v-298z" />
    <glyph glyph-name="uni2074" unicode="&#x2074;" horiz-adv-x="301" 
d="M171 200q-5 0 -5 5v168h-87q-4 0 -7 3l-39 39q-3 3 -3 7v274q0 5 5 5h47q5 0 5 -5v-251l16 -16h63v267q0 5 5 5h47q5 0 5 -5v-267h36q5 0 5 -5v-46q0 -5 -5 -5h-36v-168q0 -5 -5 -5h-47z" />
    <glyph glyph-name="uni2075" unicode="&#x2075;" horiz-adv-x="315" 
d="M100 200q-4 0 -7 3l-39 39q-3 3 -3 7v102q0 5 5 5h47q5 0 5 -5v-78l15 -16h72l16 16v151l-16 15h-95q-4 0 -7 3l-39 39q-3 3 -3 7v209q0 5 5 5h206q5 0 5 -5v-104q0 -5 -5 -5h-45q-5 0 -5 5v52h-104v-133l15 -16h96q4 0 7 -3l38 -39q3 -3 3 -7v-198q0 -4 -3 -7l-38 -39
q-3 -3 -7 -3h-119z" />
    <glyph glyph-name="uni2076" unicode="&#x2076;" horiz-adv-x="315" 
d="M100 200q-4 0 -7 3l-39 39q-3 3 -3 7v403q0 4 3 7l39 39q3 3 7 3h118q4 0 7 -3l39 -39q3 -3 3 -7v-94q0 -5 -5 -5h-46q-5 0 -5 5v70l-16 16h-72l-15 -16v-133h111q4 0 7 -3l38 -38q3 -3 3 -7v-198q0 -4 -3 -7l-38 -39q-3 -3 -7 -3h-119zM123 257h72l16 16v150l-16 16h-72
l-15 -16v-150z" />
    <glyph glyph-name="uni2077" unicode="&#x2077;" horiz-adv-x="295" 
d="M102 200q-6 0 -5 6l118 438h-102v-90q0 -5 -5 -5h-46q-5 0 -5 5v142q0 5 5 5h207q5 0 5 -5v-46q0 -1 -0.5 -3t-0.5 -3l-120 -440q-2 -4 -5 -4h-46z" />
    <glyph glyph-name="uni2078" unicode="&#x2078;" horiz-adv-x="312" 
d="M97 200q-4 0 -7 3l-39 39q-3 3 -3 7v182q0 3 2 7l24 25l-24 24q-2 4 -2 7v158q0 4 3 7l39 39q3 3 7 3h119q4 0 7 -3l38 -39q3 -3 3 -7v-161q0 -4 -3 -7l-21 -21l22 -22q2 -4 2 -7v-185q0 -4 -3 -7l-38 -39q-3 -3 -7 -3h-119zM122 491h71l16 17v120l-16 16h-73l-13 -14
v-122zM120 257h73l16 16v146l-16 16h-71l-15 -16v-148z" />
    <glyph glyph-name="uni2079" unicode="&#x2079;" horiz-adv-x="315" 
d="M215 700q4 0 7 -3l39 -39q3 -3 3 -7v-403q0 -4 -3 -7l-39 -39q-3 -3 -7 -3h-118q-4 0 -7 3l-39 39q-3 3 -3 7v94q0 5 5 5h46q5 0 5 -5v-70l16 -16h72l15 16v133h-111q-4 0 -7 3l-38 38q-3 3 -3 7v198q0 4 3 7l38 39q3 3 7 3h119zM192 643h-72l-16 -16v-150l16 -16h72
l15 16v150z" />
    <glyph glyph-name="uni2080" unicode="&#x2080;" horiz-adv-x="327" 
d="M96 -100q-4 0 -7 3l-39 39q-3 3 -3 7v403q0 4 3 7l39 39q3 3 7 3h119q4 0 7 -3l38 -39q3 -3 3 -7v-403q0 -4 -3 -7l-38 -39q-3 -3 -7 -3h-119zM207 49v279l-16 16h-53zM119 -43h58l-73 314v-298z" />
    <glyph glyph-name="uni2081" unicode="&#x2081;" horiz-adv-x="252" 
d="M51 -100q-5 0 -5 5v47q0 5 5 5h54v387h-28q-5 0 -5 5v47q0 5 5 5h79q5 0 5 -5v-439h55q5 0 5 -5v-47q0 -5 -5 -5h-165z" />
    <glyph glyph-name="uni2082" unicode="&#x2082;" horiz-adv-x="326" 
d="M56 -100q-5 0 -5 5v224q0 4 3 7l39 39q3 3 7 3h95l16 16v134l-16 16h-72l-15 -16v-78q0 -5 -5 -5h-47q-5 0 -5 5v102q0 4 3 7l39 39q3 3 7 3h119q4 0 7 -3l38 -39q3 -3 3 -7v-181q0 -4 -3 -7l-38 -39q-3 -3 -7 -3h-96l-15 -16v-149h111v76q0 5 5 5h46q5 0 5 -5v-128
q0 -5 -5 -5h-214z" />
    <glyph glyph-name="uni2083" unicode="&#x2083;" horiz-adv-x="308" 
d="M93 -100q-4 0 -7 3l-39 39q-3 3 -3 7v102q0 5 5 5h47q5 0 5 -5v-78l15 -16h71l17 16v146l-17 15h-81q-5 0 -5 5v47q0 5 5 5h81l17 16v121l-17 16h-71l-15 -16v-78q0 -5 -5 -5h-47q-5 0 -5 5v102q0 4 3 7l39 39q3 3 7 3h118q4 0 7 -3l39 -39q3 -3 3 -7v-162q0 -4 -3 -6
l-22 -21l23 -23q2 -4 2 -7v-184q0 -4 -3 -7l-39 -39q-3 -3 -7 -3h-118z" />
    <glyph glyph-name="uni2084" unicode="&#x2084;" horiz-adv-x="301" 
d="M171 -100q-5 0 -5 5v168h-87q-4 0 -7 3l-39 39q-3 3 -3 7v274q0 5 5 5h47q5 0 5 -5v-251l16 -16h63v267q0 5 5 5h47q5 0 5 -5v-267h36q5 0 5 -5v-46q0 -5 -5 -5h-36v-168q0 -5 -5 -5h-47z" />
    <glyph glyph-name="uni2085" unicode="&#x2085;" horiz-adv-x="315" 
d="M100 -100q-4 0 -7 3l-39 39q-3 3 -3 7v102q0 5 5 5h47q5 0 5 -5v-78l15 -16h72l16 16v151l-16 15h-95q-4 0 -7 3l-39 39q-3 3 -3 7v209q0 5 5 5h206q5 0 5 -5v-104q0 -5 -5 -5h-45q-5 0 -5 5v52h-104v-133l15 -16h96q4 0 7 -3l38 -39q3 -3 3 -7v-198q0 -4 -3 -7l-38 -39
q-3 -3 -7 -3h-119z" />
    <glyph glyph-name="uni2086" unicode="&#x2086;" horiz-adv-x="315" 
d="M100 -100q-4 0 -7 3l-39 39q-3 3 -3 7v403q0 4 3 7l39 39q3 3 7 3h118q4 0 7 -3l39 -39q3 -3 3 -7v-94q0 -5 -5 -5h-46q-5 0 -5 5v70l-16 16h-72l-15 -16v-133h111q4 0 7 -3l38 -38q3 -3 3 -7v-198q0 -4 -3 -7l-38 -39q-3 -3 -7 -3h-119zM123 -43h72l16 16v150l-16 16
h-72l-15 -16v-150z" />
    <glyph glyph-name="uni2087" unicode="&#x2087;" horiz-adv-x="295" 
d="M102 -100q-6 0 -5 6l118 438h-102v-90q0 -5 -5 -5h-46q-5 0 -5 5v142q0 5 5 5h207q5 0 5 -5v-46q0 -1 -0.5 -3t-0.5 -3l-120 -440q-2 -4 -5 -4h-46z" />
    <glyph glyph-name="uni2088" unicode="&#x2088;" horiz-adv-x="312" 
d="M97 -100q-4 0 -7 3l-39 39q-3 3 -3 7v182q0 3 2 7l24 25l-24 24q-2 4 -2 7v158q0 4 3 7l39 39q3 3 7 3h119q4 0 7 -3l38 -39q3 -3 3 -7v-161q0 -4 -3 -7l-21 -21l22 -22q2 -4 2 -7v-185q0 -4 -3 -7l-38 -39q-3 -3 -7 -3h-119zM122 191h71l16 17v120l-16 16h-73l-13 -14
v-122zM120 -43h73l16 16v146l-16 16h-71l-15 -16v-148z" />
    <glyph glyph-name="uni2089" unicode="&#x2089;" horiz-adv-x="315" 
d="M215 400q4 0 7 -3l39 -39q3 -3 3 -7v-403q0 -4 -3 -7l-39 -39q-3 -3 -7 -3h-118q-4 0 -7 3l-39 39q-3 3 -3 7v94q0 5 5 5h46q5 0 5 -5v-70l16 -16h72l15 16v133h-111q-4 0 -7 3l-38 38q-3 3 -3 7v198q0 4 3 7l38 39q3 3 7 3h119zM192 343h-72l-16 -16v-150l16 -16h72
l15 16v150z" />
    <glyph glyph-name="Euro" unicode="&#x20ac;" horiz-adv-x="407" 
d="M150 0q-4 0 -7 3l-49 49q-3 3 -3 7v193h-31q-5 0 -5 5v50q0 5 5 5h31v79h-31q-5 0 -5 5v50q0 5 5 5h31v190q0 4 3 7l49 49q3 3 7 3h147q4 0 7 -3l50 -49q3 -3 3 -7v-117q0 -5 -5 -5h-51q-5 0 -5 5v93l-23 23h-99l-23 -23v-166h105q5 0 5 -5v-50q0 -5 -5 -5h-105v-79h105
q5 0 5 -5v-50q0 -5 -5 -5h-105v-169l23 -23h99l23 23v93q0 5 5 5h51q5 0 5 -5v-117q0 -4 -3 -7l-50 -49q-3 -3 -7 -3h-147z" />
    <glyph glyph-name="oneeighth" unicode="&#x215b;" horiz-adv-x="751" 
d="M198 -38q-6 0 -4 6l250 766q2 4 5 4h44q5 0 4 -6l-250 -766q-2 -4 -5 -4h-44zM51 200q-5 0 -5 5v47q0 5 5 5h54v387h-28q-5 0 -5 5v47q0 5 5 5h79q5 0 5 -5v-439h55q5 0 5 -5v-47q0 -5 -5 -5h-165zM536 0q-4 0 -7 3l-39 39q-3 3 -3 7v182q0 3 2 7l24 25l-24 24q-2 4 -2 7
v158q0 4 3 7l39 39q3 3 7 3h119q4 0 7 -3l38 -39q3 -3 3 -7v-161q0 -4 -3 -7l-21 -21l22 -22q2 -4 2 -7v-185q0 -4 -3 -7l-38 -39q-3 -3 -7 -3h-119zM561 291h71l16 17v120l-16 16h-73l-13 -14v-122zM559 57h73l16 16v146l-16 16h-71l-15 -16v-148z" />
    <glyph glyph-name="threeeighths" unicode="&#x215c;" horiz-adv-x="807" 
d="M254 -38q-6 0 -4 6l250 766q2 4 5 4h44q5 0 4 -6l-250 -766q-2 -4 -5 -4h-44zM93 200q-4 0 -7 3l-39 39q-3 3 -3 7v102q0 5 5 5h47q5 0 5 -5v-78l15 -16h71l17 16v146l-17 15h-81q-5 0 -5 5v47q0 5 5 5h81l17 16v121l-17 16h-71l-15 -16v-78q0 -5 -5 -5h-47q-5 0 -5 5
v102q0 4 3 7l39 39q3 3 7 3h118q4 0 7 -3l39 -39q3 -3 3 -7v-162q0 -4 -3 -6l-22 -21l23 -23q2 -4 2 -7v-184q0 -4 -3 -7l-39 -39q-3 -3 -7 -3h-118zM592 0q-4 0 -7 3l-39 39q-3 3 -3 7v182q0 3 2 7l24 25l-24 24q-2 4 -2 7v158q0 4 3 7l39 39q3 3 7 3h119q4 0 7 -3l38 -39
q3 -3 3 -7v-161q0 -4 -3 -7l-21 -21l22 -22q2 -4 2 -7v-185q0 -4 -3 -7l-38 -39q-3 -3 -7 -3h-119zM617 291h71l16 17v120l-16 16h-73l-13 -14v-122zM615 57h73l16 16v146l-16 16h-71l-15 -16v-148z" />
    <glyph glyph-name="fiveeighths" unicode="&#x215d;" horiz-adv-x="814" 
d="M261 -38q-5 0 -4 6l250 766q2 4 5 4h44q6 0 4 -6l-250 -766q-2 -4 -5 -4h-44zM100 200q-4 0 -7 3l-39 39q-3 3 -3 7v102q0 5 5 5h47q5 0 5 -5v-78l15 -16h72l16 16v151l-16 15h-95q-4 0 -7 3l-39 39q-3 3 -3 7v209q0 5 5 5h206q5 0 5 -5v-104q0 -5 -5 -5h-45q-5 0 -5 5
v52h-104v-133l15 -16h96q4 0 7 -3l38 -39q3 -3 3 -7v-198q0 -4 -3 -7l-38 -39q-3 -3 -7 -3h-119zM599 0q-4 0 -7 3l-39 39q-3 3 -3 7v182q0 3 2 7l24 25l-24 24q-2 4 -2 7v158q0 4 3 7l39 39q3 3 7 3h119q4 0 7 -3l38 -39q3 -3 3 -7v-161q0 -4 -3 -7l-21 -21l22 -22
q2 -4 2 -7v-185q0 -4 -3 -7l-38 -39q-3 -3 -7 -3h-119zM624 291h71l16 17v120l-16 16h-73l-13 -14v-122zM622 57h73l16 16v146l-16 16h-71l-15 -16v-148z" />
    <glyph glyph-name="seveneighths" unicode="&#x215e;" horiz-adv-x="794" 
d="M241 -38q-5 0 -4 6l250 766q2 4 5 4h44q6 0 4 -6l-250 -766q-2 -4 -5 -4h-44zM102 200q-6 0 -5 6l118 438h-102v-90q0 -5 -5 -5h-46q-5 0 -5 5v142q0 5 5 5h207q5 0 5 -5v-46q0 -1 -0.5 -3t-0.5 -3l-120 -440q-2 -4 -5 -4h-46zM579 0q-4 0 -7 3l-39 39q-3 3 -3 7v182
q0 3 2 7l24 25l-24 24q-2 4 -2 7v158q0 4 3 7l39 39q3 3 7 3h119q4 0 7 -3l38 -39q3 -3 3 -7v-161q0 -4 -3 -7l-21 -21l22 -22q2 -4 2 -7v-185q0 -4 -3 -7l-38 -39q-3 -3 -7 -3h-119zM604 291h71l16 17v120l-16 16h-73l-13 -14v-122zM602 57h73l16 16v146l-16 16h-71
l-15 -16v-148z" />
    <glyph glyph-name="minus" unicode="&#x2212;" horiz-adv-x="350" 
d="M65 320q-5 0 -5 5v50q0 5 5 5h220q5 0 5 -5v-50q0 -5 -5 -5h-220z" />
    <glyph glyph-name="NULL" horiz-adv-x="0" 
 />
    <glyph glyph-name="CR" horiz-adv-x="404" 
 />
    <glyph glyph-name="A.ss01" 
d="M57 0q-5 0 -5 5v636q0 4 3 7l49 49q3 3 7 3h148q4 0 7 -3l49 -49q3 -3 3 -7v-636q0 -5 -5 -5h-50q-5 0 -5 5v210h-145v-210q0 -5 -5 -5h-51zM113 275h145v342l-23 23h-99l-23 -23v-342z" />
    <glyph glyph-name="B.ss01" horiz-adv-x="375" 
d="M60 0q-5 0 -5 5v690q0 5 5 5h202q4 0 7 -3l49 -49q3 -3 3 -7v-210q0 -4 -3 -7l-36 -36l36 -36q3 -3 3 -7v-286q0 -4 -3 -7l-49 -49q-3 -3 -7 -3h-202zM115 360l116 60l29 30v167l-23 23h-122v-280zM115 60h122l23 23v248l-29 29l-116 -60v-240z" />
    <glyph glyph-name="E.ss01" horiz-adv-x="324" 
d="M114 0q-4 0 -7 3l-49 49q-3 3 -3 7v636q0 5 5 5h205q5 0 5 -5v-50q0 -5 -5 -5h-150v-260h106q5 0 5 -5v-50q0 -5 -5 -5h-106v-237l23 -23h136q5 0 4 -5l-8 -50q0 -5 -6 -5h-150z" />
    <glyph glyph-name="G.ss01" horiz-adv-x="374" 
d="M110 0q-4 0 -7 3l-49 49q-3 3 -3 7v582q0 4 3 7l49 49q3 3 7 3h158q4 0 7 -3l49 -49q3 -3 3 -7v-117q0 -5 -5 -5h-51q-5 0 -5 5v93l-23 23h-109l-23 -23v-534l23 -23h109l23 23v240h-84q-7 0 -4 6l25 50q2 4 6 4h113q5 0 5 -5v-319q0 -4 -3 -7l-49 -49q-3 -3 -7 -3h-158z
" />
    <glyph glyph-name="J.ss01" horiz-adv-x="293" 
d="M71 0q-4 0 -7 3l-49 49q-3 3 -3 7v192q0 3 3 6l51 34q6 4 6 -3v-205l23 -23h63l23 23v612q0 5 5 5h50q5 0 5 -5v-636q0 -4 -3 -7l-49 -49q-3 -3 -7 -3h-111z" />
    <glyph glyph-name="K.ss01" horiz-adv-x="356" 
d="M60 0q-5 0 -5 5v690q0 5 5 5h50q5 0 5 -5v-331l150 332q2 4 6 4h54q5 0 3 -6l-116 -251l117 -437q1 -6 -4 -6h-54q-4 0 -5 4l-90 361l-61 -131v-229q0 -5 -5 -5h-50z" />
    <glyph glyph-name="Q.ss01" horiz-adv-x="360" 
d="M318 648q3 -3 3 -7v-582q0 -4 -3 -7l-41 -41l39 -41q4 -4 0 -7l-36 -31q-4 -4 -7 1l-62 67h-97q-4 0 -7 3l-49 49q-3 3 -3 7v582q0 4 3 7l49 49q3 3 7 3h148q4 0 7 -3zM115 83l23 -23h99l23 23v534l-23 23h-99l-23 -23v-534z" />
    <glyph glyph-name="Y.ss01" 
d="M163 0q-5 0 -5 5v204h-44q-4 0 -7 3l-49 49q-3 3 -3 7v427q0 5 5 5h50q5 0 5 -5v-403l23 -23h99l23 23v403q0 5 5 5h51q5 0 5 -5v-427q0 -4 -3 -7l-49 -49q-3 -3 -7 -3h-44v-204q0 -5 -5 -5h-50z" />
    <glyph glyph-name="a.ss01" 
d="M57 0q-5 0 -5 5v636q0 4 3 7l49 49q3 3 7 3h148q4 0 7 -3l49 -49q3 -3 3 -7v-636q0 -5 -5 -5h-50q-5 0 -5 5v210h-145v-210q0 -5 -5 -5h-51zM113 275h145v342l-23 23h-99l-23 -23v-342z" />
    <glyph glyph-name="b.ss01" horiz-adv-x="375" 
d="M60 0q-5 0 -5 5v690q0 5 5 5h202q4 0 7 -3l49 -49q3 -3 3 -7v-210q0 -4 -3 -7l-36 -36l36 -36q3 -3 3 -7v-286q0 -4 -3 -7l-49 -49q-3 -3 -7 -3h-202zM115 360l116 60l29 30v167l-23 23h-122v-280zM115 60h122l23 23v248l-29 29l-116 -60v-240z" />
    <glyph glyph-name="e.ss01" horiz-adv-x="324" 
d="M114 0q-4 0 -7 3l-49 49q-3 3 -3 7v636q0 5 5 5h205q5 0 5 -5v-50q0 -5 -5 -5h-150v-260h106q5 0 5 -5v-50q0 -5 -5 -5h-106v-237l23 -23h136q5 0 4 -5l-8 -50q0 -5 -6 -5h-150z" />
    <glyph glyph-name="g.ss01" horiz-adv-x="374" 
d="M110 0q-4 0 -7 3l-49 49q-3 3 -3 7v582q0 4 3 7l49 49q3 3 7 3h158q4 0 7 -3l49 -49q3 -3 3 -7v-117q0 -5 -5 -5h-51q-5 0 -5 5v93l-23 23h-109l-23 -23v-534l23 -23h109l23 23v240h-84q-7 0 -4 6l25 50q2 4 6 4h113q5 0 5 -5v-319q0 -4 -3 -7l-49 -49q-3 -3 -7 -3h-158z
" />
    <glyph glyph-name="j.ss01" horiz-adv-x="293" 
d="M71 0q-4 0 -7 3l-49 49q-3 3 -3 7v192q0 3 3 6l51 34q6 4 6 -3v-205l23 -23h63l23 23v612q0 5 5 5h50q5 0 5 -5v-636q0 -4 -3 -7l-49 -49q-3 -3 -7 -3h-111z" />
    <glyph glyph-name="k.ss01" horiz-adv-x="356" 
d="M60 0q-5 0 -5 5v690q0 5 5 5h50q5 0 5 -5v-331l150 332q2 4 6 4h54q5 0 3 -6l-116 -251l117 -437q1 -6 -4 -6h-54q-4 0 -5 4l-90 361l-61 -131v-229q0 -5 -5 -5h-50z" />
    <glyph glyph-name="q.ss01" horiz-adv-x="360" 
d="M318 648q3 -3 3 -7v-582q0 -4 -3 -7l-41 -41l39 -41q4 -4 0 -7l-36 -31q-4 -4 -7 1l-62 67h-97q-4 0 -7 3l-49 49q-3 3 -3 7v582q0 4 3 7l49 49q3 3 7 3h148q4 0 7 -3zM115 83l23 -23h99l23 23v534l-23 23h-99l-23 -23v-534z" />
    <glyph glyph-name="y.ss01" 
d="M163 0q-5 0 -5 5v204h-44q-4 0 -7 3l-49 49q-3 3 -3 7v427q0 5 5 5h50q5 0 5 -5v-403l23 -23h99l23 23v403q0 5 5 5h51q5 0 5 -5v-427q0 -4 -3 -7l-49 -49q-3 -3 -7 -3h-44v-204q0 -5 -5 -5h-50z" />
    <glyph glyph-name="a.smcp" horiz-adv-x="300" 
d="M26 0q-6 0 -5 5l98 491q1 4 6 4h43q5 0 6 -4l99 -491q1 -5 -5 -5h-45q-6 0 -6 5l-23 130h-93l-23 -130q0 -5 -6 -5h-46zM112 193h72l-33 181h-7z" />
    <glyph glyph-name="b.smcp" horiz-adv-x="322" 
d="M52 0q-5 0 -5 5v490q0 5 5 5h168q4 0 7 -3l40 -40q3 -3 3 -7v-148q0 -4 -3 -7l-27 -27l27 -27q3 -3 3 -7v-185q0 -4 -3 -7l-40 -39q-3 -3 -7 -3h-168zM102 298h89l23 22v106l-19 19h-93v-147zM102 55h93l19 19v144l-23 23h-89v-186z" />
    <glyph glyph-name="c.smcp" horiz-adv-x="314" 
d="M94 0q-3 0 -7 2l-41 40q-3 3 -3 7v401q0 4 3 7l40 40q3 3 7 3h123q4 0 7 -3l40 -40q3 -3 3 -7v-82q0 -5 -5 -5h-46q-5 0 -5 5v57l-19 20h-74l-19 -20v-350l19 -20h74l19 20v70q0 5 5 5h46q5 0 5 -5v-96q0 -4 -3 -7l-40 -39q-3 -3 -7 -3h-122z" />
    <glyph glyph-name="d.smcp" horiz-adv-x="320" 
d="M52 0q-5 0 -5 5v490q0 5 5 5h168q4 0 7 -3l40 -40q3 -3 3 -7v-401q0 -4 -3 -7l-40 -39q-3 -3 -7 -3h-168zM102 55h93l19 19v352l-19 19h-93v-390z" />
    <glyph glyph-name="e.smcp" horiz-adv-x="305" 
d="M52 0q-5 0 -5 5v490q0 5 5 5h178q5 0 5 -5v-45q0 -5 -5 -5h-128v-155h118q5 0 5 -5v-46q0 -5 -5 -5h-118v-179h146q6 0 5 -5l-8 -45q0 -5 -6 -5h-187z" />
    <glyph glyph-name="f.smcp" horiz-adv-x="269" 
d="M52 0q-5 0 -5 5v490q0 5 5 5h186q5 0 5 -5v-45q0 -5 -5 -5h-136v-155h98q5 0 5 -5v-46q0 -5 -5 -5h-98v-229q0 -5 -5 -5h-45z" />
    <glyph glyph-name="g.smcp" horiz-adv-x="316" 
d="M94 0q-3 0 -7 2l-41 40q-3 3 -3 7v401q0 4 3 7l40 40q3 3 7 3h123q4 0 7 -3l40 -40q3 -3 3 -7v-90q0 -5 -5 -5h-46q-5 0 -5 5v65l-19 20h-74l-19 -20v-350l19 -20h74l19 20v150h-77q-5 0 -5 5v46q0 5 5 5h128q5 0 5 -5v-227q0 -4 -3 -7l-40 -39q-3 -3 -7 -3h-122z" />
    <glyph glyph-name="h.smcp" horiz-adv-x="323" 
d="M55 0q-5 0 -5 5v490q0 5 5 5h45q5 0 5 -5v-218h112v218q0 5 5 5h46q5 0 5 -5v-490q0 -5 -5 -5h-46q-5 0 -5 5v216h-112v-216q0 -5 -5 -5h-45z" />
    <glyph glyph-name="i.smcp" horiz-adv-x="150" 
d="M50 0q-5 0 -5 5v490q0 5 5 5h46q5 0 5 -5v-490q0 -5 -5 -5h-46z" />
    <glyph glyph-name="j.smcp" horiz-adv-x="271" 
d="M70 0q-3 0 -7 2l-41 40q-3 3 -3 7v121q0 5 5 5h46q5 0 5 -5v-98l18 -17h53l18 19v421q0 5 5 5h46q5 0 5 -5v-446q0 -4 -3 -7l-39 -39q-3 -3 -7 -3h-101z" />
    <glyph glyph-name="k.smcp" horiz-adv-x="336" 
d="M52 0q-5 0 -5 5v490q0 5 5 5h45q5 0 5 -5v-203h17l87 204q2 4 6 4h49q6 0 4 -6l-98 -228l118 -260q2 -6 -3 -6h-54q-4 0 -6 4l-104 231h-16v-230q0 -5 -5 -5h-45z" />
    <glyph glyph-name="l.smcp" horiz-adv-x="238" 
d="M52 0q-5 0 -5 5v490q0 5 5 5h45q5 0 5 -5v-440h105q6 0 5 -5l-8 -45q0 -5 -6 -5h-146z" />
    <glyph glyph-name="m.smcp" horiz-adv-x="418" 
d="M49 495q0 5 5 5h45q4 0 5 -4l97 -370h7l96 370q1 4 5 4h46q5 0 5 -5v-490q0 -5 -5 -5h-46q-5 0 -5 5v246h-10l-62 -247q-1 -4 -5 -4h-46q-4 0 -5 4l-62 247h-10v-246q0 -5 -5 -5h-45q-5 0 -5 5v490z" />
    <glyph glyph-name="n.smcp" horiz-adv-x="330" 
d="M47 495q0 5 5 5h45q3 0 5 -4l106 -305h10v304q0 5 5 5h46q5 0 5 -5v-490q0 -5 -5 -5h-46q-3 0 -5 4l-106 306h-10v-305q0 -5 -5 -5h-45q-5 0 -5 5v490z" />
    <glyph glyph-name="o.smcp" horiz-adv-x="326" 
d="M94 0q-3 0 -7 2l-41 40q-3 3 -3 7v401q0 4 3 7l40 40q3 3 7 3h130q4 0 7 -3l41 -40q3 -3 3 -7v-401q0 -4 -3 -7l-41 -40q-4 -2 -7 -2h-129zM117 55h82l19 20v350l-19 20h-82l-19 -20v-350z" />
    <glyph glyph-name="p.smcp" horiz-adv-x="300" 
d="M52 0q-5 0 -5 5v490q0 5 5 5h168q4 0 7 -3l40 -40q3 -3 3 -7v-223q0 -4 -3 -7l-40 -40q-3 -3 -7 -3h-118v-172q0 -5 -5 -5h-45zM102 233h93l19 18v175l-19 19h-93v-212z" />
    <glyph glyph-name="q.smcp" horiz-adv-x="316" 
d="M130 -39q-5 0 -5 5v34h-36q-3 0 -7 2l-41 40q-3 3 -3 7v401q0 4 3 7l40 40q3 3 7 3h130q4 0 7 -3l41 -40q3 -3 3 -7v-401q0 -4 -3 -7l-41 -40q-4 -2 -7 -2h-37v-34q0 -5 -5 -5h-46zM112 55h82l19 20v350l-19 20h-82l-19 -20v-350z" />
    <glyph glyph-name="r.smcp" horiz-adv-x="320" 
d="M52 0q-5 0 -5 5v490q0 5 5 5h167q4 0 7 -3l41 -40q3 -3 3 -7v-223q0 -4 -3 -7l-40 -40q-3 -3 -7 -3h-18l75 -171q2 -6 -3 -6h-51q-4 0 -6 4l-78 173h-37v-172q0 -5 -5 -5h-45zM102 233h93l19 18v175l-19 19h-93v-212z" />
    <glyph glyph-name="s.smcp" horiz-adv-x="307" 
d="M89 0q-3 0 -7 2l-42 40q-3 3 -3 7v92q0 5 5 5h45q5 0 5 -5v-66l18 -20h75l19 19v143l-19 17h-99q-4 0 -7 3l-39 39q-3 3 -3 7v167q0 4 3 7l39 40q3 3 7 3h124q4 0 7 -3l40 -40q3 -3 3 -7v-83q0 -5 -5 -5h-46q-5 0 -5 5v59l-19 19h-75l-18 -19v-117l19 -18h97q4 0 7 -3
l42 -41q3 -3 3 -7v-191q0 -4 -3 -7l-40 -39q-3 -3 -7 -3h-121z" />
    <glyph glyph-name="t.smcp" horiz-adv-x="258" 
d="M103 0q-5 0 -5 5v440h-71q-5 0 -5 5v45q0 5 5 5h198q5 0 5 -5v-45q0 -5 -5 -5h-70v-440q0 -5 -5 -5h-47z" />
    <glyph glyph-name="u.smcp" horiz-adv-x="330" 
d="M97 0q-3 0 -7 2l-42 40q-3 3 -3 7v446q0 5 5 5h45q5 0 5 -5v-420l18 -20h83l19 20v420q0 5 5 5h46q5 0 5 -5v-446q0 -4 -3 -7l-41 -40q-4 -2 -7 -2h-128z" />
    <glyph glyph-name="v.smcp" horiz-adv-x="282" 
d="M23 495q-1 5 5 5h47q6 0 6 -5l56 -370h8l57 370q0 5 6 5h45q5 0 4 -5l-87 -490q0 -5 -6 -5h-45q-6 0 -6 5z" />
    <glyph glyph-name="w.smcp" horiz-adv-x="454" 
d="M34 495q0 5 4 5h43q6 0 6 -5l40 -365h8l58 365q0 5 6 5h48q6 0 6 -5l59 -362h8l40 362q0 5 6 5h41q4 0 4 -5l-63 -490q0 -5 -6 -5h-49q-6 0 -6 5l-61 344h-8l-61 -344q0 -5 -6 -5h-47q-6 0 -6 5z" />
    <glyph glyph-name="x.smcp" horiz-adv-x="311" 
d="M123 263l-76 231q-1 6 4 6h47q3 0 5 -4l45 -152h7l45 152q2 4 5 4h47q6 0 4 -6l-76 -231l86 -257q2 -6 -4 -6h-48q-3 0 -5 4l-55 178h-7l-53 -178q-2 -4 -5 -4h-48q-5 0 -4 6z" />
    <glyph glyph-name="y.smcp" horiz-adv-x="252" 
d="M94 192l-80 302q-2 6 5 6h45q4 0 5 -4l50 -209h8l48 209q1 4 5 4h45q7 0 5 -6l-79 -302v-187q0 -5 -5 -5h-47q-5 0 -5 5v187z" />
    <glyph glyph-name="z.smcp" horiz-adv-x="316" 
d="M52 0q-5 0 -5 5v44q0 3 1 6l153 380v10h-149q-5 0 -5 5v45q0 5 5 5h205q5 0 5 -5v-44q0 -3 -1 -6l-153 -380v-10h149q5 0 5 -5v-45q0 -5 -5 -5h-205z" />
    <glyph glyph-name="a.smcp.ss01" horiz-adv-x="330" 
d="M50 0q-5 0 -5 5v446q0 5 3 6l42 41q4 2 7 2h128q3 0 7 -2l41 -40q3 -3 3 -7v-446q0 -5 -5 -5h-46q-5 0 -5 5v134h-120v-134q0 -5 -5 -5h-45zM100 199h120v226l-19 20h-83l-18 -20v-226z" />
    <glyph glyph-name="b.smcp.ss01" horiz-adv-x="322" 
d="M52 0q-5 0 -5 5v490q0 5 5 5h168q4 0 7 -3l40 -40q3 -3 3 -7v-118q0 -4 -3 -7l-27 -27l27 -27q3 -3 3 -7v-215q0 -4 -3 -7l-40 -39q-3 -3 -7 -3h-168zM102 268l88 64l24 18v76l-19 19h-93v-177zM102 55h93l19 19v174l-23 23l-89 -60v-156z" />
    <glyph glyph-name="e.smcp.ss01" horiz-adv-x="305" 
d="M98 0q-3 0 -7 2l-41 40q-3 3 -3 7v446q0 5 5 5h178q5 0 5 -5v-45q0 -5 -5 -5h-128v-155h118q5 0 5 -5v-46q0 -5 -5 -5h-118v-159l19 -20h127q6 0 5 -5l-8 -45q0 -5 -6 -5h-141z" />
    <glyph glyph-name="g.smcp.ss01" horiz-adv-x="316" 
d="M94 0q-3 0 -7 2l-41 40q-3 3 -3 7v401q0 4 3 7l40 40q3 3 7 3h123q4 0 7 -3l40 -40q3 -3 3 -7v-90q0 -5 -5 -5h-46q-5 0 -5 5v65l-19 20h-74l-19 -20v-350l19 -20h74l19 20v150h-76q-6 0 -5 6l13 46q2 4 5 4h114q5 0 5 -5v-227q0 -4 -3 -7l-40 -39q-3 -3 -7 -3h-122z" />
    <glyph glyph-name="j.smcp.ss01" horiz-adv-x="271" 
d="M70 0q-3 0 -7 2l-41 40q-3 3 -3 7v82q0 3 3 6l47 34q6 5 6 -3v-96l18 -17h53l18 19v421q0 5 5 5h46q5 0 5 -5v-446q0 -4 -3 -7l-39 -39q-3 -3 -7 -3h-101z" />
    <glyph glyph-name="k.smcp.ss01" horiz-adv-x="336" 
d="M52 0q-5 0 -5 5v490q0 5 5 5h45q5 0 5 -5v-226l104 227q2 4 6 4h48q6 0 4 -6l-92 -194l114 -294q2 -6 -4 -6h-54q-4 0 -6 4l-84 223l-36 -77v-145q0 -5 -5 -5h-45z" />
    <glyph glyph-name="q.smcp.ss01" horiz-adv-x="326" 
d="M271 -8q3 -4 0 -7l-32 -27q-4 -4 -7 1l-37 41h-101q-3 0 -7 2l-41 40q-3 3 -3 7v401q0 4 3 7l40 40q3 3 7 3h130q4 0 7 -3l41 -40q3 -3 3 -7v-401q0 -5 -3 -6l-25 -24zM98 75l19 -20h82l19 20v350l-19 20h-82l-19 -20v-350z" />
    <glyph glyph-name="y.smcp.ss01" horiz-adv-x="330" 
d="M138 0q-5 0 -5 5v131h-36q-3 0 -7 2l-42 40q-3 3 -3 7v310q0 5 5 5h45q5 0 5 -5v-284l18 -20h83l19 20v284q0 5 5 5h46q5 0 5 -5v-310q0 -4 -3 -7l-41 -40q-4 -2 -7 -2h-36v-131q0 -5 -5 -5h-46z" />
    <glyph glyph-name="i.loclTRK" horiz-adv-x="190" 
d="M60 774q-5 0 -5 5v65q0 5 5 5h65q5 0 5 -5v-65q0 -5 -5 -5h-65zM70 0q-5 0 -5 5v690q0 5 5 5h50q5 0 5 -5v-690q0 -5 -5 -5h-50z" />
    <glyph glyph-name="a.sc02.001" horiz-adv-x="300" 
d="M26 200q-6 0 -5 5l98 491q1 4 6 4h43q5 0 6 -4l99 -491q1 -5 -5 -5h-45q-6 0 -6 5l-23 130h-93l-23 -130q0 -5 -6 -5h-46zM112 393h72l-33 181h-7zM27 0q-5 0 -5 5v45q0 5 5 5h240q5 0 5 -5v-45q0 -5 -5 -5h-240z" />
    <glyph glyph-name="a.sc02.002" horiz-adv-x="300" 
d="M26 200q-6 0 -5 5l98 491q1 4 6 4h43q5 0 6 -4l99 -491q1 -5 -5 -5h-45q-6 0 -6 5l-23 130h-93l-23 -130q0 -5 -6 -5h-46zM112 393h72l-33 181h-7zM27 0q-5 0 -5 5v45q0 5 5 5h240q5 0 5 -5v-45q0 -5 -5 -5h-240z" />
    <glyph glyph-name="a.sc02" horiz-adv-x="300" 
d="M26 200q-6 0 -5 5l98 491q1 4 6 4h43q5 0 6 -4l99 -491q1 -5 -5 -5h-45q-6 0 -6 5l-23 130h-93l-23 -130q0 -5 -6 -5h-46zM112 393h72l-33 181h-7zM27 0q-5 0 -5 5v45q0 5 5 5h240q5 0 5 -5v-45q0 -5 -5 -5h-240z" />
    <glyph glyph-name="b.sc02" horiz-adv-x="322" 
d="M52 200q-5 0 -5 5v490q0 5 5 5h168q4 0 7 -3l40 -40q3 -3 3 -7v-148q0 -4 -3 -7l-27 -27l27 -27q3 -3 3 -7v-185q0 -4 -3 -7l-40 -39q-3 -3 -7 -3h-168zM102 498h89l23 22v106l-19 19h-93v-147zM102 255h93l19 19v144l-23 23h-89v-186zM52 0q-5 0 -5 5v45q0 5 5 5h210
q5 0 5 -5v-45q0 -5 -5 -5h-210z" />
    <glyph glyph-name="c.sc02" horiz-adv-x="314" 
d="M94 200q-3 0 -7 2l-41 40q-3 3 -3 7v401q0 4 3 7l40 40q3 3 7 3h123q4 0 7 -3l40 -40q3 -3 3 -7v-82q0 -5 -5 -5h-46q-5 0 -5 5v57l-19 20h-74l-19 -20v-350l19 -20h74l19 20v70q0 5 5 5h46q5 0 5 -5v-96q0 -4 -3 -7l-40 -39q-3 -3 -7 -3h-122zM48 0q-5 0 -5 5v45
q0 5 5 5h210q5 0 5 -5v-45q0 -5 -5 -5h-210z" />
    <glyph glyph-name="d.sc02" horiz-adv-x="320" 
d="M52 200q-5 0 -5 5v490q0 5 5 5h168q4 0 7 -3l40 -40q3 -3 3 -7v-401q0 -4 -3 -7l-40 -39q-3 -3 -7 -3h-168zM102 255h93l19 19v352l-19 19h-93v-390zM52 0q-5 0 -5 5v45q0 5 5 5h210q5 0 5 -5v-45q0 -5 -5 -5h-210z" />
    <glyph glyph-name="e.sc02" horiz-adv-x="305" 
d="M52 200q-5 0 -5 5v490q0 5 5 5h178q5 0 5 -5v-45q0 -5 -5 -5h-128v-155h118q5 0 5 -5v-46q0 -5 -5 -5h-118v-179h146q6 0 5 -5l-8 -45q0 -5 -6 -5h-187zM52 0q-5 0 -5 5v45q0 5 5 5h190q5 0 5 -5v-45q0 -5 -5 -5h-190z" />
    <glyph glyph-name="f.sc02" horiz-adv-x="269" 
d="M52 200q-5 0 -5 5v490q0 5 5 5h186q5 0 5 -5v-45q0 -5 -5 -5h-136v-155h98q5 0 5 -5v-46q0 -5 -5 -5h-98v-229q0 -5 -5 -5h-45zM52 0q-5 0 -5 5v45q0 5 5 5h190q5 0 5 -5v-45q0 -5 -5 -5h-190z" />
    <glyph glyph-name="g.sc02" horiz-adv-x="316" 
d="M94 200q-3 0 -7 2l-41 40q-3 3 -3 7v401q0 4 3 7l40 40q3 3 7 3h123q4 0 7 -3l40 -40q3 -3 3 -7v-90q0 -5 -5 -5h-46q-5 0 -5 5v65l-19 20h-74l-19 -20v-350l19 -20h74l19 20v150h-77q-5 0 -5 5v46q0 5 5 5h128q5 0 5 -5v-227q0 -4 -3 -7l-40 -39q-3 -3 -7 -3h-122zM48 0
q-5 0 -5 5v45q0 5 5 5h210q5 0 5 -5v-45q0 -5 -5 -5h-210z" />
    <glyph glyph-name="h.sc02" horiz-adv-x="323" 
d="M55 200q-5 0 -5 5v490q0 5 5 5h45q5 0 5 -5v-218h112v218q0 5 5 5h46q5 0 5 -5v-490q0 -5 -5 -5h-46q-5 0 -5 5v216h-112v-216q0 -5 -5 -5h-45zM57 0q-5 0 -5 5v45q0 5 5 5h210q5 0 5 -5v-45q0 -5 -5 -5h-210z" />
    <glyph glyph-name="i.sc02" horiz-adv-x="150" 
d="M50 200q-5 0 -5 5v490q0 5 5 5h46q5 0 5 -5v-490q0 -5 -5 -5h-46zM53 0q-5 0 -5 5v45q0 5 5 5h40q5 0 5 -5v-45q0 -5 -5 -5h-40z" />
    <glyph glyph-name="j.sc02" horiz-adv-x="271" 
d="M70 200q-3 0 -7 2l-41 40q-3 3 -3 7v121q0 5 5 5h46q5 0 5 -5v-98l18 -17h53l18 19v421q0 5 5 5h46q5 0 5 -5v-446q0 -4 -3 -7l-39 -39q-3 -3 -7 -3h-101zM24 0q-5 0 -5 5v45q0 5 5 5h190q5 0 5 -5v-45q0 -5 -5 -5h-190z" />
    <glyph glyph-name="k.sc02" horiz-adv-x="336" 
d="M52 200q-5 0 -5 5v490q0 5 5 5h45q5 0 5 -5v-203h17l87 204q2 4 6 4h49q6 0 4 -6l-98 -228l118 -260q2 -6 -3 -6h-54q-4 0 -6 4l-104 231h-16v-230q0 -5 -5 -5h-45zM53 0q-5 0 -5 5v45q0 5 5 5h230q5 0 5 -5v-45q0 -5 -5 -5h-230z" />
    <glyph glyph-name="l.sc02" horiz-adv-x="238" 
d="M52 200q-5 0 -5 5v490q0 5 5 5h45q5 0 5 -5v-440h105q6 0 5 -5l-8 -45q0 -5 -6 -5h-146zM52 0q-5 0 -5 5v45q0 5 5 5h150q5 0 5 -5v-45q0 -5 -5 -5h-150z" />
    <glyph glyph-name="m.sc02" horiz-adv-x="418" 
d="M51 695q0 5 5 5h45q4 0 5 -4l97 -370h7l96 370q1 4 5 4h46q5 0 5 -5v-490q0 -5 -5 -5h-46q-5 0 -5 5v246h-10l-62 -247q-1 -4 -5 -4h-46q-4 0 -5 4l-62 247h-10v-246q0 -5 -5 -5h-45q-5 0 -5 5v490zM54 0q-5 0 -5 5v45q0 5 5 5h300q5 0 5 -5v-45q0 -5 -5 -5h-300z" />
    <glyph glyph-name="n.sc02" horiz-adv-x="330" 
d="M47 702q0 5 5 5h45q3 0 5 -4l106 -305h10v304q0 5 5 5h46q5 0 5 -5v-490q0 -5 -5 -5h-46q-3 0 -5 4l-106 306h-10v-305q0 -5 -5 -5h-45q-5 0 -5 5v490zM56 0q-5 0 -5 5v45q0 5 5 5h210q5 0 5 -5v-45q0 -5 -5 -5h-210z" />
    <glyph glyph-name="o.sc02" horiz-adv-x="326" 
d="M94 200q-3 0 -7 2l-41 40q-3 3 -3 7v401q0 4 3 7l40 40q3 3 7 3h130q4 0 7 -3l41 -40q3 -3 3 -7v-401q0 -4 -3 -7l-41 -40q-4 -2 -7 -2h-129zM117 255h82l19 20v350l-19 20h-82l-19 -20v-350zM48 0q-5 0 -5 5v45q0 5 5 5h220q5 0 5 -5v-45q0 -5 -5 -5h-220z" />
    <glyph glyph-name="p.sc02" horiz-adv-x="300" 
d="M52 200q-5 0 -5 5v490q0 5 5 5h168q4 0 7 -3l40 -40q3 -3 3 -7v-223q0 -4 -3 -7l-40 -40q-3 -3 -7 -3h-118v-172q0 -5 -5 -5h-45zM102 433h93l19 18v175l-19 19h-93v-212zM53 0q-5 0 -5 5v45q0 5 5 5h210q5 0 5 -5v-45q0 -5 -5 -5h-210z" />
    <glyph glyph-name="thorn.sc02" horiz-adv-x="300" 
d="M52 200q-5 0 -5 5v490q0 5 5 5h44q5 0 5 -5v-55h119q4 0 7 -3l40 -40q3 -3 3 -7v-223q0 -4 -3 -7l-40 -40q-3 -3 -7 -3h-118v-112q0 -5 -5 -5h-45zM102 373h93l19 18v175l-19 19h-93v-212zM54 0q-5 0 -5 5v45q0 5 5 5h210q5 0 5 -5v-45q0 -5 -5 -5h-210z" />
    <glyph glyph-name="q.sc02" horiz-adv-x="316" 
d="M130 161q-5 0 -5 5v34h-36q-3 0 -7 2l-41 40q-3 3 -3 7v401q0 4 3 7l40 40q3 3 7 3h130q4 0 7 -3l41 -40q3 -3 3 -7v-401q0 -4 -3 -7l-41 -40q-4 -2 -7 -2h-37v-34q0 -5 -5 -5h-46zM112 255h82l19 20v350l-19 20h-82l-19 -20v-350zM43 0q-5 0 -5 5v45q0 5 5 5h220
q5 0 5 -5v-45q0 -5 -5 -5h-220z" />
    <glyph glyph-name="r.sc02" horiz-adv-x="320" 
d="M52 200q-5 0 -5 5v490q0 5 5 5h167q4 0 7 -3l41 -40q3 -3 3 -7v-223q0 -4 -3 -7l-40 -40q-3 -3 -7 -3h-18l75 -171q2 -6 -3 -6h-51q-4 0 -6 4l-78 173h-37v-172q0 -5 -5 -5h-45zM102 433h93l19 18v175l-19 19h-93v-212zM53 0q-5 0 -5 5v45q0 5 5 5h220q5 0 5 -5v-45
q0 -5 -5 -5h-220z" />
    <glyph glyph-name="s.sc02" horiz-adv-x="307" 
d="M89 200q-3 0 -7 2l-42 40q-3 3 -3 7v92q0 5 5 5h45q5 0 5 -5v-66l18 -20h75l19 19v143l-19 17h-99q-4 0 -7 3l-39 39q-3 3 -3 7v167q0 4 3 7l39 40q3 3 7 3h124q4 0 7 -3l40 -40q3 -3 3 -7v-83q0 -5 -5 -5h-46q-5 0 -5 5v59l-19 19h-75l-18 -19v-117l19 -18h97q4 0 7 -3
l42 -41q3 -3 3 -7v-191q0 -4 -3 -7l-40 -39q-3 -3 -7 -3h-121zM43 0q-5 0 -5 5v45q0 5 5 5h210q5 0 5 -5v-45q0 -5 -5 -5h-210z" />
    <glyph glyph-name="t.sc02" horiz-adv-x="258" 
d="M103 200q-5 0 -5 5v440h-71q-5 0 -5 5v45q0 5 5 5h198q5 0 5 -5v-45q0 -5 -5 -5h-70v-440q0 -5 -5 -5h-47zM30 0q-5 0 -5 5v45q0 5 5 5h190q5 0 5 -5v-45q0 -5 -5 -5h-190z" />
    <glyph glyph-name="u.sc02" horiz-adv-x="330" 
d="M97 200q-3 0 -7 2l-42 40q-3 3 -3 7v446q0 5 5 5h45q5 0 5 -5v-420l18 -20h83l19 20v420q0 5 5 5h46q5 0 5 -5v-446q0 -4 -3 -7l-41 -40q-4 -2 -7 -2h-128zM50 0q-5 0 -5 5v45q0 5 5 5h220q5 0 5 -5v-45q0 -5 -5 -5h-220z" />
    <glyph glyph-name="v.sc02" horiz-adv-x="282" 
d="M23 695q-1 5 5 5h47q6 0 6 -5l56 -370h8l57 370q0 5 6 5h45q5 0 4 -5l-87 -490q0 -5 -6 -5h-45q-6 0 -6 5zM29 0q-5 0 -5 5v45q0 5 5 5h220q5 0 5 -5v-45q0 -5 -5 -5h-220z" />
    <glyph glyph-name="w.sc02" horiz-adv-x="454" 
d="M34 695q0 5 4 5h43q6 0 6 -5l40 -365h8l58 365q0 5 6 5h48q6 0 6 -5l59 -362h8l40 362q0 5 6 5h41q4 0 4 -5l-63 -490q0 -5 -6 -5h-49q-6 0 -6 5l-61 344h-8l-61 -344q0 -5 -6 -5h-47q-6 0 -6 5zM42 0q-5 0 -5 5v45q0 5 5 5h360q5 0 5 -5v-45q0 -5 -5 -5h-360z" />
    <glyph glyph-name="x.sc02" horiz-adv-x="311" 
d="M123 463l-76 231q-1 6 4 6h47q3 0 5 -4l45 -152h7l45 152q2 4 5 4h47q6 0 4 -6l-76 -231l86 -257q2 -6 -4 -6h-48q-3 0 -5 4l-55 178h-7l-53 -178q-2 -4 -5 -4h-48q-5 0 -4 6zM41 0q-5 0 -5 5v45q0 5 5 5h220q5 0 5 -5v-45q0 -5 -5 -5h-220z" />
    <glyph glyph-name="y.sc02" horiz-adv-x="252" 
d="M94 392l-80 302q-2 6 5 6h45q4 0 5 -4l50 -209h8l48 209q1 4 5 4h45q7 0 5 -6l-79 -302v-187q0 -5 -5 -5h-47q-5 0 -5 5v187zM27 0q-5 0 -5 5v45q0 5 5 5h190q5 0 5 -5v-45q0 -5 -5 -5h-190z" />
    <glyph glyph-name="z.sc02" horiz-adv-x="316" 
d="M52 200q-5 0 -5 5v44q0 3 1 6l153 380v10h-149q-5 0 -5 5v45q0 5 5 5h205q5 0 5 -5v-44q0 -3 -1 -6l-153 -380v-10h149q5 0 5 -5v-45q0 -5 -5 -5h-205zM55 0q-5 0 -5 5v45q0 5 5 5h200q5 0 5 -5v-45q0 -5 -5 -5h-200z" />
    <glyph glyph-name="a.sc02salt" horiz-adv-x="330" 
d="M50 200q-5 0 -5 5v446q0 5 3 6l42 41q4 2 7 2h128q3 0 7 -2l41 -40q3 -3 3 -7v-446q0 -5 -5 -5h-46q-5 0 -5 5v134h-120v-134q0 -5 -5 -5h-45zM100 399h120v226l-19 20h-83l-18 -20v-226zM50 0q-5 0 -5 5v45q0 5 5 5h220q5 0 5 -5v-45q0 -5 -5 -5h-220z" />
    <glyph glyph-name="b.sc02salt" horiz-adv-x="322" 
d="M52 200q-5 0 -5 5v490q0 5 5 5h168q4 0 7 -3l40 -40q3 -3 3 -7v-118q0 -4 -3 -7l-27 -27l27 -27q3 -3 3 -7v-215q0 -4 -3 -7l-40 -39q-3 -3 -7 -3h-168zM102 468l88 64l24 18v76l-19 19h-93v-177zM102 255h93l19 19v174l-23 23l-89 -60v-156zM53 0q-5 0 -5 5v45q0 5 5 5
h210q5 0 5 -5v-45q0 -5 -5 -5h-210z" />
    <glyph glyph-name="e.sc02salt" horiz-adv-x="305" 
d="M98 200q-3 0 -7 2l-41 40q-3 3 -3 7v446q0 5 5 5h178q5 0 5 -5v-45q0 -5 -5 -5h-128v-155h118q5 0 5 -5v-46q0 -5 -5 -5h-118v-159l19 -20h127q6 0 5 -5l-8 -45q0 -5 -6 -5h-141zM55 0q-5 0 -5 5v45q0 5 5 5h190q5 0 5 -5v-45q0 -5 -5 -5h-190z" />
    <glyph glyph-name="g.sc02salt" horiz-adv-x="316" 
d="M94 200q-3 0 -7 2l-41 40q-3 3 -3 7v401q0 4 3 7l40 40q3 3 7 3h123q4 0 7 -3l40 -40q3 -3 3 -7v-90q0 -5 -5 -5h-46q-5 0 -5 5v65l-19 20h-74l-19 -20v-350l19 -20h74l19 20v150h-76q-6 0 -5 6l13 46q2 4 5 4h114q5 0 5 -5v-227q0 -4 -3 -7l-40 -39q-3 -3 -7 -3h-122z
M50 0q-5 0 -5 5v45q0 5 5 5h210q5 0 5 -5v-45q0 -5 -5 -5h-210z" />
    <glyph glyph-name="j.sc02salt" horiz-adv-x="271" 
d="M70 200q-3 0 -7 2l-41 40q-3 3 -3 7v82q0 3 3 6l47 34q6 5 6 -3v-96l18 -17h53l18 19v421q0 5 5 5h46q5 0 5 -5v-446q0 -4 -3 -7l-39 -39q-3 -3 -7 -3h-101zM24 0q-5 0 -5 5v45q0 5 5 5h190q5 0 5 -5v-45q0 -5 -5 -5h-190z" />
    <glyph glyph-name="k.sc02salt" horiz-adv-x="336" 
d="M52 200q-5 0 -5 5v490q0 5 5 5h45q5 0 5 -5v-226l104 227q2 4 6 4h48q6 0 4 -6l-92 -194l114 -294q2 -6 -4 -6h-54q-4 0 -6 4l-84 223l-36 -77v-145q0 -5 -5 -5h-45zM53 0q-5 0 -5 5v45q0 5 5 5h230q5 0 5 -5v-45q0 -5 -5 -5h-230z" />
    <glyph glyph-name="q.sc02salt" horiz-adv-x="316" 
d="M190 200h-101q-3 0 -7 2l-41 40q-3 3 -3 7v401q0 4 3 7l40 40q3 3 7 3h130q4 0 7 -3l41 -40q3 -3 3 -7v-401q0 -5 -3 -6l-25 -24l25 -27q4 -4 0 -7l-32 -27q-4 -4 -7 1zM93 625v-350l19 -20h82l19 20v350l-19 20h-82zM44 0q-5 0 -5 5v45q0 5 5 5h220q5 0 5 -5v-45
q0 -5 -5 -5h-220z" />
    <glyph glyph-name="y.sc02salt" horiz-adv-x="330" 
d="M138 200q-5 0 -5 5v131h-36q-3 0 -7 2l-42 40q-3 3 -3 7v310q0 5 5 5h45q5 0 5 -5v-284l18 -20h83l19 20v284q0 5 5 5h46q5 0 5 -5v-310q0 -4 -3 -7l-41 -40q-4 -2 -7 -2h-36v-131q0 -5 -5 -5h-46zM51 0q-5 0 -5 5v45q0 5 5 5h220q5 0 5 -5v-45q0 -5 -5 -5h-220z" />
    <glyph glyph-name="a.sc03" horiz-adv-x="300" 
d="M26 200q-6 0 -5 5l98 491q1 4 6 4h43q5 0 6 -4l99 -491q1 -5 -5 -5h-45q-6 0 -6 5l-23 130h-93l-23 -130q0 -5 -6 -5h-46zM112 393h72l-33 181h-7zM27 0q-5 0 -5 5v45q0 5 5 5h360q5 0 5 -5v-45q0 -5 -5 -5h-360z" />
    <glyph glyph-name="b.sc03" horiz-adv-x="322" 
d="M52 200q-5 0 -5 5v490q0 5 5 5h168q4 0 7 -3l40 -40q3 -3 3 -7v-148q0 -4 -3 -7l-27 -27l27 -27q3 -3 3 -7v-185q0 -4 -3 -7l-40 -39q-3 -3 -7 -3h-168zM102 498h89l23 22v106l-19 19h-93v-147zM102 255h93l19 19v144l-23 23h-89v-186zM52 0q-5 0 -5 5v45q0 5 5 5h330
q5 0 5 -5v-45q0 -5 -5 -5h-330z" />
    <glyph glyph-name="c.sc03" horiz-adv-x="314" 
d="M94 200q-3 0 -7 2l-41 40q-3 3 -3 7v401q0 4 3 7l40 40q3 3 7 3h123q4 0 7 -3l40 -40q3 -3 3 -7v-82q0 -5 -5 -5h-46q-5 0 -5 5v57l-19 20h-74l-19 -20v-350l19 -20h74l19 20v70q0 5 5 5h46q5 0 5 -5v-96q0 -4 -3 -7l-40 -39q-3 -3 -7 -3h-122zM48 0q-5 0 -5 5v45
q0 5 5 5h330q5 0 5 -5v-45q0 -5 -5 -5h-330z" />
    <glyph glyph-name="d.sc03" horiz-adv-x="320" 
d="M52 200q-5 0 -5 5v490q0 5 5 5h168q4 0 7 -3l40 -40q3 -3 3 -7v-401q0 -4 -3 -7l-40 -39q-3 -3 -7 -3h-168zM102 255h93l19 19v352l-19 19h-93v-390zM52 0q-5 0 -5 5v45q0 5 5 5h330q5 0 5 -5v-45q0 -5 -5 -5h-330z" />
    <glyph glyph-name="e.sc03" horiz-adv-x="305" 
d="M52 200q-5 0 -5 5v490q0 5 5 5h178q5 0 5 -5v-45q0 -5 -5 -5h-128v-155h118q5 0 5 -5v-46q0 -5 -5 -5h-118v-179h146q6 0 5 -5l-8 -45q0 -5 -6 -5h-187zM52 0q-5 0 -5 5v45q0 5 5 5h310q5 0 5 -5v-45q0 -5 -5 -5h-310z" />
    <glyph glyph-name="f.sc03" horiz-adv-x="269" 
d="M52 200q-5 0 -5 5v490q0 5 5 5h186q5 0 5 -5v-45q0 -5 -5 -5h-136v-155h98q5 0 5 -5v-46q0 -5 -5 -5h-98v-229q0 -5 -5 -5h-45zM52 0q-5 0 -5 5v45q0 5 5 5h310q5 0 5 -5v-45q0 -5 -5 -5h-310z" />
    <glyph glyph-name="g.sc03" horiz-adv-x="316" 
d="M94 200q-3 0 -7 2l-41 40q-3 3 -3 7v401q0 4 3 7l40 40q3 3 7 3h123q4 0 7 -3l40 -40q3 -3 3 -7v-90q0 -5 -5 -5h-46q-5 0 -5 5v65l-19 20h-74l-19 -20v-350l19 -20h74l19 20v150h-77q-5 0 -5 5v46q0 5 5 5h128q5 0 5 -5v-227q0 -4 -3 -7l-40 -39q-3 -3 -7 -3h-122zM48 0
q-5 0 -5 5v45q0 5 5 5h330q5 0 5 -5v-45q0 -5 -5 -5h-330z" />
    <glyph glyph-name="h.sc03" horiz-adv-x="323" 
d="M55 200q-5 0 -5 5v490q0 5 5 5h45q5 0 5 -5v-218h112v218q0 5 5 5h46q5 0 5 -5v-490q0 -5 -5 -5h-46q-5 0 -5 5v216h-112v-216q0 -5 -5 -5h-45zM57 0q-5 0 -5 5v45q0 5 5 5h330q5 0 5 -5v-45q0 -5 -5 -5h-330z" />
    <glyph glyph-name="i.sc03" horiz-adv-x="150" 
d="M50 200q-5 0 -5 5v490q0 5 5 5h46q5 0 5 -5v-490q0 -5 -5 -5h-46zM53 0q-5 0 -5 5v45q0 5 5 5h160q5 0 5 -5v-45q0 -5 -5 -5h-160z" />
    <glyph glyph-name="j.sc03" horiz-adv-x="271" 
d="M70 200q-3 0 -7 2l-41 40q-3 3 -3 7v121q0 5 5 5h46q5 0 5 -5v-98l18 -17h53l18 19v421q0 5 5 5h46q5 0 5 -5v-446q0 -4 -3 -7l-39 -39q-3 -3 -7 -3h-101zM24 0q-5 0 -5 5v45q0 5 5 5h310q5 0 5 -5v-45q0 -5 -5 -5h-310z" />
    <glyph glyph-name="k.sc03" horiz-adv-x="336" 
d="M52 200q-5 0 -5 5v490q0 5 5 5h45q5 0 5 -5v-203h17l87 204q2 4 6 4h49q6 0 4 -6l-98 -228l118 -260q2 -6 -3 -6h-54q-4 0 -6 4l-104 231h-16v-230q0 -5 -5 -5h-45zM53 0q-5 0 -5 5v45q0 5 5 5h350q5 0 5 -5v-45q0 -5 -5 -5h-350z" />
    <glyph glyph-name="l.sc03" horiz-adv-x="238" 
d="M52 200q-5 0 -5 5v490q0 5 5 5h45q5 0 5 -5v-440h105q6 0 5 -5l-8 -45q0 -5 -6 -5h-146zM52 0q-5 0 -5 5v45q0 5 5 5h270q5 0 5 -5v-45q0 -5 -5 -5h-270z" />
    <glyph glyph-name="m.sc03" horiz-adv-x="418" 
d="M51 695q0 5 5 5h45q4 0 5 -4l97 -370h7l96 370q1 4 5 4h46q5 0 5 -5v-490q0 -5 -5 -5h-46q-5 0 -5 5v246h-10l-62 -247q-1 -4 -5 -4h-46q-4 0 -5 4l-62 247h-10v-246q0 -5 -5 -5h-45q-5 0 -5 5v490zM54 0q-5 0 -5 5v45q0 5 5 5h420q5 0 5 -5v-45q0 -5 -5 -5h-420z" />
    <glyph glyph-name="n.sc03" horiz-adv-x="330" 
d="M47 702q0 5 5 5h45q3 0 5 -4l106 -305h10v304q0 5 5 5h46q5 0 5 -5v-490q0 -5 -5 -5h-46q-3 0 -5 4l-106 306h-10v-305q0 -5 -5 -5h-45q-5 0 -5 5v490zM56 0q-5 0 -5 5v45q0 5 5 5h330q5 0 5 -5v-45q0 -5 -5 -5h-330z" />
    <glyph glyph-name="o.sc03" horiz-adv-x="326" 
d="M94 200q-3 0 -7 2l-41 40q-3 3 -3 7v401q0 4 3 7l40 40q3 3 7 3h130q4 0 7 -3l41 -40q3 -3 3 -7v-401q0 -4 -3 -7l-41 -40q-4 -2 -7 -2h-129zM117 255h82l19 20v350l-19 20h-82l-19 -20v-350zM48 0q-5 0 -5 5v45q0 5 5 5h340q5 0 5 -5v-45q0 -5 -5 -5h-340z" />
    <glyph glyph-name="p.sc03" horiz-adv-x="300" 
d="M52 200q-5 0 -5 5v490q0 5 5 5h168q4 0 7 -3l40 -40q3 -3 3 -7v-223q0 -4 -3 -7l-40 -40q-3 -3 -7 -3h-118v-172q0 -5 -5 -5h-45zM102 433h93l19 18v175l-19 19h-93v-212zM53 0q-5 0 -5 5v45q0 5 5 5h330q5 0 5 -5v-45q0 -5 -5 -5h-330z" />
    <glyph glyph-name="thorn.sc03" horiz-adv-x="300" 
d="M52 200q-5 0 -5 5v490q0 5 5 5h44q5 0 5 -5v-55h119q4 0 7 -3l40 -40q3 -3 3 -7v-223q0 -4 -3 -7l-40 -40q-3 -3 -7 -3h-118v-112q0 -5 -5 -5h-45zM102 373h93l19 18v175l-19 19h-93v-212zM54 0q-5 0 -5 5v45q0 5 5 5h330q5 0 5 -5v-45q0 -5 -5 -5h-330z" />
    <glyph glyph-name="q.sc03" horiz-adv-x="316" 
d="M130 161q-5 0 -5 5v34h-36q-3 0 -7 2l-41 40q-3 3 -3 7v401q0 4 3 7l40 40q3 3 7 3h130q4 0 7 -3l41 -40q3 -3 3 -7v-401q0 -4 -3 -7l-41 -40q-4 -2 -7 -2h-37v-34q0 -5 -5 -5h-46zM112 255h82l19 20v350l-19 20h-82l-19 -20v-350zM43 0q-5 0 -5 5v45q0 5 5 5h340
q5 0 5 -5v-45q0 -5 -5 -5h-340z" />
    <glyph glyph-name="r.sc03" horiz-adv-x="320" 
d="M52 200q-5 0 -5 5v490q0 5 5 5h167q4 0 7 -3l41 -40q3 -3 3 -7v-223q0 -4 -3 -7l-40 -40q-3 -3 -7 -3h-18l75 -171q2 -6 -3 -6h-51q-4 0 -6 4l-78 173h-37v-172q0 -5 -5 -5h-45zM102 433h93l19 18v175l-19 19h-93v-212zM53 0q-5 0 -5 5v45q0 5 5 5h340q5 0 5 -5v-45
q0 -5 -5 -5h-340z" />
    <glyph glyph-name="s.sc03" horiz-adv-x="307" 
d="M89 200q-3 0 -7 2l-42 40q-3 3 -3 7v92q0 5 5 5h45q5 0 5 -5v-66l18 -20h75l19 19v143l-19 17h-99q-4 0 -7 3l-39 39q-3 3 -3 7v167q0 4 3 7l39 40q3 3 7 3h124q4 0 7 -3l40 -40q3 -3 3 -7v-83q0 -5 -5 -5h-46q-5 0 -5 5v59l-19 19h-75l-18 -19v-117l19 -18h97q4 0 7 -3
l42 -41q3 -3 3 -7v-191q0 -4 -3 -7l-40 -39q-3 -3 -7 -3h-121zM43 0q-5 0 -5 5v45q0 5 5 5h330q5 0 5 -5v-45q0 -5 -5 -5h-330z" />
    <glyph glyph-name="t.sc03" horiz-adv-x="258" 
d="M103 200q-5 0 -5 5v440h-71q-5 0 -5 5v45q0 5 5 5h198q5 0 5 -5v-45q0 -5 -5 -5h-70v-440q0 -5 -5 -5h-47zM30 0q-5 0 -5 5v45q0 5 5 5h310q5 0 5 -5v-45q0 -5 -5 -5h-310z" />
    <glyph glyph-name="u.sc03" horiz-adv-x="330" 
d="M97 200q-3 0 -7 2l-42 40q-3 3 -3 7v446q0 5 5 5h45q5 0 5 -5v-420l18 -20h83l19 20v420q0 5 5 5h46q5 0 5 -5v-446q0 -4 -3 -7l-41 -40q-4 -2 -7 -2h-128zM50 0q-5 0 -5 5v45q0 5 5 5h340q5 0 5 -5v-45q0 -5 -5 -5h-340z" />
    <glyph glyph-name="v.sc03" horiz-adv-x="282" 
d="M23 695q-1 5 5 5h47q6 0 6 -5l56 -370h8l57 370q0 5 6 5h45q5 0 4 -5l-87 -490q0 -5 -6 -5h-45q-6 0 -6 5zM29 0q-5 0 -5 5v45q0 5 5 5h340q5 0 5 -5v-45q0 -5 -5 -5h-340z" />
    <glyph glyph-name="w.sc03" horiz-adv-x="454" 
d="M34 695q0 5 4 5h43q6 0 6 -5l40 -365h8l58 365q0 5 6 5h48q6 0 6 -5l59 -362h8l40 362q0 5 6 5h41q4 0 4 -5l-63 -490q0 -5 -6 -5h-49q-6 0 -6 5l-61 344h-8l-61 -344q0 -5 -6 -5h-47q-6 0 -6 5zM42 0q-5 0 -5 5v45q0 5 5 5h480q5 0 5 -5v-45q0 -5 -5 -5h-480z" />
    <glyph glyph-name="x.sc03" horiz-adv-x="311" 
d="M123 463l-76 231q-1 6 4 6h47q3 0 5 -4l45 -152h7l45 152q2 4 5 4h47q6 0 4 -6l-76 -231l86 -257q2 -6 -4 -6h-48q-3 0 -5 4l-55 178h-7l-53 -178q-2 -4 -5 -4h-48q-5 0 -4 6zM41 0q-5 0 -5 5v45q0 5 5 5h340q5 0 5 -5v-45q0 -5 -5 -5h-340z" />
    <glyph glyph-name="y.sc03" horiz-adv-x="252" 
d="M94 392l-80 302q-2 6 5 6h45q4 0 5 -4l50 -209h8l48 209q1 4 5 4h45q7 0 5 -6l-79 -302v-187q0 -5 -5 -5h-47q-5 0 -5 5v187zM27 0q-5 0 -5 5v45q0 5 5 5h310q5 0 5 -5v-45q0 -5 -5 -5h-310z" />
    <glyph glyph-name="z.sc03" horiz-adv-x="316" 
d="M52 200q-5 0 -5 5v44q0 3 1 6l153 380v10h-149q-5 0 -5 5v45q0 5 5 5h205q5 0 5 -5v-44q0 -3 -1 -6l-153 -380v-10h149q5 0 5 -5v-45q0 -5 -5 -5h-205zM55 0q-5 0 -5 5v45q0 5 5 5h320q5 0 5 -5v-45q0 -5 -5 -5h-320z" />
    <glyph glyph-name="a.sc03salt" horiz-adv-x="330" 
d="M50 200q-5 0 -5 5v446q0 5 3 6l42 41q4 2 7 2h128q3 0 7 -2l41 -40q3 -3 3 -7v-446q0 -5 -5 -5h-46q-5 0 -5 5v134h-120v-134q0 -5 -5 -5h-45zM100 399h120v226l-19 20h-83l-18 -20v-226zM50 0q-5 0 -5 5v45q0 5 5 5h340q5 0 5 -5v-45q0 -5 -5 -5h-340z" />
    <glyph glyph-name="b.sc03salt" horiz-adv-x="322" 
d="M52 200q-5 0 -5 5v490q0 5 5 5h168q4 0 7 -3l40 -40q3 -3 3 -7v-118q0 -4 -3 -7l-27 -27l27 -27q3 -3 3 -7v-215q0 -4 -3 -7l-40 -39q-3 -3 -7 -3h-168zM102 468l88 64l24 18v76l-19 19h-93v-177zM102 255h93l19 19v174l-23 23l-89 -60v-156zM53 0q-5 0 -5 5v45q0 5 5 5
h330q5 0 5 -5v-45q0 -5 -5 -5h-330z" />
    <glyph glyph-name="e.sc03salt" horiz-adv-x="305" 
d="M98 200q-3 0 -7 2l-41 40q-3 3 -3 7v446q0 5 5 5h178q5 0 5 -5v-45q0 -5 -5 -5h-128v-155h118q5 0 5 -5v-46q0 -5 -5 -5h-118v-159l19 -20h127q6 0 5 -5l-8 -45q0 -5 -6 -5h-141zM55 0q-5 0 -5 5v45q0 5 5 5h310q5 0 5 -5v-45q0 -5 -5 -5h-310z" />
    <glyph glyph-name="g.sc03salt" horiz-adv-x="316" 
d="M94 200q-3 0 -7 2l-41 40q-3 3 -3 7v401q0 4 3 7l40 40q3 3 7 3h123q4 0 7 -3l40 -40q3 -3 3 -7v-90q0 -5 -5 -5h-46q-5 0 -5 5v65l-19 20h-74l-19 -20v-350l19 -20h74l19 20v150h-76q-6 0 -5 6l13 46q2 4 5 4h114q5 0 5 -5v-227q0 -4 -3 -7l-40 -39q-3 -3 -7 -3h-122z
M50 0q-5 0 -5 5v45q0 5 5 5h330q5 0 5 -5v-45q0 -5 -5 -5h-330z" />
    <glyph glyph-name="j.sc03salt" horiz-adv-x="271" 
d="M70 200q-3 0 -7 2l-41 40q-3 3 -3 7v82q0 3 3 6l47 34q6 5 6 -3v-96l18 -17h53l18 19v421q0 5 5 5h46q5 0 5 -5v-446q0 -4 -3 -7l-39 -39q-3 -3 -7 -3h-101zM24 0q-5 0 -5 5v45q0 5 5 5h330q5 0 5 -5v-45q0 -5 -5 -5h-330z" />
    <glyph glyph-name="k.sc03salt" horiz-adv-x="336" 
d="M52 200q-5 0 -5 5v490q0 5 5 5h45q5 0 5 -5v-226l104 227q2 4 6 4h48q6 0 4 -6l-92 -194l114 -294q2 -6 -4 -6h-54q-4 0 -6 4l-84 223l-36 -77v-145q0 -5 -5 -5h-45zM53 0q-5 0 -5 5v45q0 5 5 5h350q5 0 5 -5v-45q0 -5 -5 -5h-350z" />
    <glyph glyph-name="q.sc03salt" horiz-adv-x="316" 
d="M190 200h-101q-3 0 -7 2l-41 40q-3 3 -3 7v401q0 4 3 7l40 40q3 3 7 3h130q4 0 7 -3l41 -40q3 -3 3 -7v-401q0 -5 -3 -6l-25 -24l25 -27q4 -4 0 -7l-32 -27q-4 -4 -7 1zM93 625v-350l19 -20h82l19 20v350l-19 20h-82zM39 50q0 5 5 5h340q5 0 5 -5v-45q0 -5 -5 -5h-340
q-5 0 -5 5v45z" />
    <glyph glyph-name="y.sc03salt" horiz-adv-x="330" 
d="M138 200q-5 0 -5 5v131h-36q-3 0 -7 2l-42 40q-3 3 -3 7v310q0 5 5 5h45q5 0 5 -5v-284l18 -20h83l19 20v284q0 5 5 5h46q5 0 5 -5v-310q0 -4 -3 -7l-41 -40q-4 -2 -7 -2h-36v-131q0 -5 -5 -5h-46zM51 0q-5 0 -5 5v45q0 5 5 5h340q5 0 5 -5v-45q0 -5 -5 -5h-340z" />
    <glyph glyph-name="a.sc04" horiz-adv-x="300" 
d="M26 200q-6 0 -5 5l98 491q1 4 6 4h43q5 0 6 -4l99 -491q1 -5 -5 -5h-45q-6 0 -6 5l-23 130h-93l-23 -130q0 -5 -6 -5h-46zM112 393h72l-33 181h-7zM135 0q-4 0 -7 3l-14 14q-3 3 -3 7v25q0 4 3 7l14 14q3 3 7 3h25q4 0 7 -3l14 -14q3 -3 3 -7v-25q0 -3 -2 -7l-14 -14
q-3 -3 -7 -3h-26z" />
    <glyph glyph-name="b.sc04" horiz-adv-x="322" 
d="M52 200q-5 0 -5 5v490q0 5 5 5h168q4 0 7 -3l40 -40q3 -3 3 -7v-148q0 -4 -3 -7l-27 -27l27 -27q3 -3 3 -7v-185q0 -4 -3 -7l-40 -39q-3 -3 -7 -3h-168zM102 498h89l23 22v106l-19 19h-93v-147zM102 255h93l19 19v144l-23 23h-89v-186zM147 0q-4 0 -7 3l-14 14q-3 3 -3 7
v25q0 4 3 7l14 14q3 3 7 3h25q4 0 7 -3l14 -14q3 -3 3 -7v-25q0 -3 -2 -7l-14 -14q-3 -3 -7 -3h-26z" />
    <glyph glyph-name="c.sc04" horiz-adv-x="314" 
d="M94 200q-3 0 -7 2l-41 40q-3 3 -3 7v401q0 4 3 7l40 40q3 3 7 3h123q4 0 7 -3l40 -40q3 -3 3 -7v-82q0 -5 -5 -5h-46q-5 0 -5 5v57l-19 20h-74l-19 -20v-350l19 -20h74l19 20v70q0 5 5 5h46q5 0 5 -5v-96q0 -4 -3 -7l-40 -39q-3 -3 -7 -3h-122zM143 0q-4 0 -7 3l-14 14
q-3 3 -3 7v25q0 4 3 7l14 14q3 3 7 3h25q4 0 7 -3l14 -14q3 -3 3 -7v-25q0 -3 -2 -7l-14 -14q-3 -3 -7 -3h-26z" />
    <glyph glyph-name="d.sc04" horiz-adv-x="320" 
d="M52 200q-5 0 -5 5v490q0 5 5 5h168q4 0 7 -3l40 -40q3 -3 3 -7v-401q0 -4 -3 -7l-40 -39q-3 -3 -7 -3h-168zM102 255h93l19 19v352l-19 19h-93v-390zM147 0q-4 0 -7 3l-14 14q-3 3 -3 7v25q0 4 3 7l14 14q3 3 7 3h25q4 0 7 -3l14 -14q3 -3 3 -7v-25q0 -3 -2 -7l-14 -14
q-3 -3 -7 -3h-26z" />
    <glyph glyph-name="e.sc04" horiz-adv-x="305" 
d="M52 200q-5 0 -5 5v490q0 5 5 5h178q5 0 5 -5v-45q0 -5 -5 -5h-128v-155h118q5 0 5 -5v-46q0 -5 -5 -5h-118v-179h146q6 0 5 -5l-8 -45q0 -5 -6 -5h-187zM138 0q-4 0 -7 3l-14 14q-3 3 -3 7v25q0 4 3 7l14 14q3 3 7 3h25q4 0 7 -3l14 -14q3 -3 3 -7v-25q0 -3 -2 -7
l-14 -14q-3 -3 -7 -3h-26z" />
    <glyph glyph-name="f.sc04" horiz-adv-x="269" 
d="M52 200q-5 0 -5 5v490q0 5 5 5h186q5 0 5 -5v-45q0 -5 -5 -5h-136v-155h98q5 0 5 -5v-46q0 -5 -5 -5h-98v-229q0 -5 -5 -5h-45zM133 0q-4 0 -7 3l-14 14q-3 3 -3 7v25q0 4 3 7l14 14q3 3 7 3h25q4 0 7 -3l14 -14q3 -3 3 -7v-25q0 -3 -2 -7l-14 -14q-3 -3 -7 -3h-26z" />
    <glyph glyph-name="g.sc04" horiz-adv-x="316" 
d="M94 200q-3 0 -7 2l-41 40q-3 3 -3 7v401q0 4 3 7l40 40q3 3 7 3h123q4 0 7 -3l40 -40q3 -3 3 -7v-90q0 -5 -5 -5h-46q-5 0 -5 5v65l-19 20h-74l-19 -20v-350l19 -20h74l19 20v150h-77q-5 0 -5 5v46q0 5 5 5h128q5 0 5 -5v-227q0 -4 -3 -7l-40 -39q-3 -3 -7 -3h-122z
M142 0q-4 0 -7 3l-14 14q-3 3 -3 7v25q0 4 3 7l14 14q3 3 7 3h25q4 0 7 -3l14 -14q3 -3 3 -7v-25q0 -3 -2 -7l-14 -14q-3 -3 -7 -3h-26z" />
    <glyph glyph-name="h.sc04" horiz-adv-x="323" 
d="M55 200q-5 0 -5 5v490q0 5 5 5h45q5 0 5 -5v-218h112v218q0 5 5 5h46q5 0 5 -5v-490q0 -5 -5 -5h-46q-5 0 -5 5v216h-112v-216q0 -5 -5 -5h-45zM150 0q-4 0 -7 3l-14 14q-3 3 -3 7v25q0 4 3 7l14 14q3 3 7 3h25q4 0 7 -3l14 -14q3 -3 3 -7v-25q0 -3 -2 -7l-14 -14
q-3 -3 -7 -3h-26z" />
    <glyph glyph-name="i.sc04" horiz-adv-x="150" 
d="M59 200q-5 0 -5 5v490q0 5 5 5h46q5 0 5 -5v-490q0 -5 -5 -5h-46zM69 0q-4 0 -7 3l-14 14q-3 3 -3 7v25q0 4 3 7l14 14q3 3 7 3h25q4 0 7 -3l14 -14q3 -3 3 -7v-25q0 -3 -2 -7l-14 -14q-3 -3 -7 -3h-26z" />
    <glyph glyph-name="j.sc04" horiz-adv-x="271" 
d="M70 200q-3 0 -7 2l-41 40q-3 3 -3 7v121q0 5 5 5h46q5 0 5 -5v-98l18 -17h53l18 19v421q0 5 5 5h46q5 0 5 -5v-446q0 -4 -3 -7l-39 -39q-3 -3 -7 -3h-101zM107 0q-4 0 -7 3l-14 14q-3 3 -3 7v25q0 4 3 7l14 14q3 3 7 3h25q4 0 7 -3l14 -14q3 -3 3 -7v-25q0 -3 -2 -7
l-14 -14q-3 -3 -7 -3h-26z" />
    <glyph glyph-name="k.sc04" horiz-adv-x="336" 
d="M52 200q-5 0 -5 5v490q0 5 5 5h45q5 0 5 -5v-203h17l87 204q2 4 6 4h49q6 0 4 -6l-98 -228l118 -260q2 -6 -3 -6h-54q-4 0 -6 4l-104 231h-16v-230q0 -5 -5 -5h-45zM156 0q-4 0 -7 3l-14 14q-3 3 -3 7v25q0 4 3 7l14 14q3 3 7 3h25q4 0 7 -3l14 -14q3 -3 3 -7v-25
q0 -3 -2 -7l-14 -14q-3 -3 -7 -3h-26z" />
    <glyph glyph-name="l.sc04" horiz-adv-x="238" 
d="M52 200q-5 0 -5 5v490q0 5 5 5h45q5 0 5 -5v-440h105q6 0 5 -5l-8 -45q0 -5 -6 -5h-146zM118 0q-4 0 -7 3l-14 14q-3 3 -3 7v25q0 4 3 7l14 14q3 3 7 3h25q4 0 7 -3l14 -14q3 -3 3 -7v-25q0 -3 -2 -7l-14 -14q-3 -3 -7 -3h-26z" />
    <glyph glyph-name="m.sc04" horiz-adv-x="418" 
d="M49 695q0 5 5 5h45q4 0 5 -4l97 -370h7l96 370q1 4 5 4h46q5 0 5 -5v-490q0 -5 -5 -5h-46q-5 0 -5 5v246h-10l-62 -247q-1 -4 -5 -4h-46q-4 0 -5 4l-62 247h-10v-246q0 -5 -5 -5h-45q-5 0 -5 5v490zM193 0q-4 0 -7 3l-14 14q-3 3 -3 7v25q0 4 3 7l14 14q3 3 7 3h25
q4 0 7 -3l14 -14q3 -3 3 -7v-25q0 -3 -2 -7l-14 -14q-3 -3 -7 -3h-26z" />
    <glyph glyph-name="n.sc04" horiz-adv-x="330" 
d="M47 695q0 5 5 5h45q3 0 5 -4l106 -305h10v304q0 5 5 5h46q5 0 5 -5v-490q0 -5 -5 -5h-46q-3 0 -5 4l-106 306h-10v-305q0 -5 -5 -5h-45q-5 0 -5 5v490zM148 0q-4 0 -7 3l-14 14q-3 3 -3 7v25q0 4 3 7l14 14q3 3 7 3h25q4 0 7 -3l14 -14q3 -3 3 -7v-25q0 -3 -2 -7l-14 -14
q-3 -3 -7 -3h-26z" />
    <glyph glyph-name="o.sc04" horiz-adv-x="326" 
d="M94 200q-3 0 -7 2l-41 40q-3 3 -3 7v401q0 4 3 7l40 40q3 3 7 3h130q4 0 7 -3l41 -40q3 -3 3 -7v-401q0 -4 -3 -7l-41 -40q-4 -2 -7 -2h-129zM117 255h82l19 20v350l-19 20h-82l-19 -20v-350zM146 0q-4 0 -7 3l-14 14q-3 3 -3 7v25q0 4 3 7l14 14q3 3 7 3h25q4 0 7 -3
l14 -14q3 -3 3 -7v-25q0 -3 -2 -7l-14 -14q-3 -3 -7 -3h-26z" />
    <glyph glyph-name="p.sc04" horiz-adv-x="300" 
d="M52 200q-5 0 -5 5v490q0 5 5 5h168q4 0 7 -3l40 -40q3 -3 3 -7v-223q0 -4 -3 -7l-40 -40q-3 -3 -7 -3h-118v-172q0 -5 -5 -5h-45zM102 433h93l19 18v175l-19 19h-93v-212zM146 0q-4 0 -7 3l-14 14q-3 3 -3 7v25q0 4 3 7l14 14q3 3 7 3h25q4 0 7 -3l14 -14q3 -3 3 -7v-25
q0 -3 -2 -7l-14 -14q-3 -3 -7 -3h-26z" />
    <glyph glyph-name="thorn.sc04" horiz-adv-x="300" 
d="M52 200q-5 0 -5 5v490q0 5 5 5h44q5 0 5 -5v-55h119q4 0 7 -3l40 -40q3 -3 3 -7v-223q0 -4 -3 -7l-40 -40q-3 -3 -7 -3h-118v-112q0 -5 -5 -5h-45zM102 373h93l19 18v175l-19 19h-93v-212zM146 0q-4 0 -7 3l-14 14q-3 3 -3 7v25q0 4 3 7l14 14q3 3 7 3h25q4 0 7 -3
l14 -14q3 -3 3 -7v-25q0 -3 -2 -7l-14 -14q-3 -3 -7 -3h-26z" />
    <glyph glyph-name="q.sc04" horiz-adv-x="316" 
d="M130 161q-5 0 -5 5v34h-36q-3 0 -7 2l-41 40q-3 3 -3 7v401q0 4 3 7l40 40q3 3 7 3h130q4 0 7 -3l41 -40q3 -3 3 -7v-401q0 -4 -3 -7l-41 -40q-4 -2 -7 -2h-37v-34q0 -5 -5 -5h-46zM112 255h82l19 20v350l-19 20h-82l-19 -20v-350zM141 0q-4 0 -7 3l-14 14q-3 3 -3 7v25
q0 4 3 7l14 14q3 3 7 3h25q4 0 7 -3l14 -14q3 -3 3 -7v-25q0 -3 -2 -7l-14 -14q-3 -3 -7 -3h-26z" />
    <glyph glyph-name="r.sc04" horiz-adv-x="320" 
d="M52 200q-5 0 -5 5v490q0 5 5 5h167q4 0 7 -3l41 -40q3 -3 3 -7v-223q0 -4 -3 -7l-40 -40q-3 -3 -7 -3h-18l75 -171q2 -6 -3 -6h-51q-4 0 -6 4l-78 173h-37v-172q0 -5 -5 -5h-45zM102 433h93l19 18v175l-19 19h-93v-212zM151 0q-4 0 -7 3l-14 14q-3 3 -3 7v25q0 4 3 7
l14 14q3 3 7 3h25q4 0 7 -3l14 -14q3 -3 3 -7v-25q0 -3 -2 -7l-14 -14q-3 -3 -7 -3h-26z" />
    <glyph glyph-name="s.sc04" horiz-adv-x="307" 
d="M89 200q-3 0 -7 2l-42 40q-3 3 -3 7v92q0 5 5 5h45q5 0 5 -5v-66l18 -20h75l19 19v143l-19 17h-99q-4 0 -7 3l-39 39q-3 3 -3 7v167q0 4 3 7l39 40q3 3 7 3h124q4 0 7 -3l40 -40q3 -3 3 -7v-83q0 -5 -5 -5h-46q-5 0 -5 5v59l-19 19h-75l-18 -19v-117l19 -18h97q4 0 7 -3
l42 -41q3 -3 3 -7v-191q0 -4 -3 -7l-40 -39q-3 -3 -7 -3h-121zM137 0q-4 0 -7 3l-14 14q-3 3 -3 7v25q0 4 3 7l14 14q3 3 7 3h25q4 0 7 -3l14 -14q3 -3 3 -7v-25q0 -3 -2 -7l-14 -14q-3 -3 -7 -3h-26z" />
    <glyph glyph-name="t.sc04" horiz-adv-x="258" 
d="M103 200q-5 0 -5 5v440h-71q-5 0 -5 5v45q0 5 5 5h198q5 0 5 -5v-45q0 -5 -5 -5h-70v-440q0 -5 -5 -5h-47zM114 0q-4 0 -7 3l-14 14q-3 3 -3 7v25q0 4 3 7l14 14q3 3 7 3h25q4 0 7 -3l14 -14q3 -3 3 -7v-25q0 -3 -2 -7l-14 -14q-3 -3 -7 -3h-26z" />
    <glyph glyph-name="u.sc04" horiz-adv-x="330" 
d="M97 200q-3 0 -7 2l-42 40q-3 3 -3 7v446q0 5 5 5h45q5 0 5 -5v-420l18 -20h83l19 20v420q0 5 5 5h46q5 0 5 -5v-446q0 -4 -3 -7l-41 -40q-4 -2 -7 -2h-128zM148 0q-4 0 -7 3l-14 14q-3 3 -3 7v25q0 4 3 7l14 14q3 3 7 3h25q4 0 7 -3l14 -14q3 -3 3 -7v-25q0 -3 -2 -7
l-14 -14q-3 -3 -7 -3h-26z" />
    <glyph glyph-name="v.sc04" horiz-adv-x="282" 
d="M23 695q-1 5 5 5h47q6 0 6 -5l56 -370h8l57 370q0 5 6 5h45q5 0 4 -5l-87 -490q0 -5 -6 -5h-45q-6 0 -6 5zM128 0q-4 0 -7 3l-14 14q-3 3 -3 7v25q0 4 3 7l14 14q3 3 7 3h25q4 0 7 -3l14 -14q3 -3 3 -7v-25q0 -3 -2 -7l-14 -14q-3 -3 -7 -3h-26z" />
    <glyph glyph-name="w.sc04" horiz-adv-x="454" 
d="M34 695q0 5 4 5h43q6 0 6 -5l40 -365h8l58 365q0 5 6 5h48q6 0 6 -5l59 -362h8l40 362q0 5 6 5h41q4 0 4 -5l-63 -490q0 -5 -6 -5h-49q-6 0 -6 5l-61 344h-8l-61 -344q0 -5 -6 -5h-47q-6 0 -6 5zM210 0q-4 0 -7 3l-14 14q-3 3 -3 7v25q0 4 3 7l14 14q3 3 7 3h25q4 0 7 -3
l14 -14q3 -3 3 -7v-25q0 -3 -2 -7l-14 -14q-3 -3 -7 -3h-26z" />
    <glyph glyph-name="x.sc04" horiz-adv-x="311" 
d="M123 463l-76 231q-1 6 4 6h47q3 0 5 -4l45 -152h7l45 152q2 4 5 4h47q6 0 4 -6l-76 -231l86 -257q2 -6 -4 -6h-48q-3 0 -5 4l-55 178h-7l-53 -178q-2 -4 -5 -4h-48q-5 0 -4 6zM140 0q-4 0 -7 3l-14 14q-3 3 -3 7v25q0 4 3 7l14 14q3 3 7 3h25q4 0 7 -3l14 -14q3 -3 3 -7
v-25q0 -3 -2 -7l-14 -14q-3 -3 -7 -3h-26z" />
    <glyph glyph-name="y.sc04" horiz-adv-x="252" 
d="M94 392l-80 302q-2 6 5 6h45q4 0 5 -4l50 -209h8l48 209q1 4 5 4h45q7 0 5 -6l-79 -302v-187q0 -5 -5 -5h-47q-5 0 -5 5v187zM110 0q-4 0 -7 3l-14 14q-3 3 -3 7v25q0 4 3 7l14 14q3 3 7 3h25q4 0 7 -3l14 -14q3 -3 3 -7v-25q0 -3 -2 -7l-14 -14q-3 -3 -7 -3h-26z" />
    <glyph glyph-name="z.sc04" horiz-adv-x="316" 
d="M52 200q-5 0 -5 5v44q0 3 1 6l153 380v10h-149q-5 0 -5 5v45q0 5 5 5h205q5 0 5 -5v-44q0 -3 -1 -6l-153 -380v-10h149q5 0 5 -5v-45q0 -5 -5 -5h-205zM142 0q-4 0 -7 3l-14 14q-3 3 -3 7v25q0 4 3 7l14 14q3 3 7 3h25q4 0 7 -3l14 -14q3 -3 3 -7v-25q0 -3 -2 -7l-14 -14
q-3 -3 -7 -3h-26z" />
    <glyph glyph-name="a.sc04salt" horiz-adv-x="330" 
d="M50 200q-5 0 -5 5v446q0 5 3 6l42 41q4 2 7 2h128q3 0 7 -2l41 -40q3 -3 3 -7v-446q0 -5 -5 -5h-46q-5 0 -5 5v134h-120v-134q0 -5 -5 -5h-45zM100 399h120v226l-19 20h-83l-18 -20v-226zM149 0q-4 0 -7 3l-14 14q-3 3 -3 7v25q0 4 3 7l14 14q3 3 7 3h25q4 0 7 -3l14 -14
q3 -3 3 -7v-25q0 -3 -2 -7l-14 -14q-3 -3 -7 -3h-26z" />
    <glyph glyph-name="b.sc04salt" horiz-adv-x="322" 
d="M52 200q-5 0 -5 5v490q0 5 5 5h168q4 0 7 -3l40 -40q3 -3 3 -7v-118q0 -4 -3 -7l-27 -27l27 -27q3 -3 3 -7v-215q0 -4 -3 -7l-40 -39q-3 -3 -7 -3h-168zM102 468l88 64l24 18v76l-19 19h-93v-177zM102 255h93l19 19v174l-23 23l-89 -60v-156zM147 0q-4 0 -7 3l-14 14
q-3 3 -3 7v25q0 4 3 7l14 14q3 3 7 3h25q4 0 7 -3l14 -14q3 -3 3 -7v-25q0 -3 -2 -7l-14 -14q-3 -3 -7 -3h-26z" />
    <glyph glyph-name="e.sc04salt" horiz-adv-x="305" 
d="M98 200q-3 0 -7 2l-41 40q-3 3 -3 7v446q0 5 5 5h178q5 0 5 -5v-45q0 -5 -5 -5h-128v-155h118q5 0 5 -5v-46q0 -5 -5 -5h-118v-159l19 -20h127q6 0 5 -5l-8 -45q0 -5 -6 -5h-141zM139 0q-4 0 -7 3l-14 14q-3 3 -3 7v25q0 4 3 7l14 14q3 3 7 3h25q4 0 7 -3l14 -14
q3 -3 3 -7v-25q0 -3 -2 -7l-14 -14q-3 -3 -7 -3h-26z" />
    <glyph glyph-name="g.sc04salt" horiz-adv-x="316" 
d="M94 200q-3 0 -7 2l-41 40q-3 3 -3 7v401q0 4 3 7l40 40q3 3 7 3h123q4 0 7 -3l40 -40q3 -3 3 -7v-90q0 -5 -5 -5h-46q-5 0 -5 5v65l-19 20h-74l-19 -20v-350l19 -20h74l19 20v150h-76q-6 0 -5 6l13 46q2 4 5 4h114q5 0 5 -5v-227q0 -4 -3 -7l-40 -39q-3 -3 -7 -3h-122z
M142 0q-4 0 -7 3l-14 14q-3 3 -3 7v25q0 4 3 7l14 14q3 3 7 3h25q4 0 7 -3l14 -14q3 -3 3 -7v-25q0 -3 -2 -7l-14 -14q-3 -3 -7 -3h-26z" />
    <glyph glyph-name="j.sc04salt" horiz-adv-x="271" 
d="M70 200q-3 0 -7 2l-41 40q-3 3 -3 7v82q0 3 3 6l47 34q6 5 6 -3v-96l18 -17h53l18 19v421q0 5 5 5h46q5 0 5 -5v-446q0 -4 -3 -7l-39 -39q-3 -3 -7 -3h-101zM108 0q-4 0 -7 3l-14 14q-3 3 -3 7v25q0 4 3 7l14 14q3 3 7 3h25q4 0 7 -3l14 -14q3 -3 3 -7v-25q0 -3 -2 -7
l-14 -14q-3 -3 -7 -3h-26z" />
    <glyph glyph-name="k.sc04salt" horiz-adv-x="336" 
d="M52 200q-5 0 -5 5v490q0 5 5 5h45q5 0 5 -5v-226l104 227q2 4 6 4h48q6 0 4 -6l-92 -194l114 -294q2 -6 -4 -6h-54q-4 0 -6 4l-84 223l-36 -77v-145q0 -5 -5 -5h-45zM155 0q-4 0 -7 3l-14 14q-3 3 -3 7v25q0 4 3 7l14 14q3 3 7 3h25q4 0 7 -3l14 -14q3 -3 3 -7v-25
q0 -3 -2 -7l-14 -14q-3 -3 -7 -3h-26z" />
    <glyph glyph-name="q.sc04salt" horiz-adv-x="316" 
d="M241 219l25 -27q4 -4 0 -7l-32 -27q-4 -4 -7 1l-37 41h-101q-3 0 -7 2l-41 40q-3 3 -3 7v401q0 4 3 7l40 40q3 3 7 3h130q4 0 7 -3l41 -40q3 -3 3 -7v-401q0 -5 -3 -6zM93 275l19 -20h82l19 20v350l-19 20h-82l-19 -20v-350zM135 70q3 3 7 3h25q4 0 7 -3l14 -14
q3 -3 3 -7v-25q0 -3 -2 -7l-14 -14q-3 -3 -7 -3h-26q-4 0 -7 3l-14 14q-3 3 -3 7v25q0 4 3 7z" />
    <glyph glyph-name="y.sc04salt" horiz-adv-x="330" 
d="M138 200q-5 0 -5 5v131h-36q-3 0 -7 2l-42 40q-3 3 -3 7v310q0 5 5 5h45q5 0 5 -5v-284l18 -20h83l19 20v284q0 5 5 5h46q5 0 5 -5v-310q0 -4 -3 -7l-41 -40q-4 -2 -7 -2h-36v-131q0 -5 -5 -5h-46zM148 0q-4 0 -7 3l-14 14q-3 3 -3 7v25q0 4 3 7l14 14q3 3 7 3h25
q4 0 7 -3l14 -14q3 -3 3 -7v-25q0 -3 -2 -7l-14 -14q-3 -3 -7 -3h-26z" />
    <glyph glyph-name="aacute.smcp" horiz-adv-x="300" 
d="M142 551q-6 0 -4 6l25 66q2 4 5 4h52q7 0 3 -6l-48 -67q-1 -3 -6 -3h-27zM26 0q-6 0 -5 5l98 491q1 4 6 4h43q5 0 6 -4l99 -491q1 -5 -5 -5h-45q-6 0 -6 5l-23 130h-93l-23 -130q0 -5 -6 -5h-46zM112 193h72l-33 181h-7z" />
    <glyph glyph-name="abreve.smcp" horiz-adv-x="300" 
d="M105 550q-4 0 -7 3l-47 48q-3 3 -3 7v34q0 5 5 5h39q5 0 5 -5v-10l34 -33h36l31 33v10q0 5 5 5h42q5 0 5 -5v-34q0 -4 -3 -7l-49 -48q-3 -3 -7 -3h-86zM26 0q-6 0 -5 5l98 491q1 4 6 4h43q5 0 6 -4l99 -491q1 -5 -5 -5h-45q-6 0 -6 5l-23 130h-93l-23 -130q0 -5 -6 -5
h-46zM112 193h72l-33 181h-7z" />
    <glyph glyph-name="acircumflex.smcp" horiz-adv-x="300" 
d="M59 551q-8 0 -3 6l60 70q2 3 6 3h54q4 0 6 -3l60 -70q4 -6 -3 -6h-51q-4 0 -6 3l-33 39l-33 -39q-2 -3 -6 -3h-51zM26 0q-6 0 -5 5l98 491q1 4 6 4h43q5 0 6 -4l99 -491q1 -5 -5 -5h-45q-6 0 -6 5l-23 130h-93l-23 -130q0 -5 -6 -5h-46zM112 193h72l-33 181h-7z" />
    <glyph glyph-name="adieresis.smcp" horiz-adv-x="300" 
d="M58 550q-5 0 -5 5v55q0 5 5 5h55q5 0 5 -5v-55q0 -5 -5 -5h-55zM184 550q-5 0 -5 5v55q0 5 5 5h55q5 0 5 -5v-55q0 -5 -5 -5h-55zM26 0q-6 0 -5 5l98 491q1 4 6 4h43q5 0 6 -4l99 -491q1 -5 -5 -5h-45q-6 0 -6 5l-23 130h-93l-23 -130q0 -5 -6 -5h-46zM112 193h72
l-33 181h-7z" />
    <glyph glyph-name="agrave.smcp" horiz-adv-x="300" 
d="M130 551q-4 0 -6 3l-46 68q-4 6 3 6h52q3 0 5 -4l23 -67q1 -6 -4 -6h-27zM26 0q-6 0 -5 5l98 491q1 4 6 4h43q5 0 6 -4l99 -491q1 -5 -5 -5h-45q-6 0 -6 5l-23 130h-93l-23 -130q0 -5 -6 -5h-46zM112 193h72l-33 181h-7z" />
    <glyph glyph-name="amacron.smcp" horiz-adv-x="300" 
d="M51 550q-5 0 -5 5v37q0 5 5 5h196q5 0 5 -5v-37q0 -5 -5 -5h-196zM26 0q-6 0 -5 5l98 491q1 4 6 4h43q5 0 6 -4l99 -491q1 -5 -5 -5h-45q-6 0 -6 5l-23 130h-93l-23 -130q0 -5 -6 -5h-46zM112 193h72l-33 181h-7z" />
    <glyph glyph-name="aogonek.smcp" horiz-adv-x="300" 
d="M198 -166q-4 0 -7 3l-36 37q-3 3 -3 7v73q0 4 3 6l63 40l-24 135h-93l-23 -130q0 -5 -6 -5h-46q-6 0 -5 5l98 491q1 4 6 4h43q5 0 6 -4l99 -492q0 -4 -2 -6l-74 -57v-45l15 -16h51l14 16v17q0 5 5 5h35q5 0 5 -5v-26q0 -2 -2 -6l-37 -44q-1 -3 -6 -3h-79zM112 193h72
l-36 201z" />
    <glyph glyph-name="aring.smcp" horiz-adv-x="300" 
d="M112 551q-4 0 -7 3l-25 25q-3 3 -3 7v71q0 4 3 7l26 26q3 3 7 3h71q4 0 7 -3l26 -25q3 -3 3 -7v-72q0 -4 -3 -7l-25 -25q-3 -3 -7 -3h-73zM117 590h63v63h-63v-63zM26 0q-6 0 -5 5l98 491q1 4 6 4h43q5 0 6 -4l99 -491q1 -5 -5 -5h-45q-6 0 -6 5l-23 130h-93l-23 -130
q0 -5 -6 -5h-46zM112 193h72l-33 181h-7z" />
    <glyph glyph-name="atilde.smcp" horiz-adv-x="300" 
d="M43 551q-5 0 -5 5v38q0 4 3 6l39 35q4 2 7 2h36q3 0 7 -2l43 -37h38v34q0 5 5 5h39q5 0 5 -5v-38q0 -4 -3 -6l-39 -35q-4 -2 -7 -2h-37q-3 0 -7 2l-43 37h-37v-34q0 -5 -5 -5h-39zM26 0q-6 0 -5 5l98 491q1 4 6 4h43q5 0 6 -4l99 -491q1 -5 -5 -5h-45q-6 0 -6 5l-23 130
h-93l-23 -130q0 -5 -6 -5h-46zM112 193h72l-33 181h-7z" />
    <glyph glyph-name="ae.smcp" horiz-adv-x="449" 
d="M26 0q-6 0 -4 6l186 490q2 4 6 4h187q5 0 5 -5v-45q0 -5 -5 -5h-128v-155h98q5 0 5 -5v-46q0 -5 -5 -5h-98v-179h147q5 0 5 -5v-45q0 -5 -5 -5h-197q-5 0 -5 5v130h-93l-47 -131q-2 -4 -5 -4h-47zM147 193h71v198z" />
    <glyph glyph-name="cacute.smcp" horiz-adv-x="314" 
d="M144 550q-6 0 -4 6l25 66q2 4 5 4h52q7 0 3 -6l-48 -67q-1 -3 -6 -3h-27zM94 0q-3 0 -7 2l-41 40q-3 3 -3 7v401q0 4 3 7l40 40q3 3 7 3h123q4 0 7 -3l40 -40q3 -3 3 -7v-82q0 -5 -5 -5h-46q-5 0 -5 5v57l-19 20h-74l-19 -20v-350l19 -20h74l19 20v70q0 5 5 5h46
q5 0 5 -5v-96q0 -4 -3 -7l-40 -39q-3 -3 -7 -3h-122z" />
    <glyph glyph-name="ccaron.smcp" horiz-adv-x="314" 
d="M124 549q-4 0 -6 3l-60 70q-4 6 3 6h51q4 0 6 -3l33 -39l33 39q2 3 6 3h51q7 0 3 -6l-60 -70q-2 -3 -6 -3h-54zM94 0q-3 0 -7 2l-41 40q-3 3 -3 7v401q0 4 3 7l40 40q3 3 7 3h123q4 0 7 -3l40 -40q3 -3 3 -7v-82q0 -5 -5 -5h-46q-5 0 -5 5v57l-19 20h-74l-19 -20v-350
l19 -20h74l19 20v70q0 5 5 5h46q5 0 5 -5v-96q0 -4 -3 -7l-40 -39q-3 -3 -7 -3h-122z" />
    <glyph glyph-name="ccedilla.smcp" horiz-adv-x="314" 
d="M223 -28q4 0 6 -2l43 -33q3 -1 3 -6v-75q0 -4 -3 -6l-45 -40q-4 -2 -7 -2h-77q-5 0 -5 5v35q0 5 5 5h58l32 24v31l-32 22h-60q-5 0 -5 5v65h-42q-3 0 -7 2l-41 40q-3 3 -3 7v401q0 4 3 7l40 40q3 3 7 3h123q4 0 7 -3l40 -40q3 -3 3 -7v-82q0 -5 -5 -5h-46q-5 0 -5 5v57
l-19 20h-74l-19 -20v-350l19 -20h74l19 20v70q0 5 5 5h46q5 0 5 -5v-96q0 -4 -3 -7l-40 -39q-3 -3 -7 -3h-37v-28h44z" />
    <glyph glyph-name="eth.smcp" horiz-adv-x="320" 
d="M220 500q4 0 7 -3l40 -40q3 -3 3 -7v-401q0 -4 -3 -7l-40 -39q-3 -3 -7 -3h-168q-5 0 -5 5v234h-41q-5 0 -5 5v37q0 5 5 5h41v209q0 5 5 5h168zM214 74v352l-19 19h-93v-159h45q5 0 5 -5v-37q0 -5 -5 -5h-45v-184h93z" />
    <glyph glyph-name="dcaron.smcp" horiz-adv-x="320" 
d="M124 550q-4 0 -6 3l-60 70q-4 6 3 6h51q4 0 6 -3l33 -39l33 39q2 3 6 3h51q7 0 3 -6l-60 -70q-2 -3 -6 -3h-54zM52 0q-5 0 -5 5v490q0 5 5 5h168q4 0 7 -3l40 -40q3 -3 3 -7v-401q0 -4 -3 -7l-40 -39q-3 -3 -7 -3h-168zM102 55h93l19 19v352l-19 19h-93v-390z" />
    <glyph glyph-name="dcroat.smcp" horiz-adv-x="320" 
d="M220 500q4 0 7 -3l40 -40q3 -3 3 -7v-401q0 -4 -3 -7l-40 -39q-3 -3 -7 -3h-168q-5 0 -5 5v234h-41q-5 0 -5 5v37q0 5 5 5h41v209q0 5 5 5h168zM214 74v352l-19 19h-93v-159h45q5 0 5 -5v-37q0 -5 -5 -5h-45v-184h93z" />
    <glyph glyph-name="eacute.smcp" horiz-adv-x="305" 
d="M134 551q-6 0 -4 6l25 66q2 4 5 4h52q7 0 3 -6l-48 -67q-1 -3 -6 -3h-27zM52 0q-5 0 -5 5v490q0 5 5 5h178q5 0 5 -5v-45q0 -5 -5 -5h-128v-155h118q5 0 5 -5v-46q0 -5 -5 -5h-118v-179h146q6 0 5 -5l-8 -45q0 -5 -6 -5h-187z" />
    <glyph glyph-name="ecaron.smcp" horiz-adv-x="305" 
d="M114 550q-4 0 -6 3l-60 70q-4 6 3 6h51q4 0 6 -3l33 -39l33 39q2 3 6 3h51q7 0 3 -6l-60 -70q-2 -3 -6 -3h-54zM52 0q-5 0 -5 5v490q0 5 5 5h178q5 0 5 -5v-45q0 -5 -5 -5h-128v-155h118q5 0 5 -5v-46q0 -5 -5 -5h-118v-179h146q6 0 5 -5l-8 -45q0 -5 -6 -5h-187z" />
    <glyph glyph-name="ecircumflex.smcp" horiz-adv-x="305" 
d="M51 551q-7 0 -3 6l60 70q2 3 6 3h54q4 0 6 -3l60 -70q4 -6 -3 -6h-51q-4 0 -6 3l-33 39l-33 -39q-2 -3 -6 -3h-51zM52 0q-5 0 -5 5v490q0 5 5 5h178q5 0 5 -5v-45q0 -5 -5 -5h-128v-155h118q5 0 5 -5v-46q0 -5 -5 -5h-118v-179h146q6 0 5 -5l-8 -45q0 -5 -6 -5h-187z" />
    <glyph glyph-name="edieresis.smcp" horiz-adv-x="305" 
d="M50 550q-5 0 -5 5v55q0 5 5 5h55q5 0 5 -5v-55q0 -5 -5 -5h-55zM176 550q-5 0 -5 5v55q0 5 5 5h55q5 0 5 -5v-55q0 -5 -5 -5h-55zM52 0q-5 0 -5 5v490q0 5 5 5h178q5 0 5 -5v-45q0 -5 -5 -5h-128v-155h118q5 0 5 -5v-46q0 -5 -5 -5h-118v-179h146q6 0 5 -5l-8 -45
q0 -5 -6 -5h-187z" />
    <glyph glyph-name="edotaccent.smcp" horiz-adv-x="305" 
d="M106 575q-5 0 -5 5v65q0 5 5 5h65q5 0 5 -5v-65q0 -5 -5 -5h-65zM52 0q-5 0 -5 5v490q0 5 5 5h178q5 0 5 -5v-45q0 -5 -5 -5h-128v-155h118q5 0 5 -5v-46q0 -5 -5 -5h-118v-179h146q6 0 5 -5l-8 -45q0 -5 -6 -5h-187z" />
    <glyph glyph-name="egrave.smcp" horiz-adv-x="305" 
d="M122 551q-4 0 -6 3l-46 68q-4 6 3 6h52q3 0 5 -4l23 -67q1 -6 -4 -6h-27zM52 0q-5 0 -5 5v490q0 5 5 5h178q5 0 5 -5v-45q0 -5 -5 -5h-128v-155h118q5 0 5 -5v-46q0 -5 -5 -5h-118v-179h146q6 0 5 -5l-8 -45q0 -5 -6 -5h-187z" />
    <glyph glyph-name="emacron.smcp" horiz-adv-x="305" 
d="M43 550q-5 0 -5 5v37q0 5 5 5h196q5 0 5 -5v-37q0 -5 -5 -5h-196zM52 0q-5 0 -5 5v490q0 5 5 5h178q5 0 5 -5v-45q0 -5 -5 -5h-128v-155h118q5 0 5 -5v-46q0 -5 -5 -5h-118v-179h146q6 0 5 -5l-8 -45q0 -5 -6 -5h-187z" />
    <glyph glyph-name="eogonek.smcp" horiz-adv-x="305" 
d="M247 -87q0 5 5 5h35q5 0 5 -5v-26q0 -2 -2 -6l-37 -44q-1 -3 -6 -3h-79q-4 0 -7 3l-36 37q-3 3 -3 7v73q0 3 3 6l57 40h-130q-5 0 -5 5v490q0 5 5 5h178q5 0 5 -5v-45q0 -5 -5 -5h-128v-155h118q5 0 5 -5v-46q0 -5 -5 -5h-118v-179h146q6 0 5 -5l-8 -46q0 -4 -4 -6
l-74 -57v-45l15 -16h51l14 16v17z" />
    <glyph glyph-name="uni0123.smcp" horiz-adv-x="316" 
d="M94 0q-3 0 -7 2l-41 40q-3 3 -3 7v401q0 4 3 7l40 40q3 3 7 3h123q4 0 7 -3l40 -40q3 -3 3 -7v-90q0 -5 -5 -5h-46q-5 0 -5 5v65l-19 20h-74l-19 -20v-350l19 -20h74l19 20v150h-77q-5 0 -5 5v46q0 5 5 5h128q5 0 5 -5v-227q0 -4 -3 -7l-40 -39q-3 -3 -7 -3h-122z
M131 -181q-5 0 -5 5v120q0 5 5 5h51q5 0 5 -5v-52q0 -3 -1 -6l-25 -63q-2 -4 -6 -4h-24z" />
    <glyph glyph-name="iacute.smcp" horiz-adv-x="150" 
d="M67 550q-5 0 -4 6l25 66q2 4 5 4h52q7 0 3 -6l-48 -67q-2 -3 -6 -3h-27zM50 0q-5 0 -5 5v490q0 5 5 5h46q5 0 5 -5v-490q0 -5 -5 -5h-46z" />
    <glyph glyph-name="icircumflex.smcp" horiz-adv-x="150" 
d="M-16 550q-8 0 -3 6l60 70q1 3 6 3h54q5 0 6 -3l60 -70q4 -6 -3 -6h-51q-5 0 -6 3l-33 39l-33 -39q-1 -3 -6 -3h-51zM50 0q-5 0 -5 5v490q0 5 5 5h46q5 0 5 -5v-490q0 -5 -5 -5h-46z" />
    <glyph glyph-name="idieresis.smcp" horiz-adv-x="150" 
d="M-17 549q-5 0 -5 5v55q0 5 5 5h55q5 0 5 -5v-55q0 -5 -5 -5h-55zM109 549q-5 0 -5 5v55q0 5 5 5h55q5 0 5 -5v-55q0 -5 -5 -5h-55zM50 0q-5 0 -5 5v490q0 5 5 5h46q5 0 5 -5v-490q0 -5 -5 -5h-46z" />
    <glyph glyph-name="igrave.smcp" horiz-adv-x="150" 
d="M55 550q-5 0 -6 3l-46 68q-4 6 3 6h52q3 0 5 -4l23 -67q2 -6 -4 -6h-27zM50 0q-5 0 -5 5v490q0 5 5 5h46q5 0 5 -5v-490q0 -5 -5 -5h-46z" />
    <glyph glyph-name="imacron.smcp" horiz-adv-x="150" 
d="M-24 549q-5 0 -5 5v37q0 5 5 5h196q5 0 5 -5v-37q0 -5 -5 -5h-196zM50 0q-5 0 -5 5v490q0 5 5 5h46q5 0 5 -5v-490q0 -5 -5 -5h-46z" />
    <glyph glyph-name="iogonek.smcp" horiz-adv-x="150" 
d="M-18 -126q-3 3 -3 7v73q0 4 3 6l63 40v495q0 5 5 5h46q5 0 5 -5v-491q0 -4 -3 -6l-74 -57v-45l15 -16h51l14 16v17q0 5 5 5h35q5 0 5 -5v-26q0 -2 -2 -6l-37 -44q-2 -3 -6 -3h-79q-4 0 -7 3z" />
    <glyph glyph-name="uni0137.smcp" horiz-adv-x="336" 
d="M52 0q-5 0 -5 5v490q0 5 5 5h45q5 0 5 -5v-203h17l87 204q2 4 6 4h49q6 0 4 -6l-98 -228l118 -260q2 -6 -3 -6h-54q-4 0 -6 4l-104 231h-16v-230q0 -5 -5 -5h-45zM129 -180q-5 0 -5 5v120q0 5 5 5h51q5 0 5 -5v-52q0 -3 -1 -6l-25 -63q-2 -4 -6 -4h-24z" />
    <glyph glyph-name="lacute.smcp" horiz-adv-x="238" 
d="M97 551q-5 0 -4 6l25 66q2 4 5 4h52q7 0 3 -6l-48 -67q-2 -3 -6 -3h-27zM52 0q-5 0 -5 5v490q0 5 5 5h45q5 0 5 -5v-440h105q6 0 5 -5l-8 -45q0 -5 -6 -5h-146z" />
    <glyph glyph-name="lcaron.smcp" horiz-adv-x="238" 
d="M77 550q-5 0 -6 3l-60 70q-5 6 3 6h51q5 0 6 -3l33 -39l33 39q1 3 6 3h51q7 0 3 -6l-60 -70q-1 -3 -6 -3h-54zM52 0q-5 0 -5 5v490q0 5 5 5h45q5 0 5 -5v-440h105q6 0 5 -5l-8 -45q0 -5 -6 -5h-146z" />
    <glyph glyph-name="uni013C.smcp" horiz-adv-x="238" 
d="M52 0q-5 0 -5 5v490q0 5 5 5h45q5 0 5 -5v-440h105q6 0 5 -5l-8 -45q0 -5 -6 -5h-146zM104 -181q-5 0 -5 5v120q0 5 5 5h51q5 0 5 -5v-52q0 -3 -1 -6l-25 -63q-2 -4 -6 -4h-24z" />
    <glyph glyph-name="lslash.smcp" horiz-adv-x="238" 
d="M102 55h105q6 0 5 -5l-8 -45q0 -5 -6 -5h-146q-5 0 -5 5v189l-22 -13q-6 -4 -6 3v41q0 4 3 6l25 15v249q0 5 5 5h45q5 0 5 -5v-216l55 32q6 4 6 -3v-41q0 -4 -3 -6l-58 -34v-172z" />
    <glyph glyph-name="nacute.smcp" horiz-adv-x="330" 
d="M145 550q-5 0 -4 6l25 66q2 4 5 4h52q7 0 3 -6l-48 -67q-2 -3 -6 -3h-27zM47 495q0 5 5 5h45q3 0 5 -4l106 -305h10v304q0 5 5 5h46q5 0 5 -5v-490q0 -5 -5 -5h-46q-3 0 -5 4l-106 306h-10v-305q0 -5 -5 -5h-45q-5 0 -5 5v490z" />
    <glyph glyph-name="ncaron.smcp" horiz-adv-x="330" 
d="M125 549q-5 0 -6 3l-60 70q-5 6 3 6h51q5 0 6 -3l33 -39l33 39q1 3 6 3h51q7 0 3 -6l-60 -70q-1 -3 -6 -3h-54zM47 495q0 5 5 5h45q3 0 5 -4l106 -305h10v304q0 5 5 5h46q5 0 5 -5v-490q0 -5 -5 -5h-46q-3 0 -5 4l-106 306h-10v-305q0 -5 -5 -5h-45q-5 0 -5 5v490z" />
    <glyph glyph-name="uni0146.smcp" horiz-adv-x="330" 
d="M47 495q0 5 5 5h45q3 0 5 -4l106 -305h10v304q0 5 5 5h46q5 0 5 -5v-490q0 -5 -5 -5h-46q-3 0 -5 4l-106 306h-10v-305q0 -5 -5 -5h-45q-5 0 -5 5v490zM130 -181q-5 0 -5 5v120q0 5 5 5h51q5 0 5 -5v-52q0 -3 -1 -6l-25 -63q-2 -4 -6 -4h-24z" />
    <glyph glyph-name="eng.smcp" horiz-adv-x="330" 
d="M124 -178q-3 0 -7 2l-41 40q-3 3 -3 7v63q0 5 5 5h46q5 0 5 -5v-40l18 -17h53l18 19v107l-106 307h-10v-305q0 -5 -5 -5h-45q-5 0 -5 5v490q0 5 5 5h45q3 0 5 -4l106 -305h10v304q0 5 5 5h46q5 0 5 -5v-624q0 -4 -3 -7l-39 -39q-3 -3 -7 -3h-101z" />
    <glyph glyph-name="ntilde.smcp" horiz-adv-x="330" 
d="M46 550q-5 0 -5 5v38q0 5 3 6l39 35q4 2 7 2h36q3 0 7 -2l43 -37h38v34q0 5 5 5h39q5 0 5 -5v-38q0 -5 -3 -6l-39 -35q-4 -2 -7 -2h-37q-3 0 -7 2l-43 37h-37v-34q0 -5 -5 -5h-39zM47 495q0 5 5 5h45q3 0 5 -4l106 -305h10v304q0 5 5 5h46q5 0 5 -5v-490q0 -5 -5 -5h-46
q-3 0 -5 4l-106 306h-10v-305q0 -5 -5 -5h-45q-5 0 -5 5v490z" />
    <glyph glyph-name="oacute.smcp" horiz-adv-x="326" 
d="M156 546q-6 0 -4 6l25 66q2 4 5 4h52q7 0 3 -6l-48 -67q-1 -3 -6 -3h-27zM94 0q-3 0 -7 2l-41 40q-3 3 -3 7v401q0 4 3 7l40 40q3 3 7 3h130q4 0 7 -3l41 -40q3 -3 3 -7v-401q0 -4 -3 -7l-41 -40q-4 -2 -7 -2h-129zM117 55h82l19 20v350l-19 20h-82l-19 -20v-350z" />
    <glyph glyph-name="ocircumflex.smcp" horiz-adv-x="326" 
d="M73 546q-8 0 -3 6l60 70q2 3 6 3h54q4 0 6 -3l60 -70q4 -6 -3 -6h-51q-4 0 -6 3l-33 39l-33 -39q-2 -3 -6 -3h-51zM94 0q-3 0 -7 2l-41 40q-3 3 -3 7v401q0 4 3 7l40 40q3 3 7 3h130q4 0 7 -3l41 -40q3 -3 3 -7v-401q0 -4 -3 -7l-41 -40q-4 -2 -7 -2h-129zM117 55h82
l19 20v350l-19 20h-82l-19 -20v-350z" />
    <glyph glyph-name="odieresis.smcp" horiz-adv-x="326" 
d="M72 545q-5 0 -5 5v55q0 5 5 5h55q5 0 5 -5v-55q0 -5 -5 -5h-55zM198 545q-5 0 -5 5v55q0 5 5 5h55q5 0 5 -5v-55q0 -5 -5 -5h-55zM94 0q-3 0 -7 2l-41 40q-3 3 -3 7v401q0 4 3 7l40 40q3 3 7 3h130q4 0 7 -3l41 -40q3 -3 3 -7v-401q0 -4 -3 -7l-41 -40q-4 -2 -7 -2h-129z
M117 55h82l19 20v350l-19 20h-82l-19 -20v-350z" />
    <glyph glyph-name="ograve.smcp" horiz-adv-x="326" 
d="M144 546q-4 0 -6 3l-46 68q-4 6 3 6h52q3 0 5 -4l23 -67q1 -6 -4 -6h-27zM94 0q-3 0 -7 2l-41 40q-3 3 -3 7v401q0 4 3 7l40 40q3 3 7 3h130q4 0 7 -3l41 -40q3 -3 3 -7v-401q0 -4 -3 -7l-41 -40q-4 -2 -7 -2h-129zM117 55h82l19 20v350l-19 20h-82l-19 -20v-350z" />
    <glyph glyph-name="ohungarumlaut.smcp" horiz-adv-x="326" 
d="M78 546q-6 0 -4 6l25 66q2 4 5 4h52q7 0 3 -6l-48 -67q-1 -3 -6 -3h-27zM168 546q-6 0 -4 6l25 66q2 4 5 4h52q7 0 3 -6l-48 -67q-1 -3 -6 -3h-27zM94 0q-3 0 -7 2l-41 40q-3 3 -3 7v401q0 4 3 7l40 40q3 3 7 3h130q4 0 7 -3l41 -40q3 -3 3 -7v-401q0 -4 -3 -7l-41 -40
q-4 -2 -7 -2h-129zM117 55h82l19 20v350l-19 20h-82l-19 -20v-350z" />
    <glyph glyph-name="omacron.smcp" horiz-adv-x="326" 
d="M65 545q-5 0 -5 5v37q0 5 5 5h196q5 0 5 -5v-37q0 -5 -5 -5h-196zM94 0q-3 0 -7 2l-41 40q-3 3 -3 7v401q0 4 3 7l40 40q3 3 7 3h130q4 0 7 -3l41 -40q3 -3 3 -7v-401q0 -4 -3 -7l-41 -40q-4 -2 -7 -2h-129zM117 55h82l19 20v350l-19 20h-82l-19 -20v-350z" />
    <glyph glyph-name="oslash.smcp" horiz-adv-x="326" 
d="M234 493l37 -36q3 -3 3 -7v-401q0 -4 -3 -7l-41 -40q-4 -2 -7 -2h-97l-7 -34q-1 -4 -6 -4h-33q-6 0 -5 6l9 38l-38 36q-3 3 -3 7v401q0 4 3 7l40 40q3 3 7 3h98l8 37q1 4 6 4h33q6 0 5 -5zM98 74l81 371h-62l-19 -20v-351zM199 55l19 20v347l-80 -367h61z" />
    <glyph glyph-name="otilde.smcp" horiz-adv-x="326" 
d="M57 546q-5 0 -5 5v38q0 5 3 6l39 35q4 2 7 2h36q3 0 7 -2l43 -37h38v34q0 5 5 5h39q5 0 5 -5v-38q0 -5 -3 -6l-39 -35q-4 -2 -7 -2h-37q-3 0 -7 2l-43 37h-37v-34q0 -5 -5 -5h-39zM94 0q-3 0 -7 2l-41 40q-3 3 -3 7v401q0 4 3 7l40 40q3 3 7 3h130q4 0 7 -3l41 -40
q3 -3 3 -7v-401q0 -4 -3 -7l-41 -40q-4 -2 -7 -2h-129zM117 55h82l19 20v350l-19 20h-82l-19 -20v-350z" />
    <glyph glyph-name="oe.smcp" horiz-adv-x="469" 
d="M93 0q-4 0 -7 3l-40 39q-3 3 -3 7v401q0 4 3 7l40 40q3 3 7 3h301q5 0 5 -5v-45q0 -5 -5 -5h-128v-155h98q5 0 5 -5v-46q0 -5 -5 -5h-98v-179h147q5 0 5 -5v-45q0 -5 -5 -5h-320zM118 55h93v390h-93l-19 -19v-352z" />
    <glyph glyph-name="thorn.smcp" horiz-adv-x="283" 
d="M38 0q-5 0 -5 5v490q0 5 5 5h44q5 0 5 -5v-55h119q4 0 7 -3l40 -40q3 -3 3 -7v-223q0 -4 -3 -7l-40 -40q-3 -3 -7 -3h-118v-112q0 -5 -5 -5h-45zM88 173h93l19 18v175l-19 19h-93v-212z" />
    <glyph glyph-name="racute.smcp" horiz-adv-x="320" 
d="M134 551q-6 0 -4 6l25 66q2 4 5 4h52q7 0 3 -6l-48 -67q-1 -3 -6 -3h-27zM52 0q-5 0 -5 5v490q0 5 5 5h167q4 0 7 -3l41 -40q3 -3 3 -7v-223q0 -4 -3 -7l-40 -40q-3 -3 -7 -3h-18l75 -171q2 -6 -3 -6h-51q-4 0 -6 4l-78 173h-37v-172q0 -5 -5 -5h-45zM102 233h93l19 18
v175l-19 19h-93v-212z" />
    <glyph glyph-name="rcaron.smcp" horiz-adv-x="320" 
d="M114 550q-4 0 -6 3l-60 70q-4 6 3 6h51q4 0 6 -3l33 -39l33 39q2 3 6 3h51q7 0 3 -6l-60 -70q-2 -3 -6 -3h-54zM52 0q-5 0 -5 5v490q0 5 5 5h167q4 0 7 -3l41 -40q3 -3 3 -7v-223q0 -4 -3 -7l-40 -40q-3 -3 -7 -3h-18l75 -171q2 -6 -3 -6h-51q-4 0 -6 4l-78 173h-37v-172
q0 -5 -5 -5h-45zM102 233h93l19 18v175l-19 19h-93v-212z" />
    <glyph glyph-name="uni0157.smcp" horiz-adv-x="320" 
d="M52 0q-5 0 -5 5v490q0 5 5 5h167q4 0 7 -3l41 -40q3 -3 3 -7v-223q0 -4 -3 -7l-40 -40q-3 -3 -7 -3h-18l75 -171q2 -6 -3 -6h-51q-4 0 -6 4l-78 173h-37v-172q0 -5 -5 -5h-45zM102 233h93l19 18v175l-19 19h-93v-212zM129 -180q-5 0 -5 5v120q0 5 5 5h51q5 0 5 -5v-52
q0 -3 -1 -6l-25 -63q-2 -4 -6 -4h-24z" />
    <glyph glyph-name="sacute.smcp" horiz-adv-x="307" 
d="M139 551q-5 0 -4 6l25 66q2 4 5 4h52q7 0 3 -6l-48 -67q-2 -3 -6 -3h-27zM89 0q-3 0 -7 2l-42 40q-3 3 -3 7v92q0 5 5 5h45q5 0 5 -5v-66l18 -20h75l19 19v143l-19 17h-99q-4 0 -7 3l-39 39q-3 3 -3 7v167q0 4 3 7l39 40q3 3 7 3h124q4 0 7 -3l40 -40q3 -3 3 -7v-83
q0 -5 -5 -5h-46q-5 0 -5 5v59l-19 19h-75l-18 -19v-117l19 -18h97q4 0 7 -3l42 -41q3 -3 3 -7v-191q0 -4 -3 -7l-40 -39q-3 -3 -7 -3h-121z" />
    <glyph glyph-name="scaron.smcp" horiz-adv-x="307" 
d="M119 550q-5 0 -6 3l-60 70q-5 6 3 6h51q5 0 6 -3l33 -39l33 39q1 3 6 3h51q7 0 3 -6l-60 -70q-1 -3 -6 -3h-54zM89 0q-3 0 -7 2l-42 40q-3 3 -3 7v92q0 5 5 5h45q5 0 5 -5v-66l18 -20h75l19 19v143l-19 17h-99q-4 0 -7 3l-39 39q-3 3 -3 7v167q0 4 3 7l39 40q3 3 7 3h124
q4 0 7 -3l40 -40q3 -3 3 -7v-83q0 -5 -5 -5h-46q-5 0 -5 5v59l-19 19h-75l-18 -19v-117l19 -18h97q4 0 7 -3l42 -41q3 -3 3 -7v-191q0 -4 -3 -7l-40 -39q-3 -3 -7 -3h-121z" />
    <glyph glyph-name="scedilla.smcp" horiz-adv-x="307" 
d="M89 0q-3 0 -7 2l-42 40q-3 3 -3 7v92q0 5 5 5h45q5 0 5 -5v-66l18 -20h75l19 19v143l-19 17h-99q-4 0 -7 3l-39 39q-3 3 -3 7v167q0 4 3 7l39 40q3 3 7 3h124q4 0 7 -3l40 -40q3 -3 3 -7v-83q0 -5 -5 -5h-46q-5 0 -5 5v59l-19 19h-75l-18 -19v-117l19 -18h97q4 0 7 -3
l42 -41q3 -3 3 -7v-191q0 -4 -3 -7l-40 -39q-3 -3 -7 -3h-121zM124 -180q-5 0 -5 5v120q0 5 5 5h51q5 0 5 -5v-52q0 -3 -1 -6l-25 -63q-2 -4 -6 -4h-24z" />
    <glyph glyph-name="germandbls.smcp" horiz-adv-x="367" 
d="M54 -49q-5 0 -5 5v485q0 4 3 7l49 49q3 3 7 3h148q4 0 7 -3l49 -49q3 -3 3 -7v-131q0 -4 -3 -7l-33 -32l33 -33q3 -3 3 -7v-172q0 -4 -3 -7l-49 -49q-3 -3 -7 -3h-112q-5 0 -5 5v50q0 5 5 5h87l23 23v135l-23 23h-122v-285q0 -5 -5 -5h-50zM109 301h122l23 23v93l-23 23
h-99l-23 -23v-116z" />
    <glyph glyph-name="tbar.smcp" horiz-adv-x="258" 
d="M226 317q5 0 5 -5v-37q0 -5 -5 -5h-71v-265q0 -5 -5 -5h-47q-5 0 -5 5v265h-68q-5 0 -5 5v37q0 5 5 5h68v128h-71q-5 0 -5 5v45q0 5 5 5h198q5 0 5 -5v-45q0 -5 -5 -5h-70v-128h71z" />
    <glyph glyph-name="tcaron.smcp" horiz-adv-x="258" 
d="M101 550q-5 0 -6 3l-60 70q-5 6 3 6h51q5 0 6 -3l33 -39l33 39q1 3 6 3h51q7 0 3 -6l-60 -70q-1 -3 -6 -3h-54zM103 0q-5 0 -5 5v440h-71q-5 0 -5 5v45q0 5 5 5h198q5 0 5 -5v-45q0 -5 -5 -5h-70v-440q0 -5 -5 -5h-47z" />
    <glyph glyph-name="uni0163.smcp" horiz-adv-x="258" 
d="M103 0q-5 0 -5 5v440h-71q-5 0 -5 5v45q0 5 5 5h198q5 0 5 -5v-45q0 -5 -5 -5h-70v-440q0 -5 -5 -5h-47zM102 -181q-5 0 -5 5v120q0 5 5 5h51q5 0 5 -5v-52q0 -3 -1 -6l-25 -63q-2 -4 -6 -4h-24z" />
    <glyph glyph-name="uacute.smcp" horiz-adv-x="330" 
d="M148 551q-6 0 -4 6l25 66q2 4 5 4h52q7 0 3 -6l-48 -67q-1 -3 -6 -3h-27zM97 0q-3 0 -7 2l-42 40q-3 3 -3 7v446q0 5 5 5h45q5 0 5 -5v-420l18 -20h83l19 20v420q0 5 5 5h46q5 0 5 -5v-446q0 -4 -3 -7l-41 -40q-4 -2 -7 -2h-128z" />
    <glyph glyph-name="ucircumflex.smcp" horiz-adv-x="330" 
d="M65 551q-8 0 -3 6l60 70q2 3 6 3h54q4 0 6 -3l60 -70q4 -6 -3 -6h-51q-4 0 -6 3l-33 39l-33 -39q-2 -3 -6 -3h-51zM97 0q-3 0 -7 2l-42 40q-3 3 -3 7v446q0 5 5 5h45q5 0 5 -5v-420l18 -20h83l19 20v420q0 5 5 5h46q5 0 5 -5v-446q0 -4 -3 -7l-41 -40q-4 -2 -7 -2h-128z
" />
    <glyph glyph-name="udieresis.smcp" horiz-adv-x="330" 
d="M64 550q-5 0 -5 5v55q0 5 5 5h55q5 0 5 -5v-55q0 -5 -5 -5h-55zM190 550q-5 0 -5 5v55q0 5 5 5h55q5 0 5 -5v-55q0 -5 -5 -5h-55zM97 0q-3 0 -7 2l-42 40q-3 3 -3 7v446q0 5 5 5h45q5 0 5 -5v-420l18 -20h83l19 20v420q0 5 5 5h46q5 0 5 -5v-446q0 -4 -3 -7l-41 -40
q-4 -2 -7 -2h-128z" />
    <glyph glyph-name="ugrave.smcp" horiz-adv-x="330" 
d="M136 551q-4 0 -6 3l-46 68q-4 6 3 6h52q3 0 5 -4l23 -67q1 -6 -4 -6h-27zM97 0q-3 0 -7 2l-42 40q-3 3 -3 7v446q0 5 5 5h45q5 0 5 -5v-420l18 -20h83l19 20v420q0 5 5 5h46q5 0 5 -5v-446q0 -4 -3 -7l-41 -40q-4 -2 -7 -2h-128z" />
    <glyph glyph-name="uhungarumlaut.smcp" horiz-adv-x="330" 
d="M70 551q-6 0 -4 6l25 66q2 4 5 4h52q7 0 3 -6l-48 -67q-1 -3 -6 -3h-27zM160 551q-6 0 -4 6l25 66q2 4 5 4h52q7 0 3 -6l-48 -67q-1 -3 -6 -3h-27zM97 0q-3 0 -7 2l-42 40q-3 3 -3 7v446q0 5 5 5h45q5 0 5 -5v-420l18 -20h83l19 20v420q0 5 5 5h46q5 0 5 -5v-446
q0 -4 -3 -7l-41 -40q-4 -2 -7 -2h-128z" />
    <glyph glyph-name="umacron.smcp" horiz-adv-x="330" 
d="M57 550q-5 0 -5 5v37q0 5 5 5h196q5 0 5 -5v-37q0 -5 -5 -5h-196zM97 0q-3 0 -7 2l-42 40q-3 3 -3 7v446q0 5 5 5h45q5 0 5 -5v-420l18 -20h83l19 20v420q0 5 5 5h46q5 0 5 -5v-446q0 -4 -3 -7l-41 -40q-4 -2 -7 -2h-128z" />
    <glyph glyph-name="uogonek.smcp" horiz-adv-x="330" 
d="M48 43q-3 1 -3 6v446q0 5 5 5h45q5 0 5 -5v-420l18 -20h83l19 20v420q0 5 5 5h46q5 0 5 -5v-446q0 -5 -3 -6l-121 -102v-45l15 -16h51l14 16v17q0 5 5 5h35q5 0 5 -5v-26q0 -2 -2 -6l-37 -44q-2 -3 -6 -3h-79q-4 0 -7 3l-36 37q-3 3 -3 7v73q0 3 3 6l57 40h-70q-3 0 -7 2
z" />
    <glyph glyph-name="uring.smcp" horiz-adv-x="330" 
d="M118 551q-4 0 -7 3l-25 25q-3 3 -3 7v71q0 4 3 7l26 26q3 3 7 3h71q4 0 7 -3l26 -25q3 -3 3 -7v-72q0 -4 -3 -7l-25 -25q-3 -3 -7 -3h-73zM123 590h63v63h-63v-63zM97 0q-3 0 -7 2l-42 40q-3 3 -3 7v446q0 5 5 5h45q5 0 5 -5v-420l18 -20h83l19 20v420q0 5 5 5h46
q5 0 5 -5v-446q0 -4 -3 -7l-41 -40q-4 -2 -7 -2h-128z" />
    <glyph glyph-name="wacute.smcp" horiz-adv-x="454" 
d="M218 551q-6 0 -4 6l25 66q2 4 5 4h52q7 0 3 -6l-48 -67q-1 -3 -6 -3h-27zM34 495q0 5 4 5h43q6 0 6 -5l40 -365h8l58 365q0 5 6 5h48q6 0 6 -5l59 -362h8l40 362q0 5 6 5h41q4 0 4 -5l-63 -490q0 -5 -6 -5h-49q-6 0 -6 5l-61 344h-8l-61 -344q0 -5 -6 -5h-47q-6 0 -6 5z
" />
    <glyph glyph-name="wcircumflex.smcp" horiz-adv-x="454" 
d="M135 551q-7 0 -3 6l60 70q2 3 6 3h54q4 0 6 -3l60 -70q4 -6 -3 -6h-51q-4 0 -6 3l-33 39l-33 -39q-2 -3 -6 -3h-51zM34 495q0 5 4 5h43q6 0 6 -5l40 -365h8l58 365q0 5 6 5h48q6 0 6 -5l59 -362h8l40 362q0 5 6 5h41q4 0 4 -5l-63 -490q0 -5 -6 -5h-49q-6 0 -6 5l-61 344
h-8l-61 -344q0 -5 -6 -5h-47q-6 0 -6 5z" />
    <glyph glyph-name="wdieresis.smcp" horiz-adv-x="454" 
d="M134 550q-5 0 -5 5v55q0 5 5 5h55q5 0 5 -5v-55q0 -5 -5 -5h-55zM260 550q-5 0 -5 5v55q0 5 5 5h55q5 0 5 -5v-55q0 -5 -5 -5h-55zM34 495q0 5 4 5h43q6 0 6 -5l40 -365h8l58 365q0 5 6 5h48q6 0 6 -5l59 -362h8l40 362q0 5 6 5h41q4 0 4 -5l-63 -490q0 -5 -6 -5h-49
q-6 0 -6 5l-61 344h-8l-61 -344q0 -5 -6 -5h-47q-6 0 -6 5z" />
    <glyph glyph-name="wgrave.smcp" horiz-adv-x="454" 
d="M206 551q-4 0 -6 3l-46 68q-4 6 3 6h52q3 0 5 -4l23 -67q1 -6 -4 -6h-27zM34 495q0 5 4 5h43q6 0 6 -5l40 -365h8l58 365q0 5 6 5h48q6 0 6 -5l59 -362h8l40 362q0 5 6 5h41q4 0 4 -5l-63 -490q0 -5 -6 -5h-49q-6 0 -6 5l-61 344h-8l-61 -344q0 -5 -6 -5h-47q-6 0 -6 5z
" />
    <glyph glyph-name="yacute.smcp" horiz-adv-x="252" 
d="M113 552q-5 0 -4 6l25 66q2 4 5 4h52q7 0 3 -6l-48 -67q-2 -3 -6 -3h-27zM94 192l-80 302q-2 6 5 6h45q4 0 5 -4l50 -209h8l48 209q1 4 5 4h45q7 0 5 -6l-79 -302v-187q0 -5 -5 -5h-47q-5 0 -5 5v187z" />
    <glyph glyph-name="ycircumflex.smcp" horiz-adv-x="252" 
d="M30 552q-8 0 -3 6l60 70q1 3 6 3h54q5 0 6 -3l60 -70q5 -6 -3 -6h-51q-5 0 -6 3l-33 39l-33 -39q-1 -3 -6 -3h-51zM94 192l-80 302q-2 6 5 6h45q4 0 5 -4l50 -209h8l48 209q1 4 5 4h45q7 0 5 -6l-79 -302v-187q0 -5 -5 -5h-47q-5 0 -5 5v187z" />
    <glyph glyph-name="ydieresis.smcp" horiz-adv-x="252" 
d="M29 551q-5 0 -5 5v55q0 5 5 5h55q5 0 5 -5v-55q0 -5 -5 -5h-55zM155 551q-5 0 -5 5v55q0 5 5 5h55q5 0 5 -5v-55q0 -5 -5 -5h-55zM94 192l-80 302q-2 6 5 6h45q4 0 5 -4l50 -209h8l48 209q1 4 5 4h45q7 0 5 -6l-79 -302v-187q0 -5 -5 -5h-47q-5 0 -5 5v187z" />
    <glyph glyph-name="ygrave.smcp" horiz-adv-x="252" 
d="M101 552q-5 0 -6 3l-46 68q-4 6 3 6h52q3 0 5 -4l23 -67q2 -6 -4 -6h-27zM94 192l-80 302q-2 6 5 6h45q4 0 5 -4l50 -209h8l48 209q1 4 5 4h45q7 0 5 -6l-79 -302v-187q0 -5 -5 -5h-47q-5 0 -5 5v187z" />
    <glyph glyph-name="zacute.smcp" horiz-adv-x="316" 
d="M141 551q-5 0 -4 6l25 66q2 4 5 4h52q7 0 3 -6l-48 -67q-2 -3 -6 -3h-27zM52 0q-5 0 -5 5v44q0 3 1 6l153 380v10h-149q-5 0 -5 5v45q0 5 5 5h205q5 0 5 -5v-44q0 -3 -1 -6l-153 -380v-10h149q5 0 5 -5v-45q0 -5 -5 -5h-205z" />
    <glyph glyph-name="zcaron.smcp" horiz-adv-x="316" 
d="M121 550q-5 0 -6 3l-60 70q-4 6 3 6h51q5 0 6 -3l33 -39l33 39q1 3 6 3h51q8 0 3 -6l-60 -70q-1 -3 -6 -3h-54zM52 0q-5 0 -5 5v44q0 3 1 6l153 380v10h-149q-5 0 -5 5v45q0 5 5 5h205q5 0 5 -5v-44q0 -3 -1 -6l-153 -380v-10h149q5 0 5 -5v-45q0 -5 -5 -5h-205z" />
    <glyph glyph-name="zdotaccent.smcp" horiz-adv-x="316" 
d="M113 575q-5 0 -5 5v65q0 5 5 5h65q5 0 5 -5v-65q0 -5 -5 -5h-65zM52 0q-5 0 -5 5v44q0 3 1 6l153 380v10h-149q-5 0 -5 5v45q0 5 5 5h205q5 0 5 -5v-44q0 -3 -1 -6l-153 -380v-10h149q5 0 5 -5v-45q0 -5 -5 -5h-205z" />
    <glyph glyph-name="zero.tf" horiz-adv-x="346" 
d="M109 0q-4 0 -7 3l-49 49q-3 3 -3 7v582q0 4 3 7l49 49q3 3 7 3h128q4 0 7 -3l49 -49q3 -3 3 -7v-582q0 -4 -3 -7l-49 -49q-3 -3 -7 -3h-128zM133 60h78l23 23v534l-23 23h-78l-23 -23v-534z" />
    <glyph glyph-name="one.tf" horiz-adv-x="313" 
d="M55 0q-5 0 -5 5v50q0 5 5 5h71v580h-37q-5 0 -5 5v50q0 5 5 5h93q5 0 5 -5v-635h71q5 0 5 -5v-50q0 -5 -5 -5h-203z" />
    <glyph glyph-name="two.tf" horiz-adv-x="376" 
d="M55 0q-5 0 -5 5v311q0 4 3 7l49 49q3 3 7 3h123l23 23v219l-23 23h-99l-23 -23v-100q0 -5 -5 -5h-50q-5 0 -5 5v124q0 4 3 7l49 49q3 3 7 3h148q4 0 7 -3l49 -49q3 -3 3 -7v-267q0 -4 -3 -7l-49 -49q-3 -3 -7 -3h-124l-23 -23v-232h156v100q0 5 5 5h50q5 0 5 -5v-155
q0 -5 -5 -5h-266z" />
    <glyph glyph-name="three.tf" horiz-adv-x="366" 
d="M109 0q-4 0 -7 3l-49 49q-3 3 -3 7v124q0 5 5 5h50q5 0 5 -5v-100l23 -23h99l23 23v235l-23 23h-104q-5 0 -5 5v50q0 5 5 5h104l23 23v193l-23 23h-99l-23 -23v-100q0 -5 -5 -5h-50q-5 0 -5 5v124q0 4 3 7l49 49q3 3 7 3h148q4 0 7 -3l49 -49q3 -3 3 -7v-231q0 -4 -3 -7
l-33 -32l33 -33q3 -3 3 -7v-272q0 -4 -3 -7l-49 -49q-3 -3 -7 -3h-148z" />
    <glyph glyph-name="four.tf" horiz-adv-x="388" 
d="M230 0q-5 0 -5 5v217h-116q-4 0 -7 3l-49 49q-3 3 -3 7v414q0 5 5 5h50q5 0 5 -5v-390l23 -23h92v413q0 5 5 5h50q5 0 5 -5v-413h48q5 0 5 -5v-50q0 -5 -5 -5h-48v-217q0 -5 -5 -5h-50z" />
    <glyph glyph-name="five.tf" horiz-adv-x="366" 
d="M109 0q-4 0 -7 3l-49 49q-3 3 -3 7v124q0 5 5 5h50q5 0 5 -5v-100l23 -23h99l23 23v240l-23 23h-123q-4 0 -7 3l-49 49q-3 3 -3 7v290q0 5 5 5h256q5 0 5 -5v-123q0 -5 -5 -5h-50q-5 0 -5 5v68h-146v-211l23 -23h124q4 0 7 -3l49 -49q3 -3 3 -7v-288q0 -4 -3 -7l-49 -49
q-3 -3 -7 -3h-148z" />
    <glyph glyph-name="six.tf" horiz-adv-x="366" 
d="M109 0q-4 0 -7 3l-49 49q-3 3 -3 7v582q0 4 3 7l49 49q3 3 7 3h148q4 0 7 -3l49 -49q3 -3 3 -7v-113q0 -5 -5 -5h-51q-5 0 -5 5v89l-23 23h-99l-23 -23v-211h147q4 0 7 -3l49 -49q3 -3 3 -7v-288q0 -4 -3 -7l-49 -49q-3 -3 -7 -3h-148zM133 60h99l23 23v240l-23 23h-99
l-23 -23v-240z" />
    <glyph glyph-name="seven.tf" horiz-adv-x="367" 
d="M108 0q-6 0 -5 6l160 634h-153v-118q0 -5 -5 -5h-50q-5 0 -5 5v173q0 5 5 5h257q5 0 5 -5v-52q0 -1 -0.5 -3t-0.5 -3l-155 -633q-1 -4 -5 -4h-48z" />
    <glyph glyph-name="eight.tf" horiz-adv-x="366" 
d="M109 0q-4 0 -7 3l-49 49q-3 3 -3 7v268q0 3 2 7l35 37l-35 36q-2 4 -2 7v227q0 4 3 7l49 49q3 3 7 3h148q4 0 7 -3l49 -49q3 -3 3 -7v-231q0 -4 -3 -7l-33 -32l33 -33q3 -3 3 -7v-272q0 -4 -3 -7l-49 -49q-3 -3 -7 -3h-148zM135 401h98l23 23v193l-23 23h-100l-21 -21
v-195zM133 60h100l23 23v235l-23 23h-98l-23 -23v-237z" />
    <glyph glyph-name="nine.tf" horiz-adv-x="366" 
d="M257 701q4 0 7 -3l49 -49q3 -3 3 -7v-582q0 -4 -3 -7l-49 -49q-3 -3 -7 -3h-148q-4 0 -7 3l-49 49q-3 3 -3 7v113q0 5 5 5h51q5 0 5 -5v-89l23 -23h99l23 23v211h-147q-4 0 -7 3l-49 49q-3 3 -3 7v288q0 4 3 7l49 49q3 3 7 3h148zM233 641h-99l-23 -23v-240l23 -23h99
l23 23v240z" />
    <glyph glyph-name="uni2081.001" horiz-adv-x="252" 
d="M51 -100q-5 0 -5 5v47q0 5 5 5h54v387h-28q-5 0 -5 5v47q0 5 5 5h79q5 0 5 -5v-439h55q5 0 5 -5v-47q0 -5 -5 -5h-165z" />
    <glyph glyph-name="zero.dnom" horiz-adv-x="327" 
d="M96 0q-4 0 -7 3l-39 39q-3 3 -3 7v403q0 4 3 7l39 39q3 3 7 3h119q4 0 7 -3l38 -39q3 -3 3 -7v-403q0 -4 -3 -7l-38 -39q-3 -3 -7 -3h-119zM207 149v279l-16 16h-53zM119 57h58l-73 314v-298z" />
    <glyph glyph-name="one.dnom" horiz-adv-x="252" 
d="M51 0q-5 0 -5 5v47q0 5 5 5h54v387h-28q-5 0 -5 5v47q0 5 5 5h79q5 0 5 -5v-439h55q5 0 5 -5v-47q0 -5 -5 -5h-165z" />
    <glyph glyph-name="two.dnom" horiz-adv-x="326" 
d="M56 0q-5 0 -5 5v224q0 4 3 7l39 39q3 3 7 3h95l16 16v134l-16 16h-72l-15 -16v-78q0 -5 -5 -5h-47q-5 0 -5 5v102q0 4 3 7l39 39q3 3 7 3h119q4 0 7 -3l38 -39q3 -3 3 -7v-181q0 -4 -3 -7l-38 -39q-3 -3 -7 -3h-96l-15 -16v-149h111v76q0 5 5 5h46q5 0 5 -5v-128
q0 -5 -5 -5h-214z" />
    <glyph glyph-name="three.dnom" horiz-adv-x="308" 
d="M93 0q-4 0 -7 3l-39 39q-3 3 -3 7v102q0 5 5 5h47q5 0 5 -5v-78l15 -16h71l17 16v146l-17 15h-81q-5 0 -5 5v47q0 5 5 5h81l17 16v121l-17 16h-71l-15 -16v-78q0 -5 -5 -5h-47q-5 0 -5 5v102q0 4 3 7l39 39q3 3 7 3h118q4 0 7 -3l39 -39q3 -3 3 -7v-162q0 -4 -3 -6
l-22 -21l23 -23q2 -4 2 -7v-184q0 -4 -3 -7l-39 -39q-3 -3 -7 -3h-118z" />
    <glyph glyph-name="four.dnom" horiz-adv-x="301" 
d="M171 0q-5 0 -5 5v168h-87q-4 0 -7 3l-39 39q-3 3 -3 7v274q0 5 5 5h47q5 0 5 -5v-251l16 -16h63v267q0 5 5 5h47q5 0 5 -5v-267h36q5 0 5 -5v-46q0 -5 -5 -5h-36v-168q0 -5 -5 -5h-47z" />
    <glyph glyph-name="five.dnom" horiz-adv-x="315" 
d="M100 0q-4 0 -7 3l-39 39q-3 3 -3 7v102q0 5 5 5h47q5 0 5 -5v-78l15 -16h72l16 16v151l-16 15h-95q-4 0 -7 3l-39 39q-3 3 -3 7v209q0 5 5 5h206q5 0 5 -5v-104q0 -5 -5 -5h-45q-5 0 -5 5v52h-104v-133l15 -16h96q4 0 7 -3l38 -39q3 -3 3 -7v-198q0 -4 -3 -7l-38 -39
q-3 -3 -7 -3h-119z" />
    <glyph glyph-name="six.dnom" horiz-adv-x="315" 
d="M100 0q-4 0 -7 3l-39 39q-3 3 -3 7v403q0 4 3 7l39 39q3 3 7 3h118q4 0 7 -3l39 -39q3 -3 3 -7v-94q0 -5 -5 -5h-46q-5 0 -5 5v70l-16 16h-72l-15 -16v-133h111q4 0 7 -3l38 -38q3 -3 3 -7v-198q0 -4 -3 -7l-38 -39q-3 -3 -7 -3h-119zM123 57h72l16 16v150l-16 16h-72
l-15 -16v-150z" />
    <glyph glyph-name="seven.dnom" horiz-adv-x="295" 
d="M102 0q-6 0 -5 6l118 438h-102v-90q0 -5 -5 -5h-46q-5 0 -5 5v142q0 5 5 5h207q5 0 5 -5v-46q0 -1 -0.5 -3t-0.5 -3l-120 -440q-2 -4 -5 -4h-46z" />
    <glyph glyph-name="eight.dnom" horiz-adv-x="312" 
d="M97 0q-4 0 -7 3l-39 39q-3 3 -3 7v182q0 3 2 7l24 25l-24 24q-2 4 -2 7v158q0 4 3 7l39 39q3 3 7 3h119q4 0 7 -3l38 -39q3 -3 3 -7v-161q0 -4 -3 -7l-21 -21l22 -22q2 -4 2 -7v-185q0 -4 -3 -7l-38 -39q-3 -3 -7 -3h-119zM122 291h71l16 17v120l-16 16h-73l-13 -14v-122
zM120 57h73l16 16v146l-16 16h-71l-15 -16v-148z" />
    <glyph glyph-name="nine.dnom" horiz-adv-x="315" 
d="M215 500q4 0 7 -3l39 -39q3 -3 3 -7v-403q0 -4 -3 -7l-39 -39q-3 -3 -7 -3h-118q-4 0 -7 3l-39 39q-3 3 -3 7v94q0 5 5 5h46q5 0 5 -5v-70l16 -16h72l15 16v133h-111q-4 0 -7 3l-38 38q-3 3 -3 7v198q0 4 3 7l38 39q3 3 7 3h119zM192 443h-72l-16 -16v-150l16 -16h72
l15 16v150z" />
    <glyph glyph-name="zero.numr" horiz-adv-x="327" 
d="M96 200q-4 0 -7 3l-39 39q-3 3 -3 7v403q0 4 3 7l39 39q3 3 7 3h119q4 0 7 -3l38 -39q3 -3 3 -7v-403q0 -4 -3 -7l-38 -39q-3 -3 -7 -3h-119zM207 349v279l-16 16h-53zM119 257h58l-73 314v-298z" />
    <glyph glyph-name="one.numr" horiz-adv-x="252" 
d="M51 200q-5 0 -5 5v47q0 5 5 5h54v387h-28q-5 0 -5 5v47q0 5 5 5h79q5 0 5 -5v-439h55q5 0 5 -5v-47q0 -5 -5 -5h-165z" />
    <glyph glyph-name="two.numr" horiz-adv-x="326" 
d="M56 200q-5 0 -5 5v224q0 4 3 7l39 39q3 3 7 3h95l16 16v134l-16 16h-72l-15 -16v-78q0 -5 -5 -5h-47q-5 0 -5 5v102q0 4 3 7l39 39q3 3 7 3h119q4 0 7 -3l38 -39q3 -3 3 -7v-181q0 -4 -3 -7l-38 -39q-3 -3 -7 -3h-96l-15 -16v-149h111v76q0 5 5 5h46q5 0 5 -5v-128
q0 -5 -5 -5h-214z" />
    <glyph glyph-name="three.numr" horiz-adv-x="308" 
d="M93 200q-4 0 -7 3l-39 39q-3 3 -3 7v102q0 5 5 5h47q5 0 5 -5v-78l15 -16h71l17 16v146l-17 15h-81q-5 0 -5 5v47q0 5 5 5h81l17 16v121l-17 16h-71l-15 -16v-78q0 -5 -5 -5h-47q-5 0 -5 5v102q0 4 3 7l39 39q3 3 7 3h118q4 0 7 -3l39 -39q3 -3 3 -7v-162q0 -4 -3 -6
l-22 -21l23 -23q2 -4 2 -7v-184q0 -4 -3 -7l-39 -39q-3 -3 -7 -3h-118z" />
    <glyph glyph-name="four.numr" horiz-adv-x="301" 
d="M171 200q-5 0 -5 5v168h-87q-4 0 -7 3l-39 39q-3 3 -3 7v274q0 5 5 5h47q5 0 5 -5v-251l16 -16h63v267q0 5 5 5h47q5 0 5 -5v-267h36q5 0 5 -5v-46q0 -5 -5 -5h-36v-168q0 -5 -5 -5h-47z" />
    <glyph glyph-name="five.numr" horiz-adv-x="315" 
d="M100 200q-4 0 -7 3l-39 39q-3 3 -3 7v102q0 5 5 5h47q5 0 5 -5v-78l15 -16h72l16 16v151l-16 15h-95q-4 0 -7 3l-39 39q-3 3 -3 7v209q0 5 5 5h206q5 0 5 -5v-104q0 -5 -5 -5h-45q-5 0 -5 5v52h-104v-133l15 -16h96q4 0 7 -3l38 -39q3 -3 3 -7v-198q0 -4 -3 -7l-38 -39
q-3 -3 -7 -3h-119z" />
    <glyph glyph-name="six.numr" horiz-adv-x="315" 
d="M100 200q-4 0 -7 3l-39 39q-3 3 -3 7v403q0 4 3 7l39 39q3 3 7 3h118q4 0 7 -3l39 -39q3 -3 3 -7v-94q0 -5 -5 -5h-46q-5 0 -5 5v70l-16 16h-72l-15 -16v-133h111q4 0 7 -3l38 -38q3 -3 3 -7v-198q0 -4 -3 -7l-38 -39q-3 -3 -7 -3h-119zM123 257h72l16 16v150l-16 16h-72
l-15 -16v-150z" />
    <glyph glyph-name="seven.numr" horiz-adv-x="295" 
d="M102 200q-6 0 -5 6l118 438h-102v-90q0 -5 -5 -5h-46q-5 0 -5 5v142q0 5 5 5h207q5 0 5 -5v-46q0 -1 -0.5 -3t-0.5 -3l-120 -440q-2 -4 -5 -4h-46z" />
    <glyph glyph-name="eight.numr" horiz-adv-x="312" 
d="M97 200q-4 0 -7 3l-39 39q-3 3 -3 7v182q0 3 2 7l24 25l-24 24q-2 4 -2 7v158q0 4 3 7l39 39q3 3 7 3h119q4 0 7 -3l38 -39q3 -3 3 -7v-161q0 -4 -3 -7l-21 -21l22 -22q2 -4 2 -7v-185q0 -4 -3 -7l-38 -39q-3 -3 -7 -3h-119zM122 491h71l16 17v120l-16 16h-73l-13 -14
v-122zM120 257h73l16 16v146l-16 16h-71l-15 -16v-148z" />
    <glyph glyph-name="nine.numr" horiz-adv-x="315" 
d="M215 700q4 0 7 -3l39 -39q3 -3 3 -7v-403q0 -4 -3 -7l-39 -39q-3 -3 -7 -3h-118q-4 0 -7 3l-39 39q-3 3 -3 7v94q0 5 5 5h46q5 0 5 -5v-70l16 -16h72l15 16v133h-111q-4 0 -7 3l-38 38q-3 3 -3 7v198q0 4 3 7l38 39q3 3 7 3h119zM192 643h-72l-16 -16v-150l16 -16h72
l15 16v150z" />
    <glyph glyph-name="zero.smcp" horiz-adv-x="310" 
d="M91 0q-4 0 -7 3l-39 39q-3 3 -3 7v403q0 4 3 7l39 39q3 3 7 3h119q4 0 7 -3l38 -39q3 -3 3 -7v-403q0 -4 -3 -7l-38 -39q-3 -3 -7 -3h-119zM202 149v279l-16 16h-53zM114 57h58l-73 314v-298z" />
    <glyph glyph-name="one.smcp" horiz-adv-x="242" 
d="M41 0q-5 0 -5 5v47q0 5 5 5h54v387h-28q-5 0 -5 5v47q0 5 5 5h79q5 0 5 -5v-439h55q5 0 5 -5v-47q0 -5 -5 -5h-165z" />
    <glyph glyph-name="two.smcp" horiz-adv-x="319" 
d="M48 0q-5 0 -5 5v224q0 4 3 7l39 39q3 3 7 3h95l16 16v134l-16 16h-72l-15 -16v-78q0 -5 -5 -5h-47q-5 0 -5 5v102q0 4 3 7l39 39q3 3 7 3h119q4 0 7 -3l38 -39q3 -3 3 -7v-181q0 -4 -3 -7l-38 -39q-3 -3 -7 -3h-96l-15 -16v-149h111v76q0 5 5 5h46q5 0 5 -5v-128
q0 -5 -5 -5h-214z" />
    <glyph glyph-name="three.smcp" horiz-adv-x="299" 
d="M85 0q-4 0 -7 3l-39 39q-3 3 -3 7v102q0 5 5 5h47q5 0 5 -5v-78l15 -16h71l17 16v146l-17 15h-81q-5 0 -5 5v47q0 5 5 5h81l17 16v121l-17 16h-71l-15 -16v-78q0 -5 -5 -5h-47q-5 0 -5 5v102q0 4 3 7l39 39q3 3 7 3h118q4 0 7 -3l39 -39q3 -3 3 -7v-162q0 -4 -3 -6
l-22 -21l23 -23q2 -4 2 -7v-184q0 -4 -3 -7l-39 -39q-3 -3 -7 -3h-118z" />
    <glyph glyph-name="four.smcp" horiz-adv-x="298" 
d="M164 0q-5 0 -5 5v168h-87q-4 0 -7 3l-39 39q-3 3 -3 7v274q0 5 5 5h47q5 0 5 -5v-251l16 -16h63v267q0 5 5 5h47q5 0 5 -5v-267h36q5 0 5 -5v-46q0 -5 -5 -5h-36v-168q0 -5 -5 -5h-47z" />
    <glyph glyph-name="five.smcp" horiz-adv-x="309" 
d="M92 0q-4 0 -7 3l-39 39q-3 3 -3 7v102q0 5 5 5h47q5 0 5 -5v-78l15 -16h72l16 16v151l-16 15h-95q-4 0 -7 3l-39 39q-3 3 -3 7v209q0 5 5 5h206q5 0 5 -5v-104q0 -5 -5 -5h-45q-5 0 -5 5v52h-104v-133l15 -16h96q4 0 7 -3l38 -39q3 -3 3 -7v-198q0 -4 -3 -7l-38 -39
q-3 -3 -7 -3h-119z" />
    <glyph glyph-name="six.smcp" horiz-adv-x="307" 
d="M91 0q-4 0 -7 3l-39 39q-3 3 -3 7v403q0 4 3 7l39 39q3 3 7 3h118q4 0 7 -3l39 -39q3 -3 3 -7v-94q0 -5 -5 -5h-46q-5 0 -5 5v70l-16 16h-72l-15 -16v-133h111q4 0 7 -3l38 -38q3 -3 3 -7v-198q0 -4 -3 -7l-38 -39q-3 -3 -7 -3h-119zM114 57h72l16 16v150l-16 16h-72
l-15 -16v-150z" />
    <glyph glyph-name="seven.smcp" horiz-adv-x="286" 
d="M90 0q-6 0 -5 6l118 438h-102v-90q0 -5 -5 -5h-46q-5 0 -5 5v142q0 5 5 5h207q5 0 5 -5v-46q0 -1 -0.5 -3t-0.5 -3l-120 -440q-2 -4 -5 -4h-46z" />
    <glyph glyph-name="eight.smcp" horiz-adv-x="305" 
d="M89 0q-4 0 -7 3l-39 39q-3 3 -3 7v182q0 3 2 7l24 25l-24 24q-2 4 -2 7v158q0 4 3 7l39 39q3 3 7 3h119q4 0 7 -3l38 -39q3 -3 3 -7v-161q0 -4 -3 -7l-21 -21l22 -22q2 -4 2 -7v-185q0 -4 -3 -7l-38 -39q-3 -3 -7 -3h-119zM114 291h71l16 17v120l-16 16h-73l-13 -14v-122
zM112 57h73l16 16v146l-16 16h-71l-15 -16v-148z" />
    <glyph glyph-name="nine.smcp" horiz-adv-x="315" 
d="M218 500q4 0 7 -3l39 -39q3 -3 3 -7v-403q0 -4 -3 -7l-39 -39q-3 -3 -7 -3h-118q-4 0 -7 3l-39 39q-3 3 -3 7v94q0 5 5 5h46q5 0 5 -5v-70l16 -16h72l15 16v133h-111q-4 0 -7 3l-38 38q-3 3 -3 7v198q0 4 3 7l38 39q3 3 7 3h119zM195 443h-72l-16 -16v-150l16 -16h72
l15 16v150z" />
    <glyph glyph-name="parenleft.smcp" horiz-adv-x="218" 
d="M109 -30q-4 0 -7 3l-39 39q-3 3 -3 7v462q0 4 3 7l39 39q3 3 7 3h44q5 0 5 -5v-45q0 -5 -5 -5h-20l-16 -17v-416l16 -16h20q5 0 5 -5v-46q0 -5 -5 -5h-44z" />
    <glyph glyph-name="parenright.smcp" horiz-adv-x="218" 
d="M65 -30q-5 0 -5 5v46q0 5 5 5h20l16 16v416l-16 17h-20q-5 0 -5 5v45q0 5 5 5h44q4 0 7 -3l39 -39q3 -3 3 -7v-462q0 -4 -3 -7l-39 -39q-3 -3 -7 -3h-44z" />
    <glyph glyph-name="bracketleft.smcp" horiz-adv-x="208" 
d="M65 -70q-5 0 -5 5v592q0 5 5 5h78q5 0 5 -5v-47q0 -5 -5 -5h-27v-489h27q5 0 5 -5v-46q0 -5 -5 -5h-78z" />
    <glyph glyph-name="bracketright.smcp" horiz-adv-x="208" 
d="M65 -70q-5 0 -5 5v46q0 5 5 5h27v489h-27q-5 0 -5 5v47q0 5 5 5h78q5 0 5 -5v-592q0 -5 -5 -5h-78z" />
    <glyph glyph-name="exclam.smcp" horiz-adv-x="202" 
d="M79 106q-5 0 -5 5l-14 383q0 5 5 5h72q5 0 5 -5l-13 -383q0 -5 -5 -5h-45zM70 0q-5 0 -5 5v63q0 5 5 5h63q5 0 5 -5v-63q0 -5 -5 -5h-63z" />
    <glyph glyph-name="exclamdown.smcp" horiz-adv-x="202" 
d="M132 365q5 0 5 -5v-63q0 -5 -5 -5h-63q-5 0 -5 5v63q0 5 5 5h63zM123 259q5 0 5 -5l14 -383q0 -5 -5 -5h-72q-5 0 -5 5l13 383q0 5 5 5h45z" />
    <glyph glyph-name="question.smcp" horiz-adv-x="336" 
d="M116 105q-5 0 -5 5l-8 128q0 4 3 7l37 38q3 3 7 3h53l16 18v125l-16 15h-74l-12 -11v-87q0 -5 -5 -5h-47q-5 0 -5 5v106q0 4 3 7l39 38q3 3 7 3h118q4 0 7 -3l39 -38q3 -3 3 -7v-173q0 -4 -3 -7l-39 -40q-3 -3 -7 -3h-52l-17 -14l-8 -105q0 -5 -5 -5h-29zM101 0
q-5 0 -5 5v63q0 5 5 5h61q5 0 5 -5v-63q0 -5 -5 -5h-61z" />
    <glyph glyph-name="questiondown.smcp" horiz-adv-x="336" 
d="M235 365q5 0 5 -5v-63q0 -5 -5 -5h-61q-5 0 -5 5v63q0 5 5 5h61zM220 260q5 0 5 -5l8 -128q0 -4 -3 -7l-37 -38q-3 -3 -7 -3h-53l-16 -18v-125l16 -15h74l12 11v87q0 5 5 5h47q5 0 5 -5v-106q0 -4 -3 -7l-39 -38q-3 -3 -7 -3h-118q-4 0 -7 3l-39 38q-3 3 -3 7v173
q0 4 3 7l39 40q3 3 7 3h52l17 14l8 105q0 5 5 5h29z" />
    <glyph glyph-name="ampersand.smcp" horiz-adv-x="356" 
d="M219 -41q-5 0 -5 5v36h-121q-5 0 -6 3l-54 60q-2 4 -2 7v138q0 3 2 7l33 39l-33 40q-2 4 -2 6v130q0 3 2 7l54 60q1 3 6 3h121q4 0 7 -3l59 -59q3 -3 3 -7v-52q0 -5 -5 -5h-59q-5 0 -5 5v33l-28 27h-72l-29 -29v-94l29 -30h188q5 0 5 -5v-51q0 -5 -5 -5h-28v-261
q0 -5 -5 -5h-50zM122 61h64l28 29v135h-92l-29 -29v-106z" />
    <glyph glyph-name="cent.smcp" horiz-adv-x="312" 
d="M136 20q-5 0 -5 5v47h-31q-4 0 -7 3l-49 49q-3 3 -3 7v236q0 4 3 7l49 49q3 3 7 3h31v48q0 5 5 5h50q5 0 5 -5v-48h28q4 0 7 -3l49 -49q3 -3 3 -7v-65q0 -5 -5 -5h-50q-5 0 -5 5v41l-23 23h-71l-23 -23v-188l23 -23h71l23 23v57q0 5 5 5h50q5 0 5 -5v-81q0 -4 -3 -7
l-49 -49q-3 -3 -7 -3h-28v-47q0 -5 -5 -5h-50z" />
    <glyph glyph-name="dollar.smcp" horiz-adv-x="307" 
d="M260 367q0 -5 -5 -5h-46q-5 0 -5 5v59l-19 19h-75l-18 -19v-117l19 -18h97q4 0 7 -3l42 -41q3 -3 3 -7v-191q0 -4 -3 -7l-40 -39q-3 -3 -7 -3h-36v-47q0 -5 -5 -5h-41q-5 0 -5 5v47h-34q-3 0 -7 2l-42 40q-3 3 -3 7v92q0 5 5 5h45q5 0 5 -5v-66l18 -20h75l19 19v143
l-19 17h-99q-4 0 -7 3l-39 39q-3 3 -3 7v167q0 4 3 7l39 40q3 3 7 3h37v47q0 5 5 5h41q5 0 5 -5v-47h36q4 0 7 -3l40 -40q3 -3 3 -7v-83z" />
    <glyph glyph-name="Euro.smcp" horiz-adv-x="345" 
d="M297 368q0 -5 -5 -5h-46q-5 0 -5 5v57l-19 20h-74l-19 -20v-107h1v-43v-3h-1v-42h1v-44v-3h-1v-108l19 -20h74l19 20v70q0 5 5 5h46q5 0 5 -5v-96q0 -4 -3 -7l-40 -39q-3 -3 -7 -3h-122q-3 0 -7 2l-41 40q-3 3 -3 7v134h-26q-5 0 -5 5v37q0 5 5 5h26v42h-26q-5 0 -5 5v36
q0 5 5 5h26v132q0 4 3 7l40 40q3 3 7 3h123q4 0 7 -3l40 -40q3 -3 3 -7v-82z" />
    <glyph glyph-name="percent.smcp" horiz-adv-x="595" 
d="M143 -32q-5 0 -3 6l255 554q2 4 6 4h52q5 0 3 -6l-255 -554q-2 -4 -6 -4h-52zM127 270q-4 0 -7 3l-57 58q-3 3 -3 7v94q0 4 3 7l59 58q3 3 7 3h61q4 0 7 -3l59 -58q3 -3 3 -7v-93q0 -4 -3 -7l-57 -59q-3 -3 -7 -3h-65zM143 323h33l33 34v58l-32 32h-34l-33 -32v-61z
M403 1q-4 0 -7 3l-57 58q-3 3 -3 7v94q0 4 3 7l59 58q3 3 7 3h61q4 0 7 -3l59 -58q3 -3 3 -7v-93q0 -4 -3 -7l-57 -59q-3 -3 -7 -3h-65zM419 54h33l33 34v58l-32 32h-34l-33 -32v-61z" />
    <glyph glyph-name="sterling.smcp" horiz-adv-x="324" 
d="M62 0q-5 0 -5 5v132q0 3 2 7l63 72h-60q-5 0 -5 5v46q0 5 5 5h59l-62 68q-2 4 -2 7v105q0 4 3 7l39 39q3 3 7 3h119q4 0 7 -3l38 -39q3 -3 3 -7v-74q0 -5 -5 -5h-46q-5 0 -5 5v50l-15 16h-72l-16 -16v-59l74 -87q2 -4 2 -6v-4h50q5 0 5 -5v-46q0 -5 -5 -5h-50v-2
q0 -2 -2 -6l-74 -90v-61h154q5 0 5 -5v-47q0 -5 -5 -5h-206z" />
    <glyph glyph-name="yen.smcp" horiz-adv-x="252" 
d="M225 500q7 0 5 -6l-78 -300h40q5 0 5 -5v-29q0 -5 -5 -5h-41v-35h41q5 0 5 -5v-30q0 -5 -5 -5h-41v-75q0 -5 -5 -5h-47q-5 0 -5 5v75h-42q-5 0 -5 5v30q0 5 5 5h42v35h-42q-5 0 -5 5v29q0 5 5 5h41l-79 300q-2 6 5 6h45q4 0 5 -4l50 -209h8l48 209q1 4 5 4h45z" />
    <glyph glyph-name="acute.smcp" horiz-adv-x="201" 
d="M61 631q-5 0 -4 6l25 66q2 4 5 4h52q7 0 3 -6l-48 -67q-2 -3 -6 -3h-27z" />
    <glyph glyph-name="breve.smcp" horiz-adv-x="242" 
d="M77 631q-4 0 -7 3l-47 48q-3 3 -3 7v34q0 5 5 5h39q5 0 5 -5v-10l34 -33h36l31 33v10q0 5 5 5h42q5 0 5 -5v-34q0 -4 -3 -7l-49 -48q-3 -3 -7 -3h-86z" />
    <glyph glyph-name="caron.smcp" horiz-adv-x="306" 
d="M126 631q-4 0 -6 3l-60 70q-4 6 3 6h51q4 0 6 -3l33 -39l33 39q2 3 6 3h51q7 0 3 -6l-60 -70q-2 -3 -6 -3h-54z" />
    <glyph glyph-name="circumflex.smcp" horiz-adv-x="306" 
d="M39 631q-7 0 -3 6l60 70q2 3 6 3h54q4 0 6 -3l60 -70q4 -6 -3 -6h-51q-4 0 -6 3l-33 39l-33 -39q-2 -3 -6 -3h-51z" />
    <glyph glyph-name="dieresis.smcp" horiz-adv-x="301" 
d="M55 631q-5 0 -5 5v55q0 5 5 5h55q5 0 5 -5v-55q0 -5 -5 -5h-55zM181 631q-5 0 -5 5v55q0 5 5 5h55q5 0 5 -5v-55q0 -5 -5 -5h-55z" />
    <glyph glyph-name="dotaccent.smcp" horiz-adv-x="175" 
d="M55 655q-5 0 -5 5v65q0 5 5 5h65q5 0 5 -5v-65q0 -5 -5 -5h-65z" />
    <glyph glyph-name="grave.smcp" horiz-adv-x="199" 
d="M81 631q-5 0 -6 3l-46 68q-4 6 3 6h52q3 0 5 -4l23 -67q2 -6 -4 -6h-27z" />
    <glyph glyph-name="hungarumlaut.smcp" horiz-adv-x="291" 
d="M61 632q-5 0 -4 6l25 66q2 4 5 4h52q7 0 3 -6l-48 -67q-2 -3 -6 -3h-27zM151 632q-5 0 -4 6l25 66q2 4 5 4h52q7 0 3 -6l-48 -67q-2 -3 -6 -3h-27z" />
    <glyph glyph-name="macron.smcp" horiz-adv-x="316" 
d="M60 631q-5 0 -5 5v37q0 5 5 5h196q5 0 5 -5v-37q0 -5 -5 -5h-196z" />
    <glyph glyph-name="ring.smcp" horiz-adv-x="253" 
d="M85 558q-4 0 -7 3l-25 25q-3 3 -3 7v71q0 4 3 7l26 26q3 3 7 3h71q4 0 7 -3l26 -25q3 -3 3 -7v-72q0 -4 -3 -7l-25 -25q-3 -3 -7 -3h-73zM90 597h63v63h-63v-63z" />
    <glyph glyph-name="tilde.smcp" horiz-adv-x="398" 
d="M100 631q-5 0 -5 5v38q0 4 3 6l39 35q4 2 7 2h36q3 0 7 -2l43 -37h38v34q0 5 5 5h39q5 0 5 -5v-38q0 -4 -3 -6l-39 -35q-4 -2 -7 -2h-37q-3 0 -7 2l-43 37h-37v-34q0 -5 -5 -5h-39z" />
    <glyph glyph-name="_smart.dash" horiz-adv-x="600" 
 />
    <glyph glyph-name="_dot" horiz-adv-x="193" 
d="M84 0q-4 0 -7 3l-14 14q-3 3 -3 7v25q0 4 3 7l14 14q3 3 7 3h25q4 0 7 -3l14 -14q3 -3 3 -7v-25q0 -3 -2 -7l-14 -14q-3 -3 -7 -3h-26z" />
    </font>
</defs>
</svg>
