<svg id="visual" viewBox="0 0 1000 100" width="1000" height="100" xmlns="http://www.w3.org/2000/svg" xmlns:xlink="http://www.w3.org/1999/xlink" version="1.1"><rect x="0" y="0" width="1000" height="100" fill="#aca9bb"></rect><path d="M0 31L23.8 31.5C47.7 32 95.3 33 143 35.3C190.7 37.7 238.3 41.3 286 42.2C333.7 43 381.3 41 428.8 39.2C476.3 37.3 523.7 35.7 571.2 33C618.7 30.3 666.3 26.7 714 26.5C761.7 26.3 809.3 29.7 857 31C904.7 32.3 952.3 31.7 976.2 31.3L1000 31L1000 101L976.2 101C952.3 101 904.7 101 857 101C809.3 101 761.7 101 714 101C666.3 101 618.7 101 571.2 101C523.7 101 476.3 101 428.8 101C381.3 101 333.7 101 286 101C238.3 101 190.7 101 143 101C95.3 101 47.7 101 23.8 101L0 101Z" fill="#aca9bb"></path><path d="M0 53L23.8 49.3C47.7 45.7 95.3 38.3 143 38.7C190.7 39 238.3 47 286 49C333.7 51 381.3 47 428.8 43C476.3 39 523.7 35 571.2 33.2C618.7 31.3 666.3 31.7 714 31.5C761.7 31.3 809.3 30.7 857 32.5C904.7 34.3 952.3 38.7 976.2 40.8L1000 43L1000 101L976.2 101C952.3 101 904.7 101 857 101C809.3 101 761.7 101 714 101C666.3 101 618.7 101 571.2 101C523.7 101 476.3 101 428.8 101C381.3 101 333.7 101 286 101C238.3 101 190.7 101 143 101C95.3 101 47.7 101 23.8 101L0 101Z" fill="#9793a8"></path><path d="M0 51L23.8 51.5C47.7 52 95.3 53 143 55C190.7 57 238.3 60 286 58C333.7 56 381.3 49 428.8 45.7C476.3 42.3 523.7 42.7 571.2 46.5C618.7 50.3 666.3 57.7 714 59.8C761.7 62 809.3 59 857 56.2C904.7 53.3 952.3 50.7 976.2 49.3L1000 48L1000 101L976.2 101C952.3 101 904.7 101 857 101C809.3 101 761.7 101 714 101C666.3 101 618.7 101 571.2 101C523.7 101 476.3 101 428.8 101C381.3 101 333.7 101 286 101C238.3 101 190.7 101 143 101C95.3 101 47.7 101 23.8 101L0 101Z" fill="#827e96"></path><path d="M0 70L23.8 70C47.7 70 95.3 70 143 70.7C190.7 71.3 238.3 72.7 286 72C333.7 71.3 381.3 68.7 428.8 67.7C476.3 66.7 523.7 67.3 571.2 66C618.7 64.7 666.3 61.3 714 61C761.7 60.7 809.3 63.3 857 63C904.7 62.7 952.3 59.3 976.2 57.7L1000 56L1000 101L976.2 101C952.3 101 904.7 101 857 101C809.3 101 761.7 101 714 101C666.3 101 618.7 101 571.2 101C523.7 101 476.3 101 428.8 101C381.3 101 333.7 101 286 101C238.3 101 190.7 101 143 101C95.3 101 47.7 101 23.8 101L0 101Z" fill="#6e6a84"></path><path d="M0 68L23.8 67.7C47.7 67.3 95.3 66.7 143 67.3C190.7 68 238.3 70 286 72.7C333.7 75.3 381.3 78.7 428.8 78.8C476.3 79 523.7 76 571.2 75.8C618.7 75.7 666.3 78.3 714 79.2C761.7 80 809.3 79 857 78.2C904.7 77.3 952.3 76.7 976.2 76.3L1000 76L1000 101L976.2 101C952.3 101 904.7 101 857 101C809.3 101 761.7 101 714 101C666.3 101 618.7 101 571.2 101C523.7 101 476.3 101 428.8 101C381.3 101 333.7 101 286 101C238.3 101 190.7 101 143 101C95.3 101 47.7 101 23.8 101L0 101Z" fill="#5a5673"></path><path d="M0 86L23.8 84.8C47.7 83.7 95.3 81.3 143 80.5C190.7 79.7 238.3 80.3 286 80.7C333.7 81 381.3 81 428.8 80.5C476.3 80 523.7 79 571.2 80.2C618.7 81.3 666.3 84.7 714 86.2C761.7 87.7 809.3 87.3 857 87.5C904.7 87.7 952.3 88.3 976.2 88.7L1000 89L1000 101L976.2 101C952.3 101 904.7 101 857 101C809.3 101 761.7 101 714 101C666.3 101 618.7 101 571.2 101C523.7 101 476.3 101 428.8 101C381.3 101 333.7 101 286 101C238.3 101 190.7 101 143 101C95.3 101 47.7 101 23.8 101L0 101Z" fill="#464362"></path></svg>